ISO-10303-21;
HEADER;
/* Generated by software containing ST-Developer
 * from STEP Tools, Inc. (www.steptools.com) 
 */

FILE_DESCRIPTION(
/* description */ (''),
/* implementation_level */ '2;1');

FILE_NAME(
/* name */ '',
/* time_stamp */ '2026-06-02T23:33:43-06:00',
/* author */ (''),
/* organization */ (''),
/* preprocessor_version */ 'ST-DEVELOPER v20.1',
/* originating_system */ 'Autodesk Translation Framework v14.24.0.0',
/* authorisation */ '');

FILE_SCHEMA (('AUTOMOTIVE_DESIGN { 1 0 10303 214 3 1 1 }'));
ENDSEC;

DATA;
#10=MECHANICAL_DESIGN_GEOMETRIC_PRESENTATION_REPRESENTATION('',(#18,#19,
#20),#1145);
#11=SHAPE_REPRESENTATION_RELATIONSHIP('SRR','None',#1152,#12);
#12=ADVANCED_BREP_SHAPE_REPRESENTATION('',(#13),#1144);
#13=MANIFOLD_SOLID_BREP('Cuerpo1',#677);
#14=FACE_BOUND('',#113,.T.);
#15=FACE_BOUND('',#114,.T.);
#16=FACE_BOUND('',#133,.T.);
#17=FACE_BOUND('',#134,.T.);
#18=STYLED_ITEM('',(#1163),#658);
#19=STYLED_ITEM('',(#1163),#676);
#20=STYLED_ITEM('',(#1162),#13);
#21=CIRCLE('',#693,1.50000000000006);
#22=CIRCLE('',#694,1.50000000000006);
#23=CIRCLE('',#697,0.499999999999924);
#24=CIRCLE('',#698,0.499999999999924);
#25=CIRCLE('',#701,0.500000000000114);
#26=CIRCLE('',#702,0.500000000000114);
#27=CIRCLE('',#705,0.500000000000114);
#28=CIRCLE('',#706,0.500000000000114);
#29=CIRCLE('',#710,0.149999999999864);
#30=CIRCLE('',#711,0.149999999999864);
#31=CIRCLE('',#715,0.149999999999864);
#32=CIRCLE('',#716,0.149999999999864);
#33=CIRCLE('',#719,0.499999999999924);
#34=CIRCLE('',#720,0.500000000000114);
#35=CIRCLE('',#721,1.50000000000006);
#36=CIRCLE('',#722,1.50000000000006);
#37=CIRCLE('',#723,1.50000000000006);
#38=CIRCLE('',#724,0.500000000000114);
#39=CIRCLE('',#725,2.05000000000013);
#40=CIRCLE('',#726,2.05000000000013);
#41=CIRCLE('',#728,2.05000000000013);
#42=CIRCLE('',#730,2.05000000000013);
#43=CIRCLE('',#733,0.500000000000114);
#44=CIRCLE('',#736,1.50000000000006);
#45=CIRCLE('',#739,1.50000000000006);
#46=CIRCLE('',#742,1.50000000000006);
#47=CIRCLE('',#748,0.500000000000114);
#48=CIRCLE('',#751,0.499999999999924);
#49=CYLINDRICAL_SURFACE('',#692,1.50000000000006);
#50=CYLINDRICAL_SURFACE('',#696,0.499999999999924);
#51=CYLINDRICAL_SURFACE('',#700,0.500000000000114);
#52=CYLINDRICAL_SURFACE('',#704,0.500000000000114);
#53=CYLINDRICAL_SURFACE('',#709,0.149999999999864);
#54=CYLINDRICAL_SURFACE('',#714,0.149999999999864);
#55=CYLINDRICAL_SURFACE('',#727,2.05000000000013);
#56=CYLINDRICAL_SURFACE('',#729,2.05000000000013);
#57=CYLINDRICAL_SURFACE('',#732,0.500000000000114);
#58=CYLINDRICAL_SURFACE('',#735,1.50000000000006);
#59=CYLINDRICAL_SURFACE('',#738,1.50000000000006);
#60=CYLINDRICAL_SURFACE('',#741,1.50000000000006);
#61=CYLINDRICAL_SURFACE('',#747,0.500000000000114);
#62=CYLINDRICAL_SURFACE('',#750,0.499999999999924);
#63=FACE_OUTER_BOUND('',#97,.T.);
#64=FACE_OUTER_BOUND('',#98,.T.);
#65=FACE_OUTER_BOUND('',#99,.T.);
#66=FACE_OUTER_BOUND('',#100,.T.);
#67=FACE_OUTER_BOUND('',#101,.T.);
#68=FACE_OUTER_BOUND('',#102,.T.);
#69=FACE_OUTER_BOUND('',#103,.T.);
#70=FACE_OUTER_BOUND('',#104,.T.);
#71=FACE_OUTER_BOUND('',#105,.T.);
#72=FACE_OUTER_BOUND('',#106,.T.);
#73=FACE_OUTER_BOUND('',#107,.T.);
#74=FACE_OUTER_BOUND('',#108,.T.);
#75=FACE_OUTER_BOUND('',#109,.T.);
#76=FACE_OUTER_BOUND('',#110,.T.);
#77=FACE_OUTER_BOUND('',#111,.T.);
#78=FACE_OUTER_BOUND('',#112,.T.);
#79=FACE_OUTER_BOUND('',#115,.T.);
#80=FACE_OUTER_BOUND('',#116,.T.);
#81=FACE_OUTER_BOUND('',#117,.T.);
#82=FACE_OUTER_BOUND('',#118,.T.);
#83=FACE_OUTER_BOUND('',#119,.T.);
#84=FACE_OUTER_BOUND('',#120,.T.);
#85=FACE_OUTER_BOUND('',#121,.T.);
#86=FACE_OUTER_BOUND('',#122,.T.);
#87=FACE_OUTER_BOUND('',#123,.T.);
#88=FACE_OUTER_BOUND('',#124,.T.);
#89=FACE_OUTER_BOUND('',#125,.T.);
#90=FACE_OUTER_BOUND('',#126,.T.);
#91=FACE_OUTER_BOUND('',#127,.T.);
#92=FACE_OUTER_BOUND('',#128,.T.);
#93=FACE_OUTER_BOUND('',#129,.T.);
#94=FACE_OUTER_BOUND('',#130,.T.);
#95=FACE_OUTER_BOUND('',#131,.T.);
#96=FACE_OUTER_BOUND('',#132,.T.);
#97=EDGE_LOOP('',(#431,#432,#433,#434));
#98=EDGE_LOOP('',(#435,#436,#437,#438));
#99=EDGE_LOOP('',(#439,#440,#441,#442));
#100=EDGE_LOOP('',(#443,#444,#445,#446));
#101=EDGE_LOOP('',(#447,#448,#449,#450));
#102=EDGE_LOOP('',(#451,#452,#453,#454));
#103=EDGE_LOOP('',(#455,#456,#457,#458));
#104=EDGE_LOOP('',(#459,#460,#461,#462));
#105=EDGE_LOOP('',(#463,#464,#465,#466));
#106=EDGE_LOOP('',(#467,#468,#469,#470));
#107=EDGE_LOOP('',(#471,#472,#473,#474));
#108=EDGE_LOOP('',(#475,#476,#477,#478));
#109=EDGE_LOOP('',(#479,#480,#481,#482));
#110=EDGE_LOOP('',(#483,#484,#485,#486));
#111=EDGE_LOOP('',(#487,#488,#489,#490));
#112=EDGE_LOOP('',(#491,#492,#493,#494,#495,#496,#497,#498,#499,#500,#501,
#502,#503,#504,#505,#506,#507,#508,#509,#510,#511,#512,#513,#514,#515,#516,
#517,#518,#519,#520));
#113=EDGE_LOOP('',(#521));
#114=EDGE_LOOP('',(#522));
#115=EDGE_LOOP('',(#523,#524,#525,#526));
#116=EDGE_LOOP('',(#527,#528,#529,#530));
#117=EDGE_LOOP('',(#531,#532,#533,#534));
#118=EDGE_LOOP('',(#535,#536,#537,#538));
#119=EDGE_LOOP('',(#539,#540,#541,#542));
#120=EDGE_LOOP('',(#543,#544,#545,#546));
#121=EDGE_LOOP('',(#547,#548,#549,#550));
#122=EDGE_LOOP('',(#551,#552,#553,#554));
#123=EDGE_LOOP('',(#555,#556,#557,#558));
#124=EDGE_LOOP('',(#559,#560,#561,#562));
#125=EDGE_LOOP('',(#563,#564,#565,#566));
#126=EDGE_LOOP('',(#567,#568,#569,#570));
#127=EDGE_LOOP('',(#571,#572,#573,#574));
#128=EDGE_LOOP('',(#575,#576,#577,#578));
#129=EDGE_LOOP('',(#579,#580,#581,#582));
#130=EDGE_LOOP('',(#583,#584,#585,#586));
#131=EDGE_LOOP('',(#587,#588,#589,#590));
#132=EDGE_LOOP('',(#591,#592,#593,#594,#595,#596,#597,#598,#599,#600,#601,
#602,#603,#604,#605,#606,#607,#608,#609,#610,#611,#612,#613,#614,#615,#616,
#617,#618,#619,#620));
#133=EDGE_LOOP('',(#621));
#134=EDGE_LOOP('',(#622));
#135=LINE('',#951,#203);
#136=LINE('',#953,#204);
#137=LINE('',#955,#205);
#138=LINE('',#956,#206);
#139=LINE('',#960,#207);
#140=LINE('',#966,#208);
#141=LINE('',#967,#209);
#142=LINE('',#968,#210);
#143=LINE('',#972,#211);
#144=LINE('',#978,#212);
#145=LINE('',#979,#213);
#146=LINE('',#980,#214);
#147=LINE('',#984,#215);
#148=LINE('',#990,#216);
#149=LINE('',#991,#217);
#150=LINE('',#992,#218);
#151=LINE('',#996,#219);
#152=LINE('',#1002,#220);
#153=LINE('',#1003,#221);
#154=LINE('',#1004,#222);
#155=LINE('',#1008,#223);
#156=LINE('',#1009,#224);
#157=LINE('',#1010,#225);
#158=LINE('',#1014,#226);
#159=LINE('',#1018,#227);
#160=LINE('',#1023,#228);
#161=LINE('',#1024,#229);
#162=LINE('',#1025,#230);
#163=LINE('',#1029,#231);
#164=LINE('',#1030,#232);
#165=LINE('',#1031,#233);
#166=LINE('',#1035,#234);
#167=LINE('',#1041,#235);
#168=LINE('',#1042,#236);
#169=LINE('',#1043,#237);
#170=LINE('',#1049,#238);
#171=LINE('',#1053,#239);
#172=LINE('',#1055,#240);
#173=LINE('',#1056,#241);
#174=LINE('',#1057,#242);
#175=LINE('',#1061,#243);
#176=LINE('',#1065,#244);
#177=LINE('',#1069,#245);
#178=LINE('',#1072,#246);
#179=LINE('',#1080,#247);
#180=LINE('',#1084,#248);
#181=LINE('',#1087,#249);
#182=LINE('',#1089,#250);
#183=LINE('',#1090,#251);
#184=LINE('',#1093,#252);
#185=LINE('',#1097,#253);
#186=LINE('',#1098,#254);
#187=LINE('',#1101,#255);
#188=LINE('',#1105,#256);
#189=LINE('',#1106,#257);
#190=LINE('',#1109,#258);
#191=LINE('',#1113,#259);
#192=LINE('',#1114,#260);
#193=LINE('',#1118,#261);
#194=LINE('',#1121,#262);
#195=LINE('',#1122,#263);
#196=LINE('',#1125,#264);
#197=LINE('',#1126,#265);
#198=LINE('',#1129,#266);
#199=LINE('',#1130,#267);
#200=LINE('',#1133,#268);
#201=LINE('',#1137,#269);
#202=LINE('',#1138,#270);
#203=VECTOR('',#757,10.);
#204=VECTOR('',#758,10.);
#205=VECTOR('',#759,10.);
#206=VECTOR('',#760,10.);
#207=VECTOR('',#763,10.);
#208=VECTOR('',#770,10.);
#209=VECTOR('',#771,10.);
#210=VECTOR('',#772,10.);
#211=VECTOR('',#775,10.);
#212=VECTOR('',#782,10.);
#213=VECTOR('',#783,10.);
#214=VECTOR('',#784,10.);
#215=VECTOR('',#787,10.);
#216=VECTOR('',#794,10.);
#217=VECTOR('',#795,10.);
#218=VECTOR('',#796,10.);
#219=VECTOR('',#799,10.);
#220=VECTOR('',#806,10.);
#221=VECTOR('',#807,10.);
#222=VECTOR('',#808,10.);
#223=VECTOR('',#811,10.);
#224=VECTOR('',#812,10.);
#225=VECTOR('',#813,10.);
#226=VECTOR('',#816,10.);
#227=VECTOR('',#819,10.);
#228=VECTOR('',#824,10.);
#229=VECTOR('',#825,10.);
#230=VECTOR('',#826,10.);
#231=VECTOR('',#829,10.);
#232=VECTOR('',#830,10.);
#233=VECTOR('',#831,10.);
#234=VECTOR('',#834,10.);
#235=VECTOR('',#841,10.);
#236=VECTOR('',#842,10.);
#237=VECTOR('',#843,10.);
#238=VECTOR('',#848,10.);
#239=VECTOR('',#851,10.);
#240=VECTOR('',#852,10.);
#241=VECTOR('',#853,10.);
#242=VECTOR('',#854,10.);
#243=VECTOR('',#857,10.);
#244=VECTOR('',#860,10.);
#245=VECTOR('',#863,10.);
#246=VECTOR('',#866,10.);
#247=VECTOR('',#875,2.05000000000013);
#248=VECTOR('',#880,2.05000000000013);
#249=VECTOR('',#883,10.);
#250=VECTOR('',#884,10.);
#251=VECTOR('',#885,10.);
#252=VECTOR('',#888,10.);
#253=VECTOR('',#893,10.);
#254=VECTOR('',#894,10.);
#255=VECTOR('',#897,10.);
#256=VECTOR('',#902,10.);
#257=VECTOR('',#903,10.);
#258=VECTOR('',#906,10.);
#259=VECTOR('',#911,10.);
#260=VECTOR('',#912,10.);
#261=VECTOR('',#919,10.);
#262=VECTOR('',#922,10.);
#263=VECTOR('',#923,10.);
#264=VECTOR('',#926,10.);
#265=VECTOR('',#927,10.);
#266=VECTOR('',#930,10.);
#267=VECTOR('',#931,10.);
#268=VECTOR('',#934,10.);
#269=VECTOR('',#939,10.);
#270=VECTOR('',#940,10.);
#271=VERTEX_POINT('',#949);
#272=VERTEX_POINT('',#950);
#273=VERTEX_POINT('',#952);
#274=VERTEX_POINT('',#954);
#275=VERTEX_POINT('',#958);
#276=VERTEX_POINT('',#959);
#277=VERTEX_POINT('',#964);
#278=VERTEX_POINT('',#965);
#279=VERTEX_POINT('',#970);
#280=VERTEX_POINT('',#971);
#281=VERTEX_POINT('',#976);
#282=VERTEX_POINT('',#977);
#283=VERTEX_POINT('',#982);
#284=VERTEX_POINT('',#983);
#285=VERTEX_POINT('',#988);
#286=VERTEX_POINT('',#989);
#287=VERTEX_POINT('',#994);
#288=VERTEX_POINT('',#995);
#289=VERTEX_POINT('',#1000);
#290=VERTEX_POINT('',#1001);
#291=VERTEX_POINT('',#1006);
#292=VERTEX_POINT('',#1007);
#293=VERTEX_POINT('',#1012);
#294=VERTEX_POINT('',#1013);
#295=VERTEX_POINT('',#1015);
#296=VERTEX_POINT('',#1017);
#297=VERTEX_POINT('',#1021);
#298=VERTEX_POINT('',#1022);
#299=VERTEX_POINT('',#1027);
#300=VERTEX_POINT('',#1028);
#301=VERTEX_POINT('',#1033);
#302=VERTEX_POINT('',#1034);
#303=VERTEX_POINT('',#1039);
#304=VERTEX_POINT('',#1040);
#305=VERTEX_POINT('',#1045);
#306=VERTEX_POINT('',#1046);
#307=VERTEX_POINT('',#1048);
#308=VERTEX_POINT('',#1050);
#309=VERTEX_POINT('',#1052);
#310=VERTEX_POINT('',#1054);
#311=VERTEX_POINT('',#1058);
#312=VERTEX_POINT('',#1060);
#313=VERTEX_POINT('',#1062);
#314=VERTEX_POINT('',#1064);
#315=VERTEX_POINT('',#1066);
#316=VERTEX_POINT('',#1068);
#317=VERTEX_POINT('',#1070);
#318=VERTEX_POINT('',#1073);
#319=VERTEX_POINT('',#1075);
#320=VERTEX_POINT('',#1078);
#321=VERTEX_POINT('',#1082);
#322=VERTEX_POINT('',#1086);
#323=VERTEX_POINT('',#1088);
#324=VERTEX_POINT('',#1092);
#325=VERTEX_POINT('',#1096);
#326=VERTEX_POINT('',#1100);
#327=VERTEX_POINT('',#1104);
#328=VERTEX_POINT('',#1108);
#329=VERTEX_POINT('',#1112);
#330=VERTEX_POINT('',#1120);
#331=VERTEX_POINT('',#1124);
#332=VERTEX_POINT('',#1128);
#333=VERTEX_POINT('',#1132);
#334=VERTEX_POINT('',#1136);
#335=EDGE_CURVE('',#271,#272,#135,.T.);
#336=EDGE_CURVE('',#271,#273,#136,.T.);
#337=EDGE_CURVE('',#273,#274,#137,.T.);
#338=EDGE_CURVE('',#272,#274,#138,.T.);
#339=EDGE_CURVE('',#275,#276,#139,.T.);
#340=EDGE_CURVE('',#275,#271,#21,.T.);
#341=EDGE_CURVE('',#276,#272,#22,.T.);
#342=EDGE_CURVE('',#277,#278,#140,.T.);
#343=EDGE_CURVE('',#277,#275,#141,.T.);
#344=EDGE_CURVE('',#278,#276,#142,.T.);
#345=EDGE_CURVE('',#279,#280,#143,.T.);
#346=EDGE_CURVE('',#279,#277,#23,.T.);
#347=EDGE_CURVE('',#280,#278,#24,.T.);
#348=EDGE_CURVE('',#281,#282,#144,.T.);
#349=EDGE_CURVE('',#281,#279,#145,.T.);
#350=EDGE_CURVE('',#282,#280,#146,.T.);
#351=EDGE_CURVE('',#283,#284,#147,.T.);
#352=EDGE_CURVE('',#283,#281,#25,.T.);
#353=EDGE_CURVE('',#284,#282,#26,.T.);
#354=EDGE_CURVE('',#285,#286,#148,.T.);
#355=EDGE_CURVE('',#283,#285,#149,.T.);
#356=EDGE_CURVE('',#286,#284,#150,.T.);
#357=EDGE_CURVE('',#287,#288,#151,.T.);
#358=EDGE_CURVE('',#287,#285,#27,.T.);
#359=EDGE_CURVE('',#288,#286,#28,.T.);
#360=EDGE_CURVE('',#289,#290,#152,.T.);
#361=EDGE_CURVE('',#289,#287,#153,.T.);
#362=EDGE_CURVE('',#290,#288,#154,.T.);
#363=EDGE_CURVE('',#291,#292,#155,.T.);
#364=EDGE_CURVE('',#289,#291,#156,.T.);
#365=EDGE_CURVE('',#292,#290,#157,.T.);
#366=EDGE_CURVE('',#293,#294,#158,.T.);
#367=EDGE_CURVE('',#295,#293,#29,.T.);
#368=EDGE_CURVE('',#295,#296,#159,.T.);
#369=EDGE_CURVE('',#294,#296,#30,.T.);
#370=EDGE_CURVE('',#297,#298,#160,.T.);
#371=EDGE_CURVE('',#297,#291,#161,.T.);
#372=EDGE_CURVE('',#298,#292,#162,.T.);
#373=EDGE_CURVE('',#299,#300,#163,.T.);
#374=EDGE_CURVE('',#293,#299,#164,.T.);
#375=EDGE_CURVE('',#300,#294,#165,.T.);
#376=EDGE_CURVE('',#301,#302,#166,.T.);
#377=EDGE_CURVE('',#299,#301,#31,.T.);
#378=EDGE_CURVE('',#302,#300,#32,.T.);
#379=EDGE_CURVE('',#303,#304,#167,.T.);
#380=EDGE_CURVE('',#301,#303,#168,.T.);
#381=EDGE_CURVE('',#304,#302,#169,.T.);
#382=EDGE_CURVE('',#305,#306,#33,.T.);
#383=EDGE_CURVE('',#306,#307,#170,.T.);
#384=EDGE_CURVE('',#307,#308,#34,.T.);
#385=EDGE_CURVE('',#308,#309,#171,.T.);
#386=EDGE_CURVE('',#309,#310,#172,.T.);
#387=EDGE_CURVE('',#310,#304,#173,.T.);
#388=EDGE_CURVE('',#296,#298,#174,.T.);
#389=EDGE_CURVE('',#274,#311,#35,.T.);
#390=EDGE_CURVE('',#311,#312,#175,.T.);
#391=EDGE_CURVE('',#312,#313,#36,.T.);
#392=EDGE_CURVE('',#313,#314,#176,.T.);
#393=EDGE_CURVE('',#314,#315,#37,.T.);
#394=EDGE_CURVE('',#315,#316,#177,.T.);
#395=EDGE_CURVE('',#316,#317,#38,.T.);
#396=EDGE_CURVE('',#317,#305,#178,.T.);
#397=EDGE_CURVE('',#318,#318,#39,.T.);
#398=EDGE_CURVE('',#319,#319,#40,.T.);
#399=EDGE_CURVE('',#320,#320,#41,.T.);
#400=EDGE_CURVE('',#320,#319,#179,.T.);
#401=EDGE_CURVE('',#321,#321,#42,.T.);
#402=EDGE_CURVE('',#321,#318,#180,.T.);
#403=EDGE_CURVE('',#322,#317,#181,.T.);
#404=EDGE_CURVE('',#323,#322,#182,.T.);
#405=EDGE_CURVE('',#323,#305,#183,.T.);
#406=EDGE_CURVE('',#324,#316,#184,.T.);
#407=EDGE_CURVE('',#324,#322,#43,.T.);
#408=EDGE_CURVE('',#325,#315,#185,.T.);
#409=EDGE_CURVE('',#324,#325,#186,.T.);
#410=EDGE_CURVE('',#326,#314,#187,.T.);
#411=EDGE_CURVE('',#326,#325,#44,.T.);
#412=EDGE_CURVE('',#327,#313,#188,.T.);
#413=EDGE_CURVE('',#327,#326,#189,.T.);
#414=EDGE_CURVE('',#328,#312,#190,.T.);
#415=EDGE_CURVE('',#328,#327,#45,.T.);
#416=EDGE_CURVE('',#329,#311,#191,.T.);
#417=EDGE_CURVE('',#329,#328,#192,.T.);
#418=EDGE_CURVE('',#273,#329,#46,.T.);
#419=EDGE_CURVE('',#297,#295,#193,.T.);
#420=EDGE_CURVE('',#330,#310,#194,.T.);
#421=EDGE_CURVE('',#303,#330,#195,.T.);
#422=EDGE_CURVE('',#331,#309,#196,.T.);
#423=EDGE_CURVE('',#331,#330,#197,.T.);
#424=EDGE_CURVE('',#332,#308,#198,.T.);
#425=EDGE_CURVE('',#331,#332,#199,.T.);
#426=EDGE_CURVE('',#333,#307,#200,.T.);
#427=EDGE_CURVE('',#333,#332,#47,.T.);
#428=EDGE_CURVE('',#334,#306,#201,.T.);
#429=EDGE_CURVE('',#334,#333,#202,.T.);
#430=EDGE_CURVE('',#323,#334,#48,.T.);
#431=ORIENTED_EDGE('',*,*,#335,.F.);
#432=ORIENTED_EDGE('',*,*,#336,.T.);
#433=ORIENTED_EDGE('',*,*,#337,.T.);
#434=ORIENTED_EDGE('',*,*,#338,.F.);
#435=ORIENTED_EDGE('',*,*,#339,.F.);
#436=ORIENTED_EDGE('',*,*,#340,.T.);
#437=ORIENTED_EDGE('',*,*,#335,.T.);
#438=ORIENTED_EDGE('',*,*,#341,.F.);
#439=ORIENTED_EDGE('',*,*,#342,.F.);
#440=ORIENTED_EDGE('',*,*,#343,.T.);
#441=ORIENTED_EDGE('',*,*,#339,.T.);
#442=ORIENTED_EDGE('',*,*,#344,.F.);
#443=ORIENTED_EDGE('',*,*,#345,.F.);
#444=ORIENTED_EDGE('',*,*,#346,.T.);
#445=ORIENTED_EDGE('',*,*,#342,.T.);
#446=ORIENTED_EDGE('',*,*,#347,.F.);
#447=ORIENTED_EDGE('',*,*,#348,.F.);
#448=ORIENTED_EDGE('',*,*,#349,.T.);
#449=ORIENTED_EDGE('',*,*,#345,.T.);
#450=ORIENTED_EDGE('',*,*,#350,.F.);
#451=ORIENTED_EDGE('',*,*,#351,.F.);
#452=ORIENTED_EDGE('',*,*,#352,.T.);
#453=ORIENTED_EDGE('',*,*,#348,.T.);
#454=ORIENTED_EDGE('',*,*,#353,.F.);
#455=ORIENTED_EDGE('',*,*,#354,.F.);
#456=ORIENTED_EDGE('',*,*,#355,.F.);
#457=ORIENTED_EDGE('',*,*,#351,.T.);
#458=ORIENTED_EDGE('',*,*,#356,.F.);
#459=ORIENTED_EDGE('',*,*,#357,.F.);
#460=ORIENTED_EDGE('',*,*,#358,.T.);
#461=ORIENTED_EDGE('',*,*,#354,.T.);
#462=ORIENTED_EDGE('',*,*,#359,.F.);
#463=ORIENTED_EDGE('',*,*,#360,.F.);
#464=ORIENTED_EDGE('',*,*,#361,.T.);
#465=ORIENTED_EDGE('',*,*,#357,.T.);
#466=ORIENTED_EDGE('',*,*,#362,.F.);
#467=ORIENTED_EDGE('',*,*,#363,.F.);
#468=ORIENTED_EDGE('',*,*,#364,.F.);
#469=ORIENTED_EDGE('',*,*,#360,.T.);
#470=ORIENTED_EDGE('',*,*,#365,.F.);
#471=ORIENTED_EDGE('',*,*,#366,.F.);
#472=ORIENTED_EDGE('',*,*,#367,.F.);
#473=ORIENTED_EDGE('',*,*,#368,.T.);
#474=ORIENTED_EDGE('',*,*,#369,.F.);
#475=ORIENTED_EDGE('',*,*,#370,.F.);
#476=ORIENTED_EDGE('',*,*,#371,.T.);
#477=ORIENTED_EDGE('',*,*,#363,.T.);
#478=ORIENTED_EDGE('',*,*,#372,.F.);
#479=ORIENTED_EDGE('',*,*,#373,.F.);
#480=ORIENTED_EDGE('',*,*,#374,.F.);
#481=ORIENTED_EDGE('',*,*,#366,.T.);
#482=ORIENTED_EDGE('',*,*,#375,.F.);
#483=ORIENTED_EDGE('',*,*,#376,.F.);
#484=ORIENTED_EDGE('',*,*,#377,.F.);
#485=ORIENTED_EDGE('',*,*,#373,.T.);
#486=ORIENTED_EDGE('',*,*,#378,.F.);
#487=ORIENTED_EDGE('',*,*,#379,.F.);
#488=ORIENTED_EDGE('',*,*,#380,.F.);
#489=ORIENTED_EDGE('',*,*,#376,.T.);
#490=ORIENTED_EDGE('',*,*,#381,.F.);
#491=ORIENTED_EDGE('',*,*,#382,.T.);
#492=ORIENTED_EDGE('',*,*,#383,.T.);
#493=ORIENTED_EDGE('',*,*,#384,.T.);
#494=ORIENTED_EDGE('',*,*,#385,.T.);
#495=ORIENTED_EDGE('',*,*,#386,.T.);
#496=ORIENTED_EDGE('',*,*,#387,.T.);
#497=ORIENTED_EDGE('',*,*,#381,.T.);
#498=ORIENTED_EDGE('',*,*,#378,.T.);
#499=ORIENTED_EDGE('',*,*,#375,.T.);
#500=ORIENTED_EDGE('',*,*,#369,.T.);
#501=ORIENTED_EDGE('',*,*,#388,.T.);
#502=ORIENTED_EDGE('',*,*,#372,.T.);
#503=ORIENTED_EDGE('',*,*,#365,.T.);
#504=ORIENTED_EDGE('',*,*,#362,.T.);
#505=ORIENTED_EDGE('',*,*,#359,.T.);
#506=ORIENTED_EDGE('',*,*,#356,.T.);
#507=ORIENTED_EDGE('',*,*,#353,.T.);
#508=ORIENTED_EDGE('',*,*,#350,.T.);
#509=ORIENTED_EDGE('',*,*,#347,.T.);
#510=ORIENTED_EDGE('',*,*,#344,.T.);
#511=ORIENTED_EDGE('',*,*,#341,.T.);
#512=ORIENTED_EDGE('',*,*,#338,.T.);
#513=ORIENTED_EDGE('',*,*,#389,.T.);
#514=ORIENTED_EDGE('',*,*,#390,.T.);
#515=ORIENTED_EDGE('',*,*,#391,.T.);
#516=ORIENTED_EDGE('',*,*,#392,.T.);
#517=ORIENTED_EDGE('',*,*,#393,.T.);
#518=ORIENTED_EDGE('',*,*,#394,.T.);
#519=ORIENTED_EDGE('',*,*,#395,.T.);
#520=ORIENTED_EDGE('',*,*,#396,.T.);
#521=ORIENTED_EDGE('',*,*,#397,.T.);
#522=ORIENTED_EDGE('',*,*,#398,.T.);
#523=ORIENTED_EDGE('',*,*,#399,.T.);
#524=ORIENTED_EDGE('',*,*,#400,.T.);
#525=ORIENTED_EDGE('',*,*,#398,.F.);
#526=ORIENTED_EDGE('',*,*,#400,.F.);
#527=ORIENTED_EDGE('',*,*,#401,.T.);
#528=ORIENTED_EDGE('',*,*,#402,.T.);
#529=ORIENTED_EDGE('',*,*,#397,.F.);
#530=ORIENTED_EDGE('',*,*,#402,.F.);
#531=ORIENTED_EDGE('',*,*,#403,.F.);
#532=ORIENTED_EDGE('',*,*,#404,.F.);
#533=ORIENTED_EDGE('',*,*,#405,.T.);
#534=ORIENTED_EDGE('',*,*,#396,.F.);
#535=ORIENTED_EDGE('',*,*,#406,.F.);
#536=ORIENTED_EDGE('',*,*,#407,.T.);
#537=ORIENTED_EDGE('',*,*,#403,.T.);
#538=ORIENTED_EDGE('',*,*,#395,.F.);
#539=ORIENTED_EDGE('',*,*,#408,.F.);
#540=ORIENTED_EDGE('',*,*,#409,.F.);
#541=ORIENTED_EDGE('',*,*,#406,.T.);
#542=ORIENTED_EDGE('',*,*,#394,.F.);
#543=ORIENTED_EDGE('',*,*,#410,.F.);
#544=ORIENTED_EDGE('',*,*,#411,.T.);
#545=ORIENTED_EDGE('',*,*,#408,.T.);
#546=ORIENTED_EDGE('',*,*,#393,.F.);
#547=ORIENTED_EDGE('',*,*,#412,.F.);
#548=ORIENTED_EDGE('',*,*,#413,.T.);
#549=ORIENTED_EDGE('',*,*,#410,.T.);
#550=ORIENTED_EDGE('',*,*,#392,.F.);
#551=ORIENTED_EDGE('',*,*,#414,.F.);
#552=ORIENTED_EDGE('',*,*,#415,.T.);
#553=ORIENTED_EDGE('',*,*,#412,.T.);
#554=ORIENTED_EDGE('',*,*,#391,.F.);
#555=ORIENTED_EDGE('',*,*,#416,.F.);
#556=ORIENTED_EDGE('',*,*,#417,.T.);
#557=ORIENTED_EDGE('',*,*,#414,.T.);
#558=ORIENTED_EDGE('',*,*,#390,.F.);
#559=ORIENTED_EDGE('',*,*,#337,.F.);
#560=ORIENTED_EDGE('',*,*,#418,.T.);
#561=ORIENTED_EDGE('',*,*,#416,.T.);
#562=ORIENTED_EDGE('',*,*,#389,.F.);
#563=ORIENTED_EDGE('',*,*,#368,.F.);
#564=ORIENTED_EDGE('',*,*,#419,.F.);
#565=ORIENTED_EDGE('',*,*,#370,.T.);
#566=ORIENTED_EDGE('',*,*,#388,.F.);
#567=ORIENTED_EDGE('',*,*,#420,.F.);
#568=ORIENTED_EDGE('',*,*,#421,.F.);
#569=ORIENTED_EDGE('',*,*,#379,.T.);
#570=ORIENTED_EDGE('',*,*,#387,.F.);
#571=ORIENTED_EDGE('',*,*,#422,.F.);
#572=ORIENTED_EDGE('',*,*,#423,.T.);
#573=ORIENTED_EDGE('',*,*,#420,.T.);
#574=ORIENTED_EDGE('',*,*,#386,.F.);
#575=ORIENTED_EDGE('',*,*,#424,.F.);
#576=ORIENTED_EDGE('',*,*,#425,.F.);
#577=ORIENTED_EDGE('',*,*,#422,.T.);
#578=ORIENTED_EDGE('',*,*,#385,.F.);
#579=ORIENTED_EDGE('',*,*,#426,.F.);
#580=ORIENTED_EDGE('',*,*,#427,.T.);
#581=ORIENTED_EDGE('',*,*,#424,.T.);
#582=ORIENTED_EDGE('',*,*,#384,.F.);
#583=ORIENTED_EDGE('',*,*,#428,.F.);
#584=ORIENTED_EDGE('',*,*,#429,.T.);
#585=ORIENTED_EDGE('',*,*,#426,.T.);
#586=ORIENTED_EDGE('',*,*,#383,.F.);
#587=ORIENTED_EDGE('',*,*,#405,.F.);
#588=ORIENTED_EDGE('',*,*,#430,.T.);
#589=ORIENTED_EDGE('',*,*,#428,.T.);
#590=ORIENTED_EDGE('',*,*,#382,.F.);
#591=ORIENTED_EDGE('',*,*,#430,.F.);
#592=ORIENTED_EDGE('',*,*,#404,.T.);
#593=ORIENTED_EDGE('',*,*,#407,.F.);
#594=ORIENTED_EDGE('',*,*,#409,.T.);
#595=ORIENTED_EDGE('',*,*,#411,.F.);
#596=ORIENTED_EDGE('',*,*,#413,.F.);
#597=ORIENTED_EDGE('',*,*,#415,.F.);
#598=ORIENTED_EDGE('',*,*,#417,.F.);
#599=ORIENTED_EDGE('',*,*,#418,.F.);
#600=ORIENTED_EDGE('',*,*,#336,.F.);
#601=ORIENTED_EDGE('',*,*,#340,.F.);
#602=ORIENTED_EDGE('',*,*,#343,.F.);
#603=ORIENTED_EDGE('',*,*,#346,.F.);
#604=ORIENTED_EDGE('',*,*,#349,.F.);
#605=ORIENTED_EDGE('',*,*,#352,.F.);
#606=ORIENTED_EDGE('',*,*,#355,.T.);
#607=ORIENTED_EDGE('',*,*,#358,.F.);
#608=ORIENTED_EDGE('',*,*,#361,.F.);
#609=ORIENTED_EDGE('',*,*,#364,.T.);
#610=ORIENTED_EDGE('',*,*,#371,.F.);
#611=ORIENTED_EDGE('',*,*,#419,.T.);
#612=ORIENTED_EDGE('',*,*,#367,.T.);
#613=ORIENTED_EDGE('',*,*,#374,.T.);
#614=ORIENTED_EDGE('',*,*,#377,.T.);
#615=ORIENTED_EDGE('',*,*,#380,.T.);
#616=ORIENTED_EDGE('',*,*,#421,.T.);
#617=ORIENTED_EDGE('',*,*,#423,.F.);
#618=ORIENTED_EDGE('',*,*,#425,.T.);
#619=ORIENTED_EDGE('',*,*,#427,.F.);
#620=ORIENTED_EDGE('',*,*,#429,.F.);
#621=ORIENTED_EDGE('',*,*,#401,.F.);
#622=ORIENTED_EDGE('',*,*,#399,.F.);
#623=PLANE('',#691);
#624=PLANE('',#695);
#625=PLANE('',#699);
#626=PLANE('',#703);
#627=PLANE('',#707);
#628=PLANE('',#708);
#629=PLANE('',#712);
#630=PLANE('',#713);
#631=PLANE('',#717);
#632=PLANE('',#718);
#633=PLANE('',#731);
#634=PLANE('',#734);
#635=PLANE('',#737);
#636=PLANE('',#740);
#637=PLANE('',#743);
#638=PLANE('',#744);
#639=PLANE('',#745);
#640=PLANE('',#746);
#641=PLANE('',#749);
#642=PLANE('',#752);
#643=ADVANCED_FACE('',(#63),#623,.T.);
#644=ADVANCED_FACE('',(#64),#49,.T.);
#645=ADVANCED_FACE('',(#65),#624,.T.);
#646=ADVANCED_FACE('',(#66),#50,.T.);
#647=ADVANCED_FACE('',(#67),#625,.T.);
#648=ADVANCED_FACE('',(#68),#51,.T.);
#649=ADVANCED_FACE('',(#69),#626,.T.);
#650=ADVANCED_FACE('',(#70),#52,.T.);
#651=ADVANCED_FACE('',(#71),#627,.T.);
#652=ADVANCED_FACE('',(#72),#628,.T.);
#653=ADVANCED_FACE('',(#73),#53,.F.);
#654=ADVANCED_FACE('',(#74),#629,.T.);
#655=ADVANCED_FACE('',(#75),#630,.T.);
#656=ADVANCED_FACE('',(#76),#54,.F.);
#657=ADVANCED_FACE('',(#77),#631,.T.);
#658=ADVANCED_FACE('',(#78,#14,#15),#632,.T.);
#659=ADVANCED_FACE('',(#79),#55,.F.);
#660=ADVANCED_FACE('',(#80),#56,.F.);
#661=ADVANCED_FACE('',(#81),#633,.T.);
#662=ADVANCED_FACE('',(#82),#57,.T.);
#663=ADVANCED_FACE('',(#83),#634,.T.);
#664=ADVANCED_FACE('',(#84),#58,.T.);
#665=ADVANCED_FACE('',(#85),#635,.T.);
#666=ADVANCED_FACE('',(#86),#59,.T.);
#667=ADVANCED_FACE('',(#87),#636,.T.);
#668=ADVANCED_FACE('',(#88),#60,.T.);
#669=ADVANCED_FACE('',(#89),#637,.T.);
#670=ADVANCED_FACE('',(#90),#638,.T.);
#671=ADVANCED_FACE('',(#91),#639,.T.);
#672=ADVANCED_FACE('',(#92),#640,.T.);
#673=ADVANCED_FACE('',(#93),#61,.T.);
#674=ADVANCED_FACE('',(#94),#641,.T.);
#675=ADVANCED_FACE('',(#95),#62,.T.);
#676=ADVANCED_FACE('',(#96,#16,#17),#642,.F.);
#677=CLOSED_SHELL('',(#643,#644,#645,#646,#647,#648,#649,#650,#651,#652,
#653,#654,#655,#656,#657,#658,#659,#660,#661,#662,#663,#664,#665,#666,#667,
#668,#669,#670,#671,#672,#673,#674,#675,#676));
#678=DERIVED_UNIT_ELEMENT(#680,1.);
#679=DERIVED_UNIT_ELEMENT(#1147,-3.);
#680=(
MASS_UNIT()
NAMED_UNIT(*)
SI_UNIT(.KILO.,.GRAM.)
);
#681=DERIVED_UNIT((#678,#679));
#682=MEASURE_REPRESENTATION_ITEM('density measure',
POSITIVE_RATIO_MEASURE(7850.),#681);
#683=PROPERTY_DEFINITION_REPRESENTATION(#688,#685);
#684=PROPERTY_DEFINITION_REPRESENTATION(#689,#686);
#685=REPRESENTATION('material name',(#687),#1144);
#686=REPRESENTATION('density',(#682),#1144);
#687=DESCRIPTIVE_REPRESENTATION_ITEM('\X2\94A2\X0\','\X2\94A2\X0\');
#688=PROPERTY_DEFINITION('material property','material name',#1154);
#689=PROPERTY_DEFINITION('material property','density of part',#1154);
#690=AXIS2_PLACEMENT_3D('',#947,#753,#754);
#691=AXIS2_PLACEMENT_3D('',#948,#755,#756);
#692=AXIS2_PLACEMENT_3D('',#957,#761,#762);
#693=AXIS2_PLACEMENT_3D('',#961,#764,#765);
#694=AXIS2_PLACEMENT_3D('',#962,#766,#767);
#695=AXIS2_PLACEMENT_3D('',#963,#768,#769);
#696=AXIS2_PLACEMENT_3D('',#969,#773,#774);
#697=AXIS2_PLACEMENT_3D('',#973,#776,#777);
#698=AXIS2_PLACEMENT_3D('',#974,#778,#779);
#699=AXIS2_PLACEMENT_3D('',#975,#780,#781);
#700=AXIS2_PLACEMENT_3D('',#981,#785,#786);
#701=AXIS2_PLACEMENT_3D('',#985,#788,#789);
#702=AXIS2_PLACEMENT_3D('',#986,#790,#791);
#703=AXIS2_PLACEMENT_3D('',#987,#792,#793);
#704=AXIS2_PLACEMENT_3D('',#993,#797,#798);
#705=AXIS2_PLACEMENT_3D('',#997,#800,#801);
#706=AXIS2_PLACEMENT_3D('',#998,#802,#803);
#707=AXIS2_PLACEMENT_3D('',#999,#804,#805);
#708=AXIS2_PLACEMENT_3D('',#1005,#809,#810);
#709=AXIS2_PLACEMENT_3D('',#1011,#814,#815);
#710=AXIS2_PLACEMENT_3D('',#1016,#817,#818);
#711=AXIS2_PLACEMENT_3D('',#1019,#820,#821);
#712=AXIS2_PLACEMENT_3D('',#1020,#822,#823);
#713=AXIS2_PLACEMENT_3D('',#1026,#827,#828);
#714=AXIS2_PLACEMENT_3D('',#1032,#832,#833);
#715=AXIS2_PLACEMENT_3D('',#1036,#835,#836);
#716=AXIS2_PLACEMENT_3D('',#1037,#837,#838);
#717=AXIS2_PLACEMENT_3D('',#1038,#839,#840);
#718=AXIS2_PLACEMENT_3D('',#1044,#844,#845);
#719=AXIS2_PLACEMENT_3D('',#1047,#846,#847);
#720=AXIS2_PLACEMENT_3D('',#1051,#849,#850);
#721=AXIS2_PLACEMENT_3D('',#1059,#855,#856);
#722=AXIS2_PLACEMENT_3D('',#1063,#858,#859);
#723=AXIS2_PLACEMENT_3D('',#1067,#861,#862);
#724=AXIS2_PLACEMENT_3D('',#1071,#864,#865);
#725=AXIS2_PLACEMENT_3D('',#1074,#867,#868);
#726=AXIS2_PLACEMENT_3D('',#1076,#869,#870);
#727=AXIS2_PLACEMENT_3D('',#1077,#871,#872);
#728=AXIS2_PLACEMENT_3D('',#1079,#873,#874);
#729=AXIS2_PLACEMENT_3D('',#1081,#876,#877);
#730=AXIS2_PLACEMENT_3D('',#1083,#878,#879);
#731=AXIS2_PLACEMENT_3D('',#1085,#881,#882);
#732=AXIS2_PLACEMENT_3D('',#1091,#886,#887);
#733=AXIS2_PLACEMENT_3D('',#1094,#889,#890);
#734=AXIS2_PLACEMENT_3D('',#1095,#891,#892);
#735=AXIS2_PLACEMENT_3D('',#1099,#895,#896);
#736=AXIS2_PLACEMENT_3D('',#1102,#898,#899);
#737=AXIS2_PLACEMENT_3D('',#1103,#900,#901);
#738=AXIS2_PLACEMENT_3D('',#1107,#904,#905);
#739=AXIS2_PLACEMENT_3D('',#1110,#907,#908);
#740=AXIS2_PLACEMENT_3D('',#1111,#909,#910);
#741=AXIS2_PLACEMENT_3D('',#1115,#913,#914);
#742=AXIS2_PLACEMENT_3D('',#1116,#915,#916);
#743=AXIS2_PLACEMENT_3D('',#1117,#917,#918);
#744=AXIS2_PLACEMENT_3D('',#1119,#920,#921);
#745=AXIS2_PLACEMENT_3D('',#1123,#924,#925);
#746=AXIS2_PLACEMENT_3D('',#1127,#928,#929);
#747=AXIS2_PLACEMENT_3D('',#1131,#932,#933);
#748=AXIS2_PLACEMENT_3D('',#1134,#935,#936);
#749=AXIS2_PLACEMENT_3D('',#1135,#937,#938);
#750=AXIS2_PLACEMENT_3D('',#1139,#941,#942);
#751=AXIS2_PLACEMENT_3D('',#1140,#943,#944);
#752=AXIS2_PLACEMENT_3D('',#1141,#945,#946);
#753=DIRECTION('axis',(0.,0.,1.));
#754=DIRECTION('refdir',(1.,0.,0.));
#755=DIRECTION('center_axis',(1.,0.,-1.22464679914735E-16));
#756=DIRECTION('ref_axis',(-1.22464679914735E-16,0.,-1.));
#757=DIRECTION('',(0.,1.,0.));
#758=DIRECTION('',(-1.22464679914735E-16,0.,-1.));
#759=DIRECTION('',(0.,1.,0.));
#760=DIRECTION('',(-1.22464679914735E-16,0.,-1.));
#761=DIRECTION('center_axis',(0.,1.,0.));
#762=DIRECTION('ref_axis',(1.22464679914735E-16,0.,1.));
#763=DIRECTION('',(0.,1.,0.));
#764=DIRECTION('center_axis',(0.,1.,0.));
#765=DIRECTION('ref_axis',(1.22464679914735E-16,0.,1.));
#766=DIRECTION('center_axis',(0.,1.,0.));
#767=DIRECTION('ref_axis',(1.22464679914735E-16,0.,1.));
#768=DIRECTION('center_axis',(1.22464679914735E-16,0.,1.));
#769=DIRECTION('ref_axis',(1.,0.,-1.22464679914735E-16));
#770=DIRECTION('',(0.,1.,0.));
#771=DIRECTION('',(1.,0.,-1.22464679914735E-16));
#772=DIRECTION('',(1.,0.,-1.22464679914735E-16));
#773=DIRECTION('center_axis',(0.,1.,0.));
#774=DIRECTION('ref_axis',(-0.707106781186547,0.,0.707106781186548));
#775=DIRECTION('',(0.,1.,0.));
#776=DIRECTION('center_axis',(0.,1.,0.));
#777=DIRECTION('ref_axis',(-0.707106781186547,0.,0.707106781186548));
#778=DIRECTION('center_axis',(0.,1.,0.));
#779=DIRECTION('ref_axis',(-0.707106781186547,0.,0.707106781186548));
#780=DIRECTION('center_axis',(-0.707106781186216,0.,0.707106781186879));
#781=DIRECTION('ref_axis',(0.707106781186879,0.,0.707106781186216));
#782=DIRECTION('',(0.,1.,0.));
#783=DIRECTION('',(0.707106781186879,0.,0.707106781186216));
#784=DIRECTION('',(0.707106781186879,0.,0.707106781186216));
#785=DIRECTION('center_axis',(0.,1.,0.));
#786=DIRECTION('ref_axis',(-1.,0.,1.22464679914735E-16));
#787=DIRECTION('',(0.,1.,0.));
#788=DIRECTION('center_axis',(0.,1.,0.));
#789=DIRECTION('ref_axis',(-1.,0.,1.22464679914735E-16));
#790=DIRECTION('center_axis',(0.,1.,0.));
#791=DIRECTION('ref_axis',(-1.,0.,1.22464679914735E-16));
#792=DIRECTION('center_axis',(-1.,0.,1.22464679914735E-16));
#793=DIRECTION('ref_axis',(1.22464679914735E-16,0.,1.));
#794=DIRECTION('',(0.,1.,0.));
#795=DIRECTION('',(-1.22464679914735E-16,0.,-1.));
#796=DIRECTION('',(1.22464679914735E-16,0.,1.));
#797=DIRECTION('center_axis',(0.,1.,0.));
#798=DIRECTION('ref_axis',(5.68311723928036E-13,0.,-1.));
#799=DIRECTION('',(0.,1.,0.));
#800=DIRECTION('center_axis',(0.,1.,0.));
#801=DIRECTION('ref_axis',(5.68311723928036E-13,0.,-1.));
#802=DIRECTION('center_axis',(0.,1.,0.));
#803=DIRECTION('ref_axis',(5.68311723928036E-13,0.,-1.));
#804=DIRECTION('center_axis',(7.68031844249678E-13,0.,-1.));
#805=DIRECTION('ref_axis',(-1.,0.,-7.68031844249678E-13));
#806=DIRECTION('',(0.,1.,0.));
#807=DIRECTION('',(-1.,0.,-7.68031844249678E-13));
#808=DIRECTION('',(-1.,0.,-7.68031844249678E-13));
#809=DIRECTION('center_axis',(-1.,0.,1.22464679914735E-16));
#810=DIRECTION('ref_axis',(1.22464679914735E-16,0.,1.));
#811=DIRECTION('',(0.,1.,0.));
#812=DIRECTION('',(-1.22464679914735E-16,0.,-1.));
#813=DIRECTION('',(1.22464679914735E-16,0.,1.));
#814=DIRECTION('center_axis',(0.,1.,0.));
#815=DIRECTION('ref_axis',(1.,0.,-1.22464679914735E-16));
#816=DIRECTION('',(0.,1.,0.));
#817=DIRECTION('center_axis',(0.,1.,0.));
#818=DIRECTION('ref_axis',(1.,0.,-1.22464679914735E-16));
#819=DIRECTION('',(0.,1.,0.));
#820=DIRECTION('center_axis',(0.,-1.,0.));
#821=DIRECTION('ref_axis',(1.,0.,-1.22464679914735E-16));
#822=DIRECTION('center_axis',(-0.707106781186547,0.,0.707106781186548));
#823=DIRECTION('ref_axis',(0.707106781186548,0.,0.707106781186547));
#824=DIRECTION('',(0.,1.,0.));
#825=DIRECTION('',(0.707106781186548,0.,0.707106781186547));
#826=DIRECTION('',(0.707106781186548,0.,0.707106781186547));
#827=DIRECTION('center_axis',(1.22464679914735E-16,0.,1.));
#828=DIRECTION('ref_axis',(1.,0.,-1.22464679914735E-16));
#829=DIRECTION('',(0.,1.,0.));
#830=DIRECTION('',(-1.,0.,1.22464679914735E-16));
#831=DIRECTION('',(1.,0.,-1.22464679914735E-16));
#832=DIRECTION('center_axis',(0.,1.,0.));
#833=DIRECTION('ref_axis',(1.,0.,-1.22464679914735E-16));
#834=DIRECTION('',(0.,1.,0.));
#835=DIRECTION('center_axis',(0.,1.,0.));
#836=DIRECTION('ref_axis',(1.,0.,-1.22464679914735E-16));
#837=DIRECTION('center_axis',(0.,-1.,0.));
#838=DIRECTION('ref_axis',(1.,0.,-1.22464679914735E-16));
#839=DIRECTION('center_axis',(1.22464679914735E-16,0.,1.));
#840=DIRECTION('ref_axis',(1.,0.,-1.22464679914735E-16));
#841=DIRECTION('',(0.,1.,0.));
#842=DIRECTION('',(-1.,0.,1.22464679914735E-16));
#843=DIRECTION('',(1.,0.,-1.22464679914735E-16));
#844=DIRECTION('center_axis',(0.,1.,0.));
#845=DIRECTION('ref_axis',(-1.,0.,1.22464679914735E-16));
#846=DIRECTION('center_axis',(0.,1.,0.));
#847=DIRECTION('ref_axis',(0.707106781186548,0.,0.707106781186547));
#848=DIRECTION('',(-1.22464679914735E-16,0.,-1.));
#849=DIRECTION('center_axis',(0.,1.,0.));
#850=DIRECTION('ref_axis',(1.,0.,-1.22464679914735E-16));
#851=DIRECTION('',(-1.,0.,6.14645911824061E-13));
#852=DIRECTION('',(-1.22464679914735E-16,0.,-1.));
#853=DIRECTION('',(0.707106781186547,0.,-0.707106781186548));
#854=DIRECTION('',(1.,0.,-1.22464679914735E-16));
#855=DIRECTION('center_axis',(0.,1.,0.));
#856=DIRECTION('ref_axis',(1.,0.,-1.22464679914735E-16));
#857=DIRECTION('',(-1.,0.,1.22464679914735E-16));
#858=DIRECTION('center_axis',(0.,1.,0.));
#859=DIRECTION('ref_axis',(-1.22464679914735E-16,0.,-1.));
#860=DIRECTION('',(1.22464679914735E-16,0.,1.));
#861=DIRECTION('center_axis',(0.,1.,0.));
#862=DIRECTION('ref_axis',(-1.,0.,1.22464679914735E-16));
#863=DIRECTION('',(1.,0.,6.60839559826161E-14));
#864=DIRECTION('center_axis',(0.,1.,0.));
#865=DIRECTION('ref_axis',(1.22464679914735E-16,0.,1.));
#866=DIRECTION('',(0.707106781187044,0.,-0.707106781186051));
#867=DIRECTION('center_axis',(0.,-1.,0.));
#868=DIRECTION('ref_axis',(-1.,0.,1.22464679914735E-16));
#869=DIRECTION('center_axis',(0.,-1.,0.));
#870=DIRECTION('ref_axis',(-1.,0.,1.22464679914735E-16));
#871=DIRECTION('center_axis',(0.,1.,0.));
#872=DIRECTION('ref_axis',(-1.,0.,1.22464679914735E-16));
#873=DIRECTION('center_axis',(0.,-1.,0.));
#874=DIRECTION('ref_axis',(-1.,0.,1.22464679914735E-16));
#875=DIRECTION('',(0.,1.,0.));
#876=DIRECTION('center_axis',(0.,1.,0.));
#877=DIRECTION('ref_axis',(-1.,0.,1.22464679914735E-16));
#878=DIRECTION('center_axis',(0.,-1.,0.));
#879=DIRECTION('ref_axis',(-1.,0.,1.22464679914735E-16));
#880=DIRECTION('',(0.,1.,0.));
#881=DIRECTION('center_axis',(0.707106781186051,0.,0.707106781187044));
#882=DIRECTION('ref_axis',(0.707106781187044,0.,-0.707106781186051));
#883=DIRECTION('',(0.,1.,0.));
#884=DIRECTION('',(-0.707106781187044,0.,0.707106781186051));
#885=DIRECTION('',(0.,1.,0.));
#886=DIRECTION('center_axis',(0.,1.,0.));
#887=DIRECTION('ref_axis',(1.22464679914735E-16,0.,1.));
#888=DIRECTION('',(0.,1.,0.));
#889=DIRECTION('center_axis',(0.,1.,0.));
#890=DIRECTION('ref_axis',(1.22464679914735E-16,0.,1.));
#891=DIRECTION('center_axis',(-6.60839559826161E-14,0.,1.));
#892=DIRECTION('ref_axis',(1.,0.,6.60839559826161E-14));
#893=DIRECTION('',(0.,1.,0.));
#894=DIRECTION('',(-1.,0.,-6.60839559826161E-14));
#895=DIRECTION('center_axis',(0.,1.,0.));
#896=DIRECTION('ref_axis',(-1.,0.,1.22464679914735E-16));
#897=DIRECTION('',(0.,1.,0.));
#898=DIRECTION('center_axis',(0.,1.,0.));
#899=DIRECTION('ref_axis',(-1.,0.,1.22464679914735E-16));
#900=DIRECTION('center_axis',(-1.,0.,1.22464679914735E-16));
#901=DIRECTION('ref_axis',(1.22464679914735E-16,0.,1.));
#902=DIRECTION('',(0.,1.,0.));
#903=DIRECTION('',(1.22464679914735E-16,0.,1.));
#904=DIRECTION('center_axis',(0.,1.,0.));
#905=DIRECTION('ref_axis',(-1.22464679914735E-16,0.,-1.));
#906=DIRECTION('',(0.,1.,0.));
#907=DIRECTION('center_axis',(0.,1.,0.));
#908=DIRECTION('ref_axis',(-1.22464679914735E-16,0.,-1.));
#909=DIRECTION('center_axis',(-1.22464679914735E-16,0.,-1.));
#910=DIRECTION('ref_axis',(-1.,0.,1.22464679914735E-16));
#911=DIRECTION('',(0.,1.,0.));
#912=DIRECTION('',(-1.,0.,1.22464679914735E-16));
#913=DIRECTION('center_axis',(0.,1.,0.));
#914=DIRECTION('ref_axis',(1.,0.,-1.22464679914735E-16));
#915=DIRECTION('center_axis',(0.,1.,0.));
#916=DIRECTION('ref_axis',(1.,0.,-1.22464679914735E-16));
#917=DIRECTION('center_axis',(1.22464679914735E-16,0.,1.));
#918=DIRECTION('ref_axis',(1.,0.,-1.22464679914735E-16));
#919=DIRECTION('',(-1.,0.,1.22464679914735E-16));
#920=DIRECTION('center_axis',(0.707106781186548,0.,0.707106781186547));
#921=DIRECTION('ref_axis',(0.707106781186547,0.,-0.707106781186548));
#922=DIRECTION('',(0.,1.,0.));
#923=DIRECTION('',(-0.707106781186547,0.,0.707106781186548));
#924=DIRECTION('center_axis',(1.,0.,-1.22464679914735E-16));
#925=DIRECTION('ref_axis',(-1.22464679914735E-16,0.,-1.));
#926=DIRECTION('',(0.,1.,0.));
#927=DIRECTION('',(-1.22464679914735E-16,0.,-1.));
#928=DIRECTION('center_axis',(-6.14645911824061E-13,0.,-1.));
#929=DIRECTION('ref_axis',(-1.,0.,6.14645911824061E-13));
#930=DIRECTION('',(0.,1.,0.));
#931=DIRECTION('',(1.,0.,-6.14645911824061E-13));
#932=DIRECTION('center_axis',(0.,1.,0.));
#933=DIRECTION('ref_axis',(1.,0.,-1.22464679914735E-16));
#934=DIRECTION('',(0.,1.,0.));
#935=DIRECTION('center_axis',(0.,1.,0.));
#936=DIRECTION('ref_axis',(1.,0.,-1.22464679914735E-16));
#937=DIRECTION('center_axis',(1.,0.,-1.22464679914735E-16));
#938=DIRECTION('ref_axis',(-1.22464679914735E-16,0.,-1.));
#939=DIRECTION('',(0.,1.,0.));
#940=DIRECTION('',(-1.22464679914735E-16,0.,-1.));
#941=DIRECTION('center_axis',(0.,1.,0.));
#942=DIRECTION('ref_axis',(0.707106781186548,0.,0.707106781186547));
#943=DIRECTION('center_axis',(0.,1.,0.));
#944=DIRECTION('ref_axis',(0.707106781186548,0.,0.707106781186547));
#945=DIRECTION('center_axis',(0.,1.,0.));
#946=DIRECTION('ref_axis',(-1.,0.,1.22464679914735E-16));
#947=CARTESIAN_POINT('',(0.,0.,0.));
#948=CARTESIAN_POINT('Origin',(2.12540671707075,0.,3.15839418847247));
#949=CARTESIAN_POINT('',(2.12540671707075,0.,3.15839418847247));
#950=CARTESIAN_POINT('',(2.12540671707075,200.,3.15839418847247));
#951=CARTESIAN_POINT('',(2.12540671707075,0.,3.15839418847247));
#952=CARTESIAN_POINT('',(2.12540671707074,0.,-3.84160581152742));
#953=CARTESIAN_POINT('',(2.12540671707075,0.,3.15839418847247));
#954=CARTESIAN_POINT('',(2.12540671707074,200.,-3.84160581152742));
#955=CARTESIAN_POINT('',(2.12540671707074,0.,-3.84160581152742));
#956=CARTESIAN_POINT('',(2.12540671707075,200.,3.15839418847247));
#957=CARTESIAN_POINT('Origin',(0.625406717070689,0.,3.15839418847247));
#958=CARTESIAN_POINT('',(0.625406717070689,0.,4.65839418847253));
#959=CARTESIAN_POINT('',(0.625406717070689,200.,4.65839418847253));
#960=CARTESIAN_POINT('',(0.625406717070689,0.,4.65839418847253));
#961=CARTESIAN_POINT('Origin',(0.625406717070689,0.,3.15839418847247));
#962=CARTESIAN_POINT('Origin',(0.625406717070689,200.,3.15839418847247));
#963=CARTESIAN_POINT('Origin',(-3.66748650174344,0.,4.65839418847253));
#964=CARTESIAN_POINT('',(-3.66748650174344,0.,4.65839418847281));
#965=CARTESIAN_POINT('',(-3.66748650174344,200.,4.65839418847281));
#966=CARTESIAN_POINT('',(-3.66748650174344,0.,4.65839418847281));
#967=CARTESIAN_POINT('',(-3.66748650174344,0.,4.65839418847253));
#968=CARTESIAN_POINT('',(-3.66748650174344,200.,4.65839418847253));
#969=CARTESIAN_POINT('Origin',(-3.66748650174344,0.,4.1583941884727));
#970=CARTESIAN_POINT('',(-4.02103989233666,0.,4.51194757906592));
#971=CARTESIAN_POINT('',(-4.02103989233666,200.,4.51194757906592));
#972=CARTESIAN_POINT('',(-4.02103989233666,0.,4.51194757906592));
#973=CARTESIAN_POINT('Origin',(-3.66748650174344,0.,4.1583941884727));
#974=CARTESIAN_POINT('Origin',(-3.66748650174344,200.,4.1583941884727));
#975=CARTESIAN_POINT('Origin',(-4.62814667352348,0.,3.90484079787967));
#976=CARTESIAN_POINT('',(-4.62814667352348,0.,3.90484079787967));
#977=CARTESIAN_POINT('',(-4.62814667352347,200.,3.90484079787967));
#978=CARTESIAN_POINT('',(-4.62814667352348,0.,3.90484079787967));
#979=CARTESIAN_POINT('',(-4.62814667352348,0.,3.90484079787967));
#980=CARTESIAN_POINT('',(-4.62814667352348,200.,3.90484079787967));
#981=CARTESIAN_POINT('Origin',(-4.27459328293026,0.,3.55128740728645));
#982=CARTESIAN_POINT('',(-4.77459328293037,0.,3.55128740728645));
#983=CARTESIAN_POINT('',(-4.77459328293037,200.,3.55128740728645));
#984=CARTESIAN_POINT('',(-4.77459328293037,0.,3.55128740728645));
#985=CARTESIAN_POINT('Origin',(-4.27459328293026,0.,3.55128740728645));
#986=CARTESIAN_POINT('Origin',(-4.27459328293026,200.,3.55128740728645));
#987=CARTESIAN_POINT('Origin',(-4.77459328293037,0.,3.35839418847144));
#988=CARTESIAN_POINT('',(-4.77459328293037,0.,3.35839418847144));
#989=CARTESIAN_POINT('',(-4.77459328293037,200.,3.35839418847144));
#990=CARTESIAN_POINT('',(-4.77459328293037,0.,3.35839418847144));
#991=CARTESIAN_POINT('',(-4.77459328293037,0.,3.55128740728645));
#992=CARTESIAN_POINT('',(-4.77459328293037,200.,3.55128740728645));
#993=CARTESIAN_POINT('Origin',(-4.27459328293026,0.,3.35839418847144));
#994=CARTESIAN_POINT('',(-4.27459328292997,0.,2.85839418847132));
#995=CARTESIAN_POINT('',(-4.27459328292997,200.,2.85839418847132));
#996=CARTESIAN_POINT('',(-4.27459328292997,0.,2.85839418847132));
#997=CARTESIAN_POINT('Origin',(-4.27459328293026,0.,3.35839418847144));
#998=CARTESIAN_POINT('Origin',(-4.27459328293026,200.,3.35839418847144));
#999=CARTESIAN_POINT('Origin',(-2.42459328292938,0.,2.85839418847274));
#1000=CARTESIAN_POINT('',(-2.42459328292938,0.,2.85839418847274));
#1001=CARTESIAN_POINT('',(-2.42459328292938,200.,2.85839418847274));
#1002=CARTESIAN_POINT('',(-2.42459328292938,0.,2.85839418847274));
#1003=CARTESIAN_POINT('',(-2.42459328292938,0.,2.85839418847274));
#1004=CARTESIAN_POINT('',(-2.42459328292938,200.,2.85839418847274));
#1005=CARTESIAN_POINT('Origin',(-2.42459328292938,0.,1.05839418847268));
#1006=CARTESIAN_POINT('',(-2.42459328292938,0.,1.05839418847268));
#1007=CARTESIAN_POINT('',(-2.42459328292938,200.,1.05839418847268));
#1008=CARTESIAN_POINT('',(-2.42459328292938,0.,1.05839418847268));
#1009=CARTESIAN_POINT('',(-2.42459328292938,0.,2.85839418847274));
#1010=CARTESIAN_POINT('',(-2.42459328292938,200.,2.85839418847274));
#1011=CARTESIAN_POINT('Origin',(-6.7745932829294,0.,-1.74160581152733));
#1012=CARTESIAN_POINT('',(-6.92459328292927,0.,-1.74160581152733));
#1013=CARTESIAN_POINT('',(-6.92459328292927,200.,-1.74160581152733));
#1014=CARTESIAN_POINT('',(-6.92459328292927,0.,-1.74160581152733));
#1015=CARTESIAN_POINT('',(-6.62459328292954,0.,-1.74160581152733));
#1016=CARTESIAN_POINT('Origin',(-6.7745932829294,0.,-1.74160581152733));
#1017=CARTESIAN_POINT('',(-6.62459328292954,200.,-1.74160581152733));
#1018=CARTESIAN_POINT('',(-6.62459328292954,0.,-1.74160581152733));
#1019=CARTESIAN_POINT('Origin',(-6.7745932829294,200.,-1.74160581152733));
#1020=CARTESIAN_POINT('Origin',(-5.22459328292939,0.,-1.74160581152733));
#1021=CARTESIAN_POINT('',(-5.22459328292939,0.,-1.74160581152733));
#1022=CARTESIAN_POINT('',(-5.22459328292939,200.,-1.74160581152733));
#1023=CARTESIAN_POINT('',(-5.22459328292939,0.,-1.74160581152733));
#1024=CARTESIAN_POINT('',(-5.22459328292939,0.,-1.74160581152733));
#1025=CARTESIAN_POINT('',(-5.22459328292939,200.,-1.74160581152733));
#1026=CARTESIAN_POINT('Origin',(-8.82459328292924,0.,-1.74160581152733));
#1027=CARTESIAN_POINT('',(-8.82459328292953,0.,-1.74160581152733));
#1028=CARTESIAN_POINT('',(-8.82459328292953,200.,-1.74160581152733));
#1029=CARTESIAN_POINT('',(-8.82459328292953,0.,-1.74160581152733));
#1030=CARTESIAN_POINT('',(-6.92459328292927,0.,-1.74160581152733));
#1031=CARTESIAN_POINT('',(-6.92459328292927,200.,-1.74160581152733));
#1032=CARTESIAN_POINT('Origin',(-8.97459328292939,0.,-1.74160581152733));
#1033=CARTESIAN_POINT('',(-9.12459328292926,0.,-1.74160581152733));
#1034=CARTESIAN_POINT('',(-9.12459328292926,200.,-1.74160581152733));
#1035=CARTESIAN_POINT('',(-9.12459328292926,0.,-1.74160581152733));
#1036=CARTESIAN_POINT('Origin',(-8.97459328292939,0.,-1.74160581152733));
#1037=CARTESIAN_POINT('Origin',(-8.97459328292939,200.,-1.74160581152733));
#1038=CARTESIAN_POINT('Origin',(-10.5245932829294,0.,-1.74160581152733));
#1039=CARTESIAN_POINT('',(-10.5245932829294,0.,-1.74160581152733));
#1040=CARTESIAN_POINT('',(-10.5245932829294,200.,-1.74160581152733));
#1041=CARTESIAN_POINT('',(-10.5245932829294,0.,-1.74160581152733));
#1042=CARTESIAN_POINT('',(-9.12459328292926,0.,-1.74160581152733));
#1043=CARTESIAN_POINT('',(-9.12459328292926,200.,-1.74160581152733));
#1044=CARTESIAN_POINT('Origin',(-7.87459328292926,200.,-0.341605811527471));
#1045=CARTESIAN_POINT('',(-11.1210398923362,200.,3.90484079787967));
#1046=CARTESIAN_POINT('',(-10.9745932829293,200.,3.55128740728645));
#1047=CARTESIAN_POINT('Origin',(-11.4745932829294,200.,3.55128740728645));
#1048=CARTESIAN_POINT('',(-10.9745932829293,200.,3.35839418847144));
#1049=CARTESIAN_POINT('',(-10.9745932829296,200.,3.55128740728645));
#1050=CARTESIAN_POINT('',(-11.4745932829302,200.,2.85839418847132));
#1051=CARTESIAN_POINT('Origin',(-11.4745932829294,200.,3.35839418847144));
#1052=CARTESIAN_POINT('',(-13.3245932829294,200.,2.85839418847275));
#1053=CARTESIAN_POINT('',(-13.3245932829294,200.,2.85839418847275));
#1054=CARTESIAN_POINT('',(-13.3245932829294,200.,1.05839418847268));
#1055=CARTESIAN_POINT('',(-13.3245932829294,200.,2.85839418847275));
#1056=CARTESIAN_POINT('',(-10.5245932829294,200.,-1.74160581152733));
#1057=CARTESIAN_POINT('',(-5.22459328292939,200.,-1.74160581152733));
#1058=CARTESIAN_POINT('',(0.625406717070687,200.,-5.34160581152747));
#1059=CARTESIAN_POINT('Origin',(0.625406717070688,200.,-3.84160581152742));
#1060=CARTESIAN_POINT('',(-16.3745932829292,200.,-5.34160581152747));
#1061=CARTESIAN_POINT('',(0.625406717070688,200.,-5.34160581152747));
#1062=CARTESIAN_POINT('',(-17.8745932829293,200.,-3.84160581152741));
#1063=CARTESIAN_POINT('Origin',(-16.3745932829292,200.,-3.84160581152741));
#1064=CARTESIAN_POINT('',(-17.8745932829293,200.,3.15839418847247));
#1065=CARTESIAN_POINT('',(-17.8745932829293,200.,-3.84160581152741));
#1066=CARTESIAN_POINT('',(-16.3745932829292,200.,4.65839418847253));
#1067=CARTESIAN_POINT('Origin',(-16.3745932829292,200.,3.15839418847247));
#1068=CARTESIAN_POINT('',(-12.0817000641165,200.,4.65839418847281));
#1069=CARTESIAN_POINT('',(-12.0817000641165,200.,4.65839418847281));
#1070=CARTESIAN_POINT('',(-11.7281466735233,200.,4.51194757906592));
#1071=CARTESIAN_POINT('Origin',(-12.0817000641165,200.,4.1583941884727));
#1072=CARTESIAN_POINT('',(-11.1210398923362,200.,3.90484079787967));
#1073=CARTESIAN_POINT('',(-12.8245932829293,200.,-2.34160581152736));
#1074=CARTESIAN_POINT('Origin',(-14.8745932829294,200.,-2.34160581152736));
#1075=CARTESIAN_POINT('',(1.1754067170699,200.,-2.34160581152736));
#1076=CARTESIAN_POINT('Origin',(-0.874593282930221,200.,-2.34160581152736));
#1077=CARTESIAN_POINT('Origin',(-0.874593282930221,0.,-2.34160581152736));
#1078=CARTESIAN_POINT('',(1.1754067170699,0.,-2.34160581152736));
#1079=CARTESIAN_POINT('Origin',(-0.874593282930221,0.,-2.34160581152736));
#1080=CARTESIAN_POINT('',(1.17540671706991,0.,-2.34160581152736));
#1081=CARTESIAN_POINT('Origin',(-14.8745932829294,0.,-2.34160581152736));
#1082=CARTESIAN_POINT('',(-12.8245932829293,0.,-2.34160581152736));
#1083=CARTESIAN_POINT('Origin',(-14.8745932829294,0.,-2.34160581152736));
#1084=CARTESIAN_POINT('',(-12.8245932829293,0.,-2.34160581152736));
#1085=CARTESIAN_POINT('Origin',(-11.7281466735233,0.,4.51194757906592));
#1086=CARTESIAN_POINT('',(-11.7281466735233,0.,4.51194757906592));
#1087=CARTESIAN_POINT('',(-11.7281466735233,0.,4.51194757906592));
#1088=CARTESIAN_POINT('',(-11.1210398923362,0.,3.90484079787967));
#1089=CARTESIAN_POINT('',(-11.1210398923362,0.,3.90484079787967));
#1090=CARTESIAN_POINT('',(-11.1210398923362,0.,3.90484079787967));
#1091=CARTESIAN_POINT('Origin',(-12.0817000641165,0.,4.1583941884727));
#1092=CARTESIAN_POINT('',(-12.0817000641165,0.,4.65839418847281));
#1093=CARTESIAN_POINT('',(-12.0817000641165,0.,4.65839418847281));
#1094=CARTESIAN_POINT('Origin',(-12.0817000641165,0.,4.1583941884727));
#1095=CARTESIAN_POINT('Origin',(-16.3745932829292,0.,4.65839418847253));
#1096=CARTESIAN_POINT('',(-16.3745932829292,0.,4.65839418847253));
#1097=CARTESIAN_POINT('',(-16.3745932829292,0.,4.65839418847253));
#1098=CARTESIAN_POINT('',(-12.0817000641165,0.,4.65839418847281));
#1099=CARTESIAN_POINT('Origin',(-16.3745932829292,0.,3.15839418847247));
#1100=CARTESIAN_POINT('',(-17.8745932829293,0.,3.15839418847247));
#1101=CARTESIAN_POINT('',(-17.8745932829293,0.,3.15839418847247));
#1102=CARTESIAN_POINT('Origin',(-16.3745932829292,0.,3.15839418847247));
#1103=CARTESIAN_POINT('Origin',(-17.8745932829293,0.,-3.84160581152741));
#1104=CARTESIAN_POINT('',(-17.8745932829293,0.,-3.84160581152741));
#1105=CARTESIAN_POINT('',(-17.8745932829293,0.,-3.84160581152741));
#1106=CARTESIAN_POINT('',(-17.8745932829293,0.,-3.84160581152741));
#1107=CARTESIAN_POINT('Origin',(-16.3745932829292,0.,-3.84160581152741));
#1108=CARTESIAN_POINT('',(-16.3745932829292,0.,-5.34160581152747));
#1109=CARTESIAN_POINT('',(-16.3745932829292,0.,-5.34160581152747));
#1110=CARTESIAN_POINT('Origin',(-16.3745932829292,0.,-3.84160581152741));
#1111=CARTESIAN_POINT('Origin',(0.625406717070688,0.,-5.34160581152747));
#1112=CARTESIAN_POINT('',(0.625406717070688,0.,-5.34160581152747));
#1113=CARTESIAN_POINT('',(0.625406717070688,0.,-5.34160581152747));
#1114=CARTESIAN_POINT('',(0.625406717070688,0.,-5.34160581152747));
#1115=CARTESIAN_POINT('Origin',(0.625406717070688,0.,-3.84160581152742));
#1116=CARTESIAN_POINT('Origin',(0.625406717070688,0.,-3.84160581152742));
#1117=CARTESIAN_POINT('Origin',(-6.62459328292954,0.,-1.74160581152733));
#1118=CARTESIAN_POINT('',(-5.22459328292939,0.,-1.74160581152733));
#1119=CARTESIAN_POINT('Origin',(-13.3245932829294,0.,1.05839418847268));
#1120=CARTESIAN_POINT('',(-13.3245932829294,0.,1.05839418847268));
#1121=CARTESIAN_POINT('',(-13.3245932829294,0.,1.05839418847268));
#1122=CARTESIAN_POINT('',(-10.5245932829294,0.,-1.74160581152733));
#1123=CARTESIAN_POINT('Origin',(-13.3245932829294,0.,2.85839418847275));
#1124=CARTESIAN_POINT('',(-13.3245932829294,0.,2.85839418847275));
#1125=CARTESIAN_POINT('',(-13.3245932829294,0.,2.85839418847275));
#1126=CARTESIAN_POINT('',(-13.3245932829294,0.,2.85839418847275));
#1127=CARTESIAN_POINT('Origin',(-11.4745932829302,0.,2.85839418847161));
#1128=CARTESIAN_POINT('',(-11.4745932829302,0.,2.85839418847132));
#1129=CARTESIAN_POINT('',(-11.4745932829302,0.,2.85839418847132));
#1130=CARTESIAN_POINT('',(-13.3245932829294,0.,2.85839418847275));
#1131=CARTESIAN_POINT('Origin',(-11.4745932829294,0.,3.35839418847144));
#1132=CARTESIAN_POINT('',(-10.9745932829293,0.,3.35839418847144));
#1133=CARTESIAN_POINT('',(-10.9745932829293,0.,3.35839418847144));
#1134=CARTESIAN_POINT('Origin',(-11.4745932829294,0.,3.35839418847144));
#1135=CARTESIAN_POINT('Origin',(-10.9745932829296,0.,3.55128740728645));
#1136=CARTESIAN_POINT('',(-10.9745932829293,0.,3.55128740728645));
#1137=CARTESIAN_POINT('',(-10.9745932829293,0.,3.55128740728645));
#1138=CARTESIAN_POINT('',(-10.9745932829296,0.,3.55128740728645));
#1139=CARTESIAN_POINT('Origin',(-11.4745932829294,0.,3.55128740728645));
#1140=CARTESIAN_POINT('Origin',(-11.4745932829294,0.,3.55128740728645));
#1141=CARTESIAN_POINT('Origin',(-7.87459328292926,0.,-0.341605811527471));
#1142=UNCERTAINTY_MEASURE_WITH_UNIT(LENGTH_MEASURE(0.01),#1146,
'DISTANCE_ACCURACY_VALUE',
'Maximum model space distance between geometric entities at asserted c
onnectivities');
#1143=UNCERTAINTY_MEASURE_WITH_UNIT(LENGTH_MEASURE(0.01),#1146,
'DISTANCE_ACCURACY_VALUE',
'Maximum model space distance between geometric entities at asserted c
onnectivities');
#1144=(
GEOMETRIC_REPRESENTATION_CONTEXT(3)
GLOBAL_UNCERTAINTY_ASSIGNED_CONTEXT((#1142))
GLOBAL_UNIT_ASSIGNED_CONTEXT((#1146,#1148,#1149))
REPRESENTATION_CONTEXT('','3D')
);
#1145=(
GEOMETRIC_REPRESENTATION_CONTEXT(3)
GLOBAL_UNCERTAINTY_ASSIGNED_CONTEXT((#1143))
GLOBAL_UNIT_ASSIGNED_CONTEXT((#1146,#1148,#1149))
REPRESENTATION_CONTEXT('','3D')
);
#1146=(
LENGTH_UNIT()
NAMED_UNIT(*)
SI_UNIT(.MILLI.,.METRE.)
);
#1147=(
LENGTH_UNIT()
NAMED_UNIT(*)
SI_UNIT($,.METRE.)
);
#1148=(
NAMED_UNIT(*)
PLANE_ANGLE_UNIT()
SI_UNIT($,.RADIAN.)
);
#1149=(
NAMED_UNIT(*)
SI_UNIT($,.STERADIAN.)
SOLID_ANGLE_UNIT()
);
#1150=SHAPE_DEFINITION_REPRESENTATION(#1151,#1152);
#1151=PRODUCT_DEFINITION_SHAPE('',$,#1154);
#1152=SHAPE_REPRESENTATION('',(#690),#1144);
#1153=PRODUCT_DEFINITION_CONTEXT('part definition',#1158,'design');
#1154=PRODUCT_DEFINITION('1020\X2\94DD578B6750\X0\200mm',
'1020\X2\94DD578B6750\X0\200mm v2',#1155,#1153);
#1155=PRODUCT_DEFINITION_FORMATION('',$,#1160);
#1156=PRODUCT_RELATED_PRODUCT_CATEGORY('1020\X2\94DD578B6750\X0\200mm 
v2','1020\X2\94DD578B6750\X0\200mm v2',(#1160));
#1157=APPLICATION_PROTOCOL_DEFINITION('international standard',
'automotive_design',2009,#1158);
#1158=APPLICATION_CONTEXT(
'Core Data for Automotive Mechanical Design Process');
#1159=PRODUCT_CONTEXT('part definition',#1158,'mechanical');
#1160=PRODUCT('1020\X2\94DD578B6750\X0\200mm','1020\X2\94DD578B6750\X0\2
00mm v2',$,(#1159));
#1161=PRESENTATION_STYLE_ASSIGNMENT((#1164));
#1162=PRESENTATION_STYLE_ASSIGNMENT((#1165));
#1163=PRESENTATION_STYLE_ASSIGNMENT((#1166));
#1164=SURFACE_STYLE_USAGE(.BOTH.,#1167);
#1165=SURFACE_STYLE_USAGE(.BOTH.,#1168);
#1166=SURFACE_STYLE_USAGE(.BOTH.,#1169);
#1167=SURFACE_SIDE_STYLE('',(#1170));
#1168=SURFACE_SIDE_STYLE('',(#1171));
#1169=SURFACE_SIDE_STYLE('',(#1172));
#1170=SURFACE_STYLE_FILL_AREA(#1173);
#1171=SURFACE_STYLE_FILL_AREA(#1174);
#1172=SURFACE_STYLE_FILL_AREA(#1175);
#1173=FILL_AREA_STYLE('Acero - Satinado',(#1176));
#1174=FILL_AREA_STYLE('Opaque(59,59,59)',(#1177));
#1175=FILL_AREA_STYLE('Opaque(245,245,246)',(#1178));
#1176=FILL_AREA_STYLE_COLOUR('Acero - Satinado',#1179);
#1177=FILL_AREA_STYLE_COLOUR('Opaque(59,59,59)',#1180);
#1178=FILL_AREA_STYLE_COLOUR('Opaque(245,245,246)',#1181);
#1179=COLOUR_RGB('Acero - Satinado',0.627450980392157,0.627450980392157,
0.627450980392157);
#1180=COLOUR_RGB('Opaque(59,59,59)',0.231372549019608,0.231372549019608,
0.231372549019608);
#1181=COLOUR_RGB('Opaque(245,245,246)',0.96078431372549,0.96078431372549,
0.964705882352941);
ENDSEC;
END-ISO-10303-21;
