ISO-10303-21;
HEADER;
/* Generated by software containing ST-Developer
 * from STEP Tools, Inc. (www.steptools.com) 
 */

FILE_DESCRIPTION(
/* description */ (''),
/* implementation_level */ '2;1');

FILE_NAME(
/* name */ 'BEARING-51105 v2.step',
/* time_stamp */ '2026-06-02T01:26:17-06:00',
/* author */ (''),
/* organization */ (''),
/* preprocessor_version */ 'ST-DEVELOPER v20.1',
/* originating_system */ 'Autodesk Translation Framework v14.24.0.0',
/* authorisation */ '');

FILE_SCHEMA (('AUTOMOTIVE_DESIGN { 1 0 10303 214 3 1 1 }'));
ENDSEC;

DATA;
#10=MECHANICAL_DESIGN_GEOMETRIC_PRESENTATION_REPRESENTATION('',(#29,#30,
#31,#32,#33,#34,#35,#36,#37,#38,#39,#40,#41,#42,#43,#44,#45,#46,#47,#48),
#1068);
#11=SHAPE_REPRESENTATION_RELATIONSHIP('SRR','None',#1075,#12);
#12=ADVANCED_BREP_SHAPE_REPRESENTATION('',(#49,#50,#51,#52,#53,#54,#55,
#56,#57,#58,#59,#60,#61,#62,#63,#64,#65,#66,#67,#68),#1067);
#13=SPHERICAL_SURFACE('',#664,2.78);
#14=SPHERICAL_SURFACE('',#666,2.78);
#15=SPHERICAL_SURFACE('',#668,2.78);
#16=SPHERICAL_SURFACE('',#670,2.78);
#17=SPHERICAL_SURFACE('',#672,2.78);
#18=SPHERICAL_SURFACE('',#674,2.78);
#19=SPHERICAL_SURFACE('',#676,2.78);
#20=SPHERICAL_SURFACE('',#678,2.78);
#21=SPHERICAL_SURFACE('',#680,2.78);
#22=SPHERICAL_SURFACE('',#682,2.78);
#23=SPHERICAL_SURFACE('',#684,2.78);
#24=SPHERICAL_SURFACE('',#686,2.78);
#25=SPHERICAL_SURFACE('',#688,2.78);
#26=SPHERICAL_SURFACE('',#690,2.78);
#27=SPHERICAL_SURFACE('',#692,2.78);
#28=SPHERICAL_SURFACE('',#694,2.78);
#29=STYLED_ITEM('',(#1085),#49);
#30=STYLED_ITEM('',(#1085),#50);
#31=STYLED_ITEM('',(#1085),#51);
#32=STYLED_ITEM('',(#1085),#52);
#33=STYLED_ITEM('',(#1085),#53);
#34=STYLED_ITEM('',(#1085),#54);
#35=STYLED_ITEM('',(#1085),#55);
#36=STYLED_ITEM('',(#1085),#56);
#37=STYLED_ITEM('',(#1085),#57);
#38=STYLED_ITEM('',(#1085),#58);
#39=STYLED_ITEM('',(#1085),#59);
#40=STYLED_ITEM('',(#1085),#60);
#41=STYLED_ITEM('',(#1085),#61);
#42=STYLED_ITEM('',(#1085),#62);
#43=STYLED_ITEM('',(#1085),#63);
#44=STYLED_ITEM('',(#1085),#64);
#45=STYLED_ITEM('',(#1085),#65);
#46=STYLED_ITEM('',(#1085),#66);
#47=STYLED_ITEM('',(#1085),#67);
#48=STYLED_ITEM('',(#1085),#68);
#49=MANIFOLD_SOLID_BREP('Cuerpo1',#569);
#50=MANIFOLD_SOLID_BREP('Cuerpo2',#570);
#51=MANIFOLD_SOLID_BREP('Cuerpo3',#571);
#52=MANIFOLD_SOLID_BREP('Cuerpo4',#572);
#53=MANIFOLD_SOLID_BREP('Cuerpo5',#573);
#54=MANIFOLD_SOLID_BREP('Cuerpo6',#574);
#55=MANIFOLD_SOLID_BREP('Cuerpo7',#575);
#56=MANIFOLD_SOLID_BREP('Cuerpo8',#576);
#57=MANIFOLD_SOLID_BREP('Cuerpo9',#577);
#58=MANIFOLD_SOLID_BREP('Cuerpo10',#578);
#59=MANIFOLD_SOLID_BREP('Cuerpo11',#579);
#60=MANIFOLD_SOLID_BREP('Cuerpo12',#580);
#61=MANIFOLD_SOLID_BREP('Cuerpo13',#581);
#62=MANIFOLD_SOLID_BREP('Cuerpo14',#582);
#63=MANIFOLD_SOLID_BREP('Cuerpo15',#583);
#64=MANIFOLD_SOLID_BREP('Cuerpo16',#584);
#65=MANIFOLD_SOLID_BREP('Cuerpo17',#585);
#66=MANIFOLD_SOLID_BREP('Cuerpo18',#586);
#67=MANIFOLD_SOLID_BREP('Cuerpo19',#587);
#68=MANIFOLD_SOLID_BREP('Cuerpo20',#588);
#69=TOROIDAL_SURFACE('',#621,16.8226952192394,2.78);
#70=TOROIDAL_SURFACE('',#642,16.8226952192394,2.78);
#71=TOROIDAL_SURFACE('',#644,16.8226952192394,2.78);
#72=TOROIDAL_SURFACE('',#650,16.8226952192394,3.02928698698539);
#73=TOROIDAL_SURFACE('',#654,16.8226952192394,2.78);
#74=TOROIDAL_SURFACE('',#660,16.8226952192394,3.02928698698539);
#75=FACE_BOUND('',#146,.T.);
#76=FACE_BOUND('',#149,.T.);
#77=FACE_BOUND('',#154,.T.);
#78=FACE_BOUND('',#159,.T.);
#79=FACE_BOUND('',#162,.T.);
#80=FACE_BOUND('',#166,.T.);
#81=FACE_BOUND('',#171,.T.);
#82=FACE_BOUND('',#174,.T.);
#83=FACE_BOUND('',#177,.T.);
#84=FACE_BOUND('',#180,.T.);
#85=PLANE('',#607);
#86=PLANE('',#611);
#87=PLANE('',#619);
#88=PLANE('',#628);
#89=PLANE('',#632);
#90=PLANE('',#639);
#91=PLANE('',#648);
#92=PLANE('',#653);
#93=PLANE('',#658);
#94=PLANE('',#663);
#95=CYLINDRICAL_SURFACE('',#605,12.5);
#96=CYLINDRICAL_SURFACE('',#615,21.);
#97=CYLINDRICAL_SURFACE('',#626,12.5);
#98=CYLINDRICAL_SURFACE('',#637,21.);
#99=FACE_OUTER_BOUND('',#143,.T.);
#100=FACE_OUTER_BOUND('',#144,.T.);
#101=FACE_OUTER_BOUND('',#145,.T.);
#102=FACE_OUTER_BOUND('',#147,.T.);
#103=FACE_OUTER_BOUND('',#148,.T.);
#104=FACE_OUTER_BOUND('',#150,.T.);
#105=FACE_OUTER_BOUND('',#151,.T.);
#106=FACE_OUTER_BOUND('',#152,.T.);
#107=FACE_OUTER_BOUND('',#153,.T.);
#108=FACE_OUTER_BOUND('',#155,.T.);
#109=FACE_OUTER_BOUND('',#156,.T.);
#110=FACE_OUTER_BOUND('',#157,.T.);
#111=FACE_OUTER_BOUND('',#158,.T.);
#112=FACE_OUTER_BOUND('',#160,.T.);
#113=FACE_OUTER_BOUND('',#161,.T.);
#114=FACE_OUTER_BOUND('',#163,.T.);
#115=FACE_OUTER_BOUND('',#164,.T.);
#116=FACE_OUTER_BOUND('',#165,.T.);
#117=FACE_OUTER_BOUND('',#167,.T.);
#118=FACE_OUTER_BOUND('',#168,.T.);
#119=FACE_OUTER_BOUND('',#169,.T.);
#120=FACE_OUTER_BOUND('',#170,.T.);
#121=FACE_OUTER_BOUND('',#172,.T.);
#122=FACE_OUTER_BOUND('',#173,.T.);
#123=FACE_OUTER_BOUND('',#175,.T.);
#124=FACE_OUTER_BOUND('',#176,.T.);
#125=FACE_OUTER_BOUND('',#178,.T.);
#126=FACE_OUTER_BOUND('',#179,.T.);
#127=FACE_OUTER_BOUND('',#181,.T.);
#128=FACE_OUTER_BOUND('',#182,.T.);
#129=FACE_OUTER_BOUND('',#183,.T.);
#130=FACE_OUTER_BOUND('',#184,.T.);
#131=FACE_OUTER_BOUND('',#185,.T.);
#132=FACE_OUTER_BOUND('',#186,.T.);
#133=FACE_OUTER_BOUND('',#187,.T.);
#134=FACE_OUTER_BOUND('',#188,.T.);
#135=FACE_OUTER_BOUND('',#189,.T.);
#136=FACE_OUTER_BOUND('',#190,.T.);
#137=FACE_OUTER_BOUND('',#191,.T.);
#138=FACE_OUTER_BOUND('',#192,.T.);
#139=FACE_OUTER_BOUND('',#193,.T.);
#140=FACE_OUTER_BOUND('',#194,.T.);
#141=FACE_OUTER_BOUND('',#195,.T.);
#142=FACE_OUTER_BOUND('',#196,.T.);
#143=EDGE_LOOP('',(#393,#394,#395,#396));
#144=EDGE_LOOP('',(#397,#398,#399,#400));
#145=EDGE_LOOP('',(#401));
#146=EDGE_LOOP('',(#402));
#147=EDGE_LOOP('',(#403,#404,#405,#406));
#148=EDGE_LOOP('',(#407));
#149=EDGE_LOOP('',(#408));
#150=EDGE_LOOP('',(#409,#410,#411,#412));
#151=EDGE_LOOP('',(#413,#414,#415,#416));
#152=EDGE_LOOP('',(#417,#418,#419,#420));
#153=EDGE_LOOP('',(#421));
#154=EDGE_LOOP('',(#422));
#155=EDGE_LOOP('',(#423,#424,#425,#426));
#156=EDGE_LOOP('',(#427,#428,#429,#430));
#157=EDGE_LOOP('',(#431,#432,#433,#434));
#158=EDGE_LOOP('',(#435));
#159=EDGE_LOOP('',(#436));
#160=EDGE_LOOP('',(#437,#438,#439,#440));
#161=EDGE_LOOP('',(#441));
#162=EDGE_LOOP('',(#442));
#163=EDGE_LOOP('',(#443,#444,#445,#446));
#164=EDGE_LOOP('',(#447,#448,#449,#450));
#165=EDGE_LOOP('',(#451));
#166=EDGE_LOOP('',(#452));
#167=EDGE_LOOP('',(#453,#454,#455,#456));
#168=EDGE_LOOP('',(#457,#458,#459,#460));
#169=EDGE_LOOP('',(#461,#462,#463,#464));
#170=EDGE_LOOP('',(#465));
#171=EDGE_LOOP('',(#466));
#172=EDGE_LOOP('',(#467,#468,#469,#470));
#173=EDGE_LOOP('',(#471));
#174=EDGE_LOOP('',(#472));
#175=EDGE_LOOP('',(#473,#474,#475,#476));
#176=EDGE_LOOP('',(#477));
#177=EDGE_LOOP('',(#478));
#178=EDGE_LOOP('',(#479,#480,#481,#482));
#179=EDGE_LOOP('',(#483));
#180=EDGE_LOOP('',(#484));
#181=EDGE_LOOP('',(#485,#486));
#182=EDGE_LOOP('',(#487,#488));
#183=EDGE_LOOP('',(#489,#490));
#184=EDGE_LOOP('',(#491,#492));
#185=EDGE_LOOP('',(#493,#494));
#186=EDGE_LOOP('',(#495,#496));
#187=EDGE_LOOP('',(#497,#498));
#188=EDGE_LOOP('',(#499,#500));
#189=EDGE_LOOP('',(#501,#502));
#190=EDGE_LOOP('',(#503,#504));
#191=EDGE_LOOP('',(#505,#506));
#192=EDGE_LOOP('',(#507,#508));
#193=EDGE_LOOP('',(#509,#510));
#194=EDGE_LOOP('',(#511,#512));
#195=EDGE_LOOP('',(#513,#514));
#196=EDGE_LOOP('',(#515,#516));
#197=LINE('',#903,#209);
#198=LINE('',#907,#210);
#199=LINE('',#914,#211);
#200=LINE('',#922,#212);
#201=LINE('',#926,#213);
#202=LINE('',#929,#214);
#203=LINE('',#940,#215);
#204=LINE('',#944,#216);
#205=LINE('',#951,#217);
#206=LINE('',#960,#218);
#207=LINE('',#965,#219);
#208=LINE('',#970,#220);
#209=VECTOR('',#702,12.65);
#210=VECTOR('',#707,12.5);
#211=VECTOR('',#716,12.65);
#212=VECTOR('',#727,20.85);
#213=VECTOR('',#732,21.);
#214=VECTOR('',#735,20.85);
#215=VECTOR('',#750,12.65);
#216=VECTOR('',#755,12.5);
#217=VECTOR('',#764,12.65);
#218=VECTOR('',#775,20.85);
#219=VECTOR('',#782,21.);
#220=VECTOR('',#789,20.85);
#221=CIRCLE('',#603,12.5);
#222=CIRCLE('',#604,12.8);
#223=CIRCLE('',#606,12.5);
#224=CIRCLE('',#608,20.7);
#225=CIRCLE('',#610,12.8);
#226=CIRCLE('',#612,15.1627254500946);
#227=CIRCLE('',#614,21.);
#228=CIRCLE('',#616,21.);
#229=CIRCLE('',#618,20.7);
#230=CIRCLE('',#620,18.4826649883842);
#231=CIRCLE('',#622,2.78);
#232=CIRCLE('',#624,12.5);
#233=CIRCLE('',#625,12.8);
#234=CIRCLE('',#627,12.5);
#235=CIRCLE('',#629,15.1627254500946);
#236=CIRCLE('',#631,12.8);
#237=CIRCLE('',#633,20.7);
#238=CIRCLE('',#635,21.);
#239=CIRCLE('',#636,20.7);
#240=CIRCLE('',#638,21.);
#241=CIRCLE('',#640,18.4826649883842);
#242=CIRCLE('',#643,2.78);
#243=CIRCLE('',#645,19.3303635697418);
#244=CIRCLE('',#646,2.78);
#245=CIRCLE('',#647,19.3303633736479);
#246=CIRCLE('',#649,19.6041660901331);
#247=CIRCLE('',#651,19.6041659133424);
#248=CIRCLE('',#652,3.02928698698539);
#249=CIRCLE('',#655,14.3150270648309);
#250=CIRCLE('',#656,2.78);
#251=CIRCLE('',#657,14.315026868737);
#252=CIRCLE('',#659,14.0412245251364);
#253=CIRCLE('',#661,14.0412243483457);
#254=CIRCLE('',#662,3.02928698698539);
#255=CIRCLE('',#665,2.78);
#256=CIRCLE('',#667,2.78);
#257=CIRCLE('',#669,2.78);
#258=CIRCLE('',#671,2.78);
#259=CIRCLE('',#673,2.78);
#260=CIRCLE('',#675,2.78);
#261=CIRCLE('',#677,2.78);
#262=CIRCLE('',#679,2.78);
#263=CIRCLE('',#681,2.78);
#264=CIRCLE('',#683,2.78);
#265=CIRCLE('',#685,2.78);
#266=CIRCLE('',#687,2.78);
#267=CIRCLE('',#689,2.78);
#268=CIRCLE('',#691,2.78);
#269=CIRCLE('',#693,2.78);
#270=CIRCLE('',#695,2.78);
#271=VERTEX_POINT('',#900);
#272=VERTEX_POINT('',#902);
#273=VERTEX_POINT('',#906);
#274=VERTEX_POINT('',#910);
#275=VERTEX_POINT('',#913);
#276=VERTEX_POINT('',#917);
#277=VERTEX_POINT('',#920);
#278=VERTEX_POINT('',#924);
#279=VERTEX_POINT('',#928);
#280=VERTEX_POINT('',#932);
#281=VERTEX_POINT('',#937);
#282=VERTEX_POINT('',#939);
#283=VERTEX_POINT('',#943);
#284=VERTEX_POINT('',#947);
#285=VERTEX_POINT('',#950);
#286=VERTEX_POINT('',#954);
#287=VERTEX_POINT('',#957);
#288=VERTEX_POINT('',#959);
#289=VERTEX_POINT('',#963);
#290=VERTEX_POINT('',#967);
#291=VERTEX_POINT('',#974);
#292=VERTEX_POINT('',#976);
#293=VERTEX_POINT('',#980);
#294=VERTEX_POINT('',#983);
#295=VERTEX_POINT('',#988);
#296=VERTEX_POINT('',#990);
#297=VERTEX_POINT('',#994);
#298=VERTEX_POINT('',#997);
#299=VERTEX_POINT('',#1002);
#300=VERTEX_POINT('',#1003);
#301=VERTEX_POINT('',#1006);
#302=VERTEX_POINT('',#1007);
#303=VERTEX_POINT('',#1010);
#304=VERTEX_POINT('',#1011);
#305=VERTEX_POINT('',#1014);
#306=VERTEX_POINT('',#1015);
#307=VERTEX_POINT('',#1018);
#308=VERTEX_POINT('',#1019);
#309=VERTEX_POINT('',#1022);
#310=VERTEX_POINT('',#1023);
#311=VERTEX_POINT('',#1026);
#312=VERTEX_POINT('',#1027);
#313=VERTEX_POINT('',#1030);
#314=VERTEX_POINT('',#1031);
#315=VERTEX_POINT('',#1034);
#316=VERTEX_POINT('',#1035);
#317=VERTEX_POINT('',#1038);
#318=VERTEX_POINT('',#1039);
#319=VERTEX_POINT('',#1042);
#320=VERTEX_POINT('',#1043);
#321=VERTEX_POINT('',#1046);
#322=VERTEX_POINT('',#1047);
#323=VERTEX_POINT('',#1050);
#324=VERTEX_POINT('',#1051);
#325=VERTEX_POINT('',#1054);
#326=VERTEX_POINT('',#1055);
#327=VERTEX_POINT('',#1058);
#328=VERTEX_POINT('',#1059);
#329=VERTEX_POINT('',#1062);
#330=VERTEX_POINT('',#1063);
#331=EDGE_CURVE('',#271,#271,#221,.T.);
#332=EDGE_CURVE('',#271,#272,#197,.T.);
#333=EDGE_CURVE('',#272,#272,#222,.T.);
#334=EDGE_CURVE('',#271,#273,#198,.T.);
#335=EDGE_CURVE('',#273,#273,#223,.T.);
#336=EDGE_CURVE('',#274,#274,#224,.T.);
#337=EDGE_CURVE('',#273,#275,#199,.T.);
#338=EDGE_CURVE('',#275,#275,#225,.T.);
#339=EDGE_CURVE('',#276,#276,#226,.T.);
#340=EDGE_CURVE('',#277,#277,#227,.T.);
#341=EDGE_CURVE('',#277,#274,#200,.T.);
#342=EDGE_CURVE('',#278,#278,#228,.T.);
#343=EDGE_CURVE('',#278,#277,#201,.T.);
#344=EDGE_CURVE('',#278,#279,#202,.T.);
#345=EDGE_CURVE('',#279,#279,#229,.T.);
#346=EDGE_CURVE('',#280,#280,#230,.T.);
#347=EDGE_CURVE('',#280,#276,#231,.T.);
#348=EDGE_CURVE('',#281,#281,#232,.T.);
#349=EDGE_CURVE('',#281,#282,#203,.T.);
#350=EDGE_CURVE('',#282,#282,#233,.T.);
#351=EDGE_CURVE('',#281,#283,#204,.T.);
#352=EDGE_CURVE('',#283,#283,#234,.T.);
#353=EDGE_CURVE('',#284,#284,#235,.T.);
#354=EDGE_CURVE('',#283,#285,#205,.T.);
#355=EDGE_CURVE('',#285,#285,#236,.T.);
#356=EDGE_CURVE('',#286,#286,#237,.T.);
#357=EDGE_CURVE('',#287,#287,#238,.T.);
#358=EDGE_CURVE('',#287,#288,#206,.T.);
#359=EDGE_CURVE('',#288,#288,#239,.T.);
#360=EDGE_CURVE('',#289,#289,#240,.T.);
#361=EDGE_CURVE('',#289,#287,#207,.T.);
#362=EDGE_CURVE('',#290,#290,#241,.T.);
#363=EDGE_CURVE('',#289,#286,#208,.T.);
#364=EDGE_CURVE('',#284,#290,#242,.T.);
#365=EDGE_CURVE('',#291,#291,#243,.T.);
#366=EDGE_CURVE('',#291,#292,#244,.T.);
#367=EDGE_CURVE('',#292,#292,#245,.T.);
#368=EDGE_CURVE('',#293,#293,#246,.T.);
#369=EDGE_CURVE('',#294,#294,#247,.T.);
#370=EDGE_CURVE('',#294,#293,#248,.T.);
#371=EDGE_CURVE('',#295,#295,#249,.T.);
#372=EDGE_CURVE('',#295,#296,#250,.T.);
#373=EDGE_CURVE('',#296,#296,#251,.T.);
#374=EDGE_CURVE('',#297,#297,#252,.T.);
#375=EDGE_CURVE('',#298,#298,#253,.T.);
#376=EDGE_CURVE('',#298,#297,#254,.T.);
#377=EDGE_CURVE('',#299,#300,#255,.T.);
#378=EDGE_CURVE('',#301,#302,#256,.T.);
#379=EDGE_CURVE('',#303,#304,#257,.T.);
#380=EDGE_CURVE('',#305,#306,#258,.T.);
#381=EDGE_CURVE('',#307,#308,#259,.T.);
#382=EDGE_CURVE('',#309,#310,#260,.T.);
#383=EDGE_CURVE('',#311,#312,#261,.T.);
#384=EDGE_CURVE('',#313,#314,#262,.T.);
#385=EDGE_CURVE('',#315,#316,#263,.T.);
#386=EDGE_CURVE('',#317,#318,#264,.T.);
#387=EDGE_CURVE('',#319,#320,#265,.T.);
#388=EDGE_CURVE('',#321,#322,#266,.T.);
#389=EDGE_CURVE('',#323,#324,#267,.T.);
#390=EDGE_CURVE('',#325,#326,#268,.T.);
#391=EDGE_CURVE('',#327,#328,#269,.T.);
#392=EDGE_CURVE('',#329,#330,#270,.T.);
#393=ORIENTED_EDGE('',*,*,#331,.T.);
#394=ORIENTED_EDGE('',*,*,#332,.T.);
#395=ORIENTED_EDGE('',*,*,#333,.T.);
#396=ORIENTED_EDGE('',*,*,#332,.F.);
#397=ORIENTED_EDGE('',*,*,#331,.F.);
#398=ORIENTED_EDGE('',*,*,#334,.T.);
#399=ORIENTED_EDGE('',*,*,#335,.F.);
#400=ORIENTED_EDGE('',*,*,#334,.F.);
#401=ORIENTED_EDGE('',*,*,#336,.F.);
#402=ORIENTED_EDGE('',*,*,#333,.F.);
#403=ORIENTED_EDGE('',*,*,#335,.T.);
#404=ORIENTED_EDGE('',*,*,#337,.T.);
#405=ORIENTED_EDGE('',*,*,#338,.T.);
#406=ORIENTED_EDGE('',*,*,#337,.F.);
#407=ORIENTED_EDGE('',*,*,#339,.T.);
#408=ORIENTED_EDGE('',*,*,#338,.F.);
#409=ORIENTED_EDGE('',*,*,#340,.T.);
#410=ORIENTED_EDGE('',*,*,#341,.T.);
#411=ORIENTED_EDGE('',*,*,#336,.T.);
#412=ORIENTED_EDGE('',*,*,#341,.F.);
#413=ORIENTED_EDGE('',*,*,#342,.F.);
#414=ORIENTED_EDGE('',*,*,#343,.T.);
#415=ORIENTED_EDGE('',*,*,#340,.F.);
#416=ORIENTED_EDGE('',*,*,#343,.F.);
#417=ORIENTED_EDGE('',*,*,#342,.T.);
#418=ORIENTED_EDGE('',*,*,#344,.T.);
#419=ORIENTED_EDGE('',*,*,#345,.T.);
#420=ORIENTED_EDGE('',*,*,#344,.F.);
#421=ORIENTED_EDGE('',*,*,#345,.F.);
#422=ORIENTED_EDGE('',*,*,#346,.T.);
#423=ORIENTED_EDGE('',*,*,#346,.F.);
#424=ORIENTED_EDGE('',*,*,#347,.T.);
#425=ORIENTED_EDGE('',*,*,#339,.F.);
#426=ORIENTED_EDGE('',*,*,#347,.F.);
#427=ORIENTED_EDGE('',*,*,#348,.T.);
#428=ORIENTED_EDGE('',*,*,#349,.T.);
#429=ORIENTED_EDGE('',*,*,#350,.T.);
#430=ORIENTED_EDGE('',*,*,#349,.F.);
#431=ORIENTED_EDGE('',*,*,#348,.F.);
#432=ORIENTED_EDGE('',*,*,#351,.T.);
#433=ORIENTED_EDGE('',*,*,#352,.F.);
#434=ORIENTED_EDGE('',*,*,#351,.F.);
#435=ORIENTED_EDGE('',*,*,#353,.T.);
#436=ORIENTED_EDGE('',*,*,#350,.F.);
#437=ORIENTED_EDGE('',*,*,#352,.T.);
#438=ORIENTED_EDGE('',*,*,#354,.T.);
#439=ORIENTED_EDGE('',*,*,#355,.T.);
#440=ORIENTED_EDGE('',*,*,#354,.F.);
#441=ORIENTED_EDGE('',*,*,#356,.F.);
#442=ORIENTED_EDGE('',*,*,#355,.F.);
#443=ORIENTED_EDGE('',*,*,#357,.T.);
#444=ORIENTED_EDGE('',*,*,#358,.T.);
#445=ORIENTED_EDGE('',*,*,#359,.T.);
#446=ORIENTED_EDGE('',*,*,#358,.F.);
#447=ORIENTED_EDGE('',*,*,#360,.F.);
#448=ORIENTED_EDGE('',*,*,#361,.T.);
#449=ORIENTED_EDGE('',*,*,#357,.F.);
#450=ORIENTED_EDGE('',*,*,#361,.F.);
#451=ORIENTED_EDGE('',*,*,#359,.F.);
#452=ORIENTED_EDGE('',*,*,#362,.T.);
#453=ORIENTED_EDGE('',*,*,#360,.T.);
#454=ORIENTED_EDGE('',*,*,#363,.T.);
#455=ORIENTED_EDGE('',*,*,#356,.T.);
#456=ORIENTED_EDGE('',*,*,#363,.F.);
#457=ORIENTED_EDGE('',*,*,#353,.F.);
#458=ORIENTED_EDGE('',*,*,#364,.T.);
#459=ORIENTED_EDGE('',*,*,#362,.F.);
#460=ORIENTED_EDGE('',*,*,#364,.F.);
#461=ORIENTED_EDGE('',*,*,#365,.F.);
#462=ORIENTED_EDGE('',*,*,#366,.T.);
#463=ORIENTED_EDGE('',*,*,#367,.T.);
#464=ORIENTED_EDGE('',*,*,#366,.F.);
#465=ORIENTED_EDGE('',*,*,#368,.F.);
#466=ORIENTED_EDGE('',*,*,#365,.T.);
#467=ORIENTED_EDGE('',*,*,#369,.F.);
#468=ORIENTED_EDGE('',*,*,#370,.T.);
#469=ORIENTED_EDGE('',*,*,#368,.T.);
#470=ORIENTED_EDGE('',*,*,#370,.F.);
#471=ORIENTED_EDGE('',*,*,#369,.T.);
#472=ORIENTED_EDGE('',*,*,#367,.F.);
#473=ORIENTED_EDGE('',*,*,#371,.F.);
#474=ORIENTED_EDGE('',*,*,#372,.T.);
#475=ORIENTED_EDGE('',*,*,#373,.T.);
#476=ORIENTED_EDGE('',*,*,#372,.F.);
#477=ORIENTED_EDGE('',*,*,#371,.T.);
#478=ORIENTED_EDGE('',*,*,#374,.F.);
#479=ORIENTED_EDGE('',*,*,#375,.F.);
#480=ORIENTED_EDGE('',*,*,#376,.T.);
#481=ORIENTED_EDGE('',*,*,#374,.T.);
#482=ORIENTED_EDGE('',*,*,#376,.F.);
#483=ORIENTED_EDGE('',*,*,#373,.F.);
#484=ORIENTED_EDGE('',*,*,#375,.T.);
#485=ORIENTED_EDGE('',*,*,#377,.T.);
#486=ORIENTED_EDGE('',*,*,#377,.F.);
#487=ORIENTED_EDGE('',*,*,#378,.T.);
#488=ORIENTED_EDGE('',*,*,#378,.F.);
#489=ORIENTED_EDGE('',*,*,#379,.T.);
#490=ORIENTED_EDGE('',*,*,#379,.F.);
#491=ORIENTED_EDGE('',*,*,#380,.T.);
#492=ORIENTED_EDGE('',*,*,#380,.F.);
#493=ORIENTED_EDGE('',*,*,#381,.T.);
#494=ORIENTED_EDGE('',*,*,#381,.F.);
#495=ORIENTED_EDGE('',*,*,#382,.T.);
#496=ORIENTED_EDGE('',*,*,#382,.F.);
#497=ORIENTED_EDGE('',*,*,#383,.T.);
#498=ORIENTED_EDGE('',*,*,#383,.F.);
#499=ORIENTED_EDGE('',*,*,#384,.T.);
#500=ORIENTED_EDGE('',*,*,#384,.F.);
#501=ORIENTED_EDGE('',*,*,#385,.T.);
#502=ORIENTED_EDGE('',*,*,#385,.F.);
#503=ORIENTED_EDGE('',*,*,#386,.T.);
#504=ORIENTED_EDGE('',*,*,#386,.F.);
#505=ORIENTED_EDGE('',*,*,#387,.T.);
#506=ORIENTED_EDGE('',*,*,#387,.F.);
#507=ORIENTED_EDGE('',*,*,#388,.T.);
#508=ORIENTED_EDGE('',*,*,#388,.F.);
#509=ORIENTED_EDGE('',*,*,#389,.T.);
#510=ORIENTED_EDGE('',*,*,#389,.F.);
#511=ORIENTED_EDGE('',*,*,#390,.T.);
#512=ORIENTED_EDGE('',*,*,#390,.F.);
#513=ORIENTED_EDGE('',*,*,#391,.T.);
#514=ORIENTED_EDGE('',*,*,#391,.F.);
#515=ORIENTED_EDGE('',*,*,#392,.T.);
#516=ORIENTED_EDGE('',*,*,#392,.F.);
#517=CONICAL_SURFACE('',#602,12.65,0.785398163397449);
#518=CONICAL_SURFACE('',#609,12.65,0.785398163397449);
#519=CONICAL_SURFACE('',#613,20.85,0.785398163397445);
#520=CONICAL_SURFACE('',#617,20.85,0.785398163397446);
#521=CONICAL_SURFACE('',#623,12.65,0.785398163397448);
#522=CONICAL_SURFACE('',#630,12.65,0.785398163397448);
#523=CONICAL_SURFACE('',#634,20.85,0.785398163397444);
#524=CONICAL_SURFACE('',#641,20.85,0.785398163397444);
#525=ADVANCED_FACE('',(#99),#517,.F.);
#526=ADVANCED_FACE('',(#100),#95,.F.);
#527=ADVANCED_FACE('',(#101,#75),#85,.F.);
#528=ADVANCED_FACE('',(#102),#518,.F.);
#529=ADVANCED_FACE('',(#103,#76),#86,.F.);
#530=ADVANCED_FACE('',(#104),#519,.T.);
#531=ADVANCED_FACE('',(#105),#96,.T.);
#532=ADVANCED_FACE('',(#106),#520,.T.);
#533=ADVANCED_FACE('',(#107,#77),#87,.F.);
#534=ADVANCED_FACE('',(#108),#69,.F.);
#535=ADVANCED_FACE('',(#109),#521,.F.);
#536=ADVANCED_FACE('',(#110),#97,.F.);
#537=ADVANCED_FACE('',(#111,#78),#88,.F.);
#538=ADVANCED_FACE('',(#112),#522,.F.);
#539=ADVANCED_FACE('',(#113,#79),#89,.T.);
#540=ADVANCED_FACE('',(#114),#523,.T.);
#541=ADVANCED_FACE('',(#115),#98,.T.);
#542=ADVANCED_FACE('',(#116,#80),#90,.F.);
#543=ADVANCED_FACE('',(#117),#524,.T.);
#544=ADVANCED_FACE('',(#118),#70,.F.);
#545=ADVANCED_FACE('',(#119),#71,.F.);
#546=ADVANCED_FACE('',(#120,#81),#91,.T.);
#547=ADVANCED_FACE('',(#121),#72,.T.);
#548=ADVANCED_FACE('',(#122,#82),#92,.T.);
#549=ADVANCED_FACE('',(#123),#73,.F.);
#550=ADVANCED_FACE('',(#124,#83),#93,.T.);
#551=ADVANCED_FACE('',(#125),#74,.T.);
#552=ADVANCED_FACE('',(#126,#84),#94,.T.);
#553=ADVANCED_FACE('',(#127),#13,.T.);
#554=ADVANCED_FACE('',(#128),#14,.T.);
#555=ADVANCED_FACE('',(#129),#15,.T.);
#556=ADVANCED_FACE('',(#130),#16,.T.);
#557=ADVANCED_FACE('',(#131),#17,.T.);
#558=ADVANCED_FACE('',(#132),#18,.T.);
#559=ADVANCED_FACE('',(#133),#19,.T.);
#560=ADVANCED_FACE('',(#134),#20,.T.);
#561=ADVANCED_FACE('',(#135),#21,.T.);
#562=ADVANCED_FACE('',(#136),#22,.T.);
#563=ADVANCED_FACE('',(#137),#23,.T.);
#564=ADVANCED_FACE('',(#138),#24,.T.);
#565=ADVANCED_FACE('',(#139),#25,.T.);
#566=ADVANCED_FACE('',(#140),#26,.T.);
#567=ADVANCED_FACE('',(#141),#27,.T.);
#568=ADVANCED_FACE('',(#142),#28,.T.);
#569=CLOSED_SHELL('',(#525,#526,#527,#528,#529,#530,#531,#532,#533,#534));
#570=CLOSED_SHELL('',(#535,#536,#537,#538,#539,#540,#541,#542,#543,#544));
#571=CLOSED_SHELL('',(#545,#546,#547,#548));
#572=CLOSED_SHELL('',(#549,#550,#551,#552));
#573=CLOSED_SHELL('',(#553));
#574=CLOSED_SHELL('',(#554));
#575=CLOSED_SHELL('',(#555));
#576=CLOSED_SHELL('',(#556));
#577=CLOSED_SHELL('',(#557));
#578=CLOSED_SHELL('',(#558));
#579=CLOSED_SHELL('',(#559));
#580=CLOSED_SHELL('',(#560));
#581=CLOSED_SHELL('',(#561));
#582=CLOSED_SHELL('',(#562));
#583=CLOSED_SHELL('',(#563));
#584=CLOSED_SHELL('',(#564));
#585=CLOSED_SHELL('',(#565));
#586=CLOSED_SHELL('',(#566));
#587=CLOSED_SHELL('',(#567));
#588=CLOSED_SHELL('',(#568));
#589=DERIVED_UNIT_ELEMENT(#591,1.);
#590=DERIVED_UNIT_ELEMENT(#1070,-3.);
#591=(
MASS_UNIT()
NAMED_UNIT(*)
SI_UNIT(.KILO.,.GRAM.)
);
#592=DERIVED_UNIT((#589,#590));
#593=MEASURE_REPRESENTATION_ITEM('density measure',
POSITIVE_RATIO_MEASURE(7850.),#592);
#594=PROPERTY_DEFINITION_REPRESENTATION(#599,#596);
#595=PROPERTY_DEFINITION_REPRESENTATION(#600,#597);
#596=REPRESENTATION('material name',(#598),#1067);
#597=REPRESENTATION('density',(#593),#1067);
#598=DESCRIPTIVE_REPRESENTATION_ITEM('\X2\94A2\X0\','\X2\94A2\X0\');
#599=PROPERTY_DEFINITION('material property','material name',#1077);
#600=PROPERTY_DEFINITION('material property','density of part',#1077);
#601=AXIS2_PLACEMENT_3D('',#898,#696,#697);
#602=AXIS2_PLACEMENT_3D('',#899,#698,#699);
#603=AXIS2_PLACEMENT_3D('',#901,#700,#701);
#604=AXIS2_PLACEMENT_3D('',#904,#703,#704);
#605=AXIS2_PLACEMENT_3D('',#905,#705,#706);
#606=AXIS2_PLACEMENT_3D('',#908,#708,#709);
#607=AXIS2_PLACEMENT_3D('',#909,#710,#711);
#608=AXIS2_PLACEMENT_3D('',#911,#712,#713);
#609=AXIS2_PLACEMENT_3D('',#912,#714,#715);
#610=AXIS2_PLACEMENT_3D('',#915,#717,#718);
#611=AXIS2_PLACEMENT_3D('',#916,#719,#720);
#612=AXIS2_PLACEMENT_3D('',#918,#721,#722);
#613=AXIS2_PLACEMENT_3D('',#919,#723,#724);
#614=AXIS2_PLACEMENT_3D('',#921,#725,#726);
#615=AXIS2_PLACEMENT_3D('',#923,#728,#729);
#616=AXIS2_PLACEMENT_3D('',#925,#730,#731);
#617=AXIS2_PLACEMENT_3D('',#927,#733,#734);
#618=AXIS2_PLACEMENT_3D('',#930,#736,#737);
#619=AXIS2_PLACEMENT_3D('',#931,#738,#739);
#620=AXIS2_PLACEMENT_3D('',#933,#740,#741);
#621=AXIS2_PLACEMENT_3D('',#934,#742,#743);
#622=AXIS2_PLACEMENT_3D('',#935,#744,#745);
#623=AXIS2_PLACEMENT_3D('',#936,#746,#747);
#624=AXIS2_PLACEMENT_3D('',#938,#748,#749);
#625=AXIS2_PLACEMENT_3D('',#941,#751,#752);
#626=AXIS2_PLACEMENT_3D('',#942,#753,#754);
#627=AXIS2_PLACEMENT_3D('',#945,#756,#757);
#628=AXIS2_PLACEMENT_3D('',#946,#758,#759);
#629=AXIS2_PLACEMENT_3D('',#948,#760,#761);
#630=AXIS2_PLACEMENT_3D('',#949,#762,#763);
#631=AXIS2_PLACEMENT_3D('',#952,#765,#766);
#632=AXIS2_PLACEMENT_3D('',#953,#767,#768);
#633=AXIS2_PLACEMENT_3D('',#955,#769,#770);
#634=AXIS2_PLACEMENT_3D('',#956,#771,#772);
#635=AXIS2_PLACEMENT_3D('',#958,#773,#774);
#636=AXIS2_PLACEMENT_3D('',#961,#776,#777);
#637=AXIS2_PLACEMENT_3D('',#962,#778,#779);
#638=AXIS2_PLACEMENT_3D('',#964,#780,#781);
#639=AXIS2_PLACEMENT_3D('',#966,#783,#784);
#640=AXIS2_PLACEMENT_3D('',#968,#785,#786);
#641=AXIS2_PLACEMENT_3D('',#969,#787,#788);
#642=AXIS2_PLACEMENT_3D('',#971,#790,#791);
#643=AXIS2_PLACEMENT_3D('',#972,#792,#793);
#644=AXIS2_PLACEMENT_3D('',#973,#794,#795);
#645=AXIS2_PLACEMENT_3D('',#975,#796,#797);
#646=AXIS2_PLACEMENT_3D('',#977,#798,#799);
#647=AXIS2_PLACEMENT_3D('',#978,#800,#801);
#648=AXIS2_PLACEMENT_3D('',#979,#802,#803);
#649=AXIS2_PLACEMENT_3D('',#981,#804,#805);
#650=AXIS2_PLACEMENT_3D('',#982,#806,#807);
#651=AXIS2_PLACEMENT_3D('',#984,#808,#809);
#652=AXIS2_PLACEMENT_3D('',#985,#810,#811);
#653=AXIS2_PLACEMENT_3D('',#986,#812,#813);
#654=AXIS2_PLACEMENT_3D('',#987,#814,#815);
#655=AXIS2_PLACEMENT_3D('',#989,#816,#817);
#656=AXIS2_PLACEMENT_3D('',#991,#818,#819);
#657=AXIS2_PLACEMENT_3D('',#992,#820,#821);
#658=AXIS2_PLACEMENT_3D('',#993,#822,#823);
#659=AXIS2_PLACEMENT_3D('',#995,#824,#825);
#660=AXIS2_PLACEMENT_3D('',#996,#826,#827);
#661=AXIS2_PLACEMENT_3D('',#998,#828,#829);
#662=AXIS2_PLACEMENT_3D('',#999,#830,#831);
#663=AXIS2_PLACEMENT_3D('',#1000,#832,#833);
#664=AXIS2_PLACEMENT_3D('',#1001,#834,#835);
#665=AXIS2_PLACEMENT_3D('',#1004,#836,#837);
#666=AXIS2_PLACEMENT_3D('',#1005,#838,#839);
#667=AXIS2_PLACEMENT_3D('',#1008,#840,#841);
#668=AXIS2_PLACEMENT_3D('',#1009,#842,#843);
#669=AXIS2_PLACEMENT_3D('',#1012,#844,#845);
#670=AXIS2_PLACEMENT_3D('',#1013,#846,#847);
#671=AXIS2_PLACEMENT_3D('',#1016,#848,#849);
#672=AXIS2_PLACEMENT_3D('',#1017,#850,#851);
#673=AXIS2_PLACEMENT_3D('',#1020,#852,#853);
#674=AXIS2_PLACEMENT_3D('',#1021,#854,#855);
#675=AXIS2_PLACEMENT_3D('',#1024,#856,#857);
#676=AXIS2_PLACEMENT_3D('',#1025,#858,#859);
#677=AXIS2_PLACEMENT_3D('',#1028,#860,#861);
#678=AXIS2_PLACEMENT_3D('',#1029,#862,#863);
#679=AXIS2_PLACEMENT_3D('',#1032,#864,#865);
#680=AXIS2_PLACEMENT_3D('',#1033,#866,#867);
#681=AXIS2_PLACEMENT_3D('',#1036,#868,#869);
#682=AXIS2_PLACEMENT_3D('',#1037,#870,#871);
#683=AXIS2_PLACEMENT_3D('',#1040,#872,#873);
#684=AXIS2_PLACEMENT_3D('',#1041,#874,#875);
#685=AXIS2_PLACEMENT_3D('',#1044,#876,#877);
#686=AXIS2_PLACEMENT_3D('',#1045,#878,#879);
#687=AXIS2_PLACEMENT_3D('',#1048,#880,#881);
#688=AXIS2_PLACEMENT_3D('',#1049,#882,#883);
#689=AXIS2_PLACEMENT_3D('',#1052,#884,#885);
#690=AXIS2_PLACEMENT_3D('',#1053,#886,#887);
#691=AXIS2_PLACEMENT_3D('',#1056,#888,#889);
#692=AXIS2_PLACEMENT_3D('',#1057,#890,#891);
#693=AXIS2_PLACEMENT_3D('',#1060,#892,#893);
#694=AXIS2_PLACEMENT_3D('',#1061,#894,#895);
#695=AXIS2_PLACEMENT_3D('',#1064,#896,#897);
#696=DIRECTION('axis',(0.,0.,1.));
#697=DIRECTION('refdir',(1.,0.,0.));
#698=DIRECTION('center_axis',(0.,0.,-1.));
#699=DIRECTION('ref_axis',(1.,0.,0.));
#700=DIRECTION('center_axis',(0.,0.,1.));
#701=DIRECTION('ref_axis',(1.,0.,0.));
#702=DIRECTION('',(-0.707106781186548,8.65956056235494E-17,-0.707106781186547));
#703=DIRECTION('center_axis',(0.,0.,-1.));
#704=DIRECTION('ref_axis',(1.,0.,0.));
#705=DIRECTION('center_axis',(0.,0.,1.));
#706=DIRECTION('ref_axis',(1.,0.,0.));
#707=DIRECTION('',(0.,0.,1.));
#708=DIRECTION('center_axis',(0.,0.,-1.));
#709=DIRECTION('ref_axis',(1.,0.,0.));
#710=DIRECTION('center_axis',(0.,0.,1.));
#711=DIRECTION('ref_axis',(1.,0.,0.));
#712=DIRECTION('center_axis',(0.,0.,1.));
#713=DIRECTION('ref_axis',(1.,0.,0.));
#714=DIRECTION('center_axis',(0.,0.,1.));
#715=DIRECTION('ref_axis',(1.,0.,0.));
#716=DIRECTION('',(-0.707106781186548,-8.65956056235494E-17,0.707106781186547));
#717=DIRECTION('center_axis',(0.,0.,1.));
#718=DIRECTION('ref_axis',(1.,0.,0.));
#719=DIRECTION('center_axis',(0.,0.,-1.));
#720=DIRECTION('ref_axis',(-1.,0.,0.));
#721=DIRECTION('center_axis',(0.,0.,1.));
#722=DIRECTION('ref_axis',(-1.,0.,0.));
#723=DIRECTION('center_axis',(0.,0.,1.));
#724=DIRECTION('ref_axis',(1.,0.,0.));
#725=DIRECTION('center_axis',(0.,0.,-1.));
#726=DIRECTION('ref_axis',(1.,0.,0.));
#727=DIRECTION('',(0.707106781186545,8.6595605623549E-17,-0.70710678118655));
#728=DIRECTION('center_axis',(0.,0.,1.));
#729=DIRECTION('ref_axis',(1.,0.,0.));
#730=DIRECTION('center_axis',(0.,0.,1.));
#731=DIRECTION('ref_axis',(1.,0.,0.));
#732=DIRECTION('',(0.,0.,-1.));
#733=DIRECTION('center_axis',(0.,0.,-1.));
#734=DIRECTION('ref_axis',(1.,0.,0.));
#735=DIRECTION('',(0.707106781186546,-8.65956056235491E-17,0.707106781186549));
#736=DIRECTION('center_axis',(0.,0.,-1.));
#737=DIRECTION('ref_axis',(1.,0.,0.));
#738=DIRECTION('center_axis',(0.,0.,-1.));
#739=DIRECTION('ref_axis',(-1.,0.,0.));
#740=DIRECTION('center_axis',(0.,0.,-1.));
#741=DIRECTION('ref_axis',(-1.,0.,0.));
#742=DIRECTION('center_axis',(0.,0.,-1.));
#743=DIRECTION('ref_axis',(-1.,0.,0.));
#744=DIRECTION('center_axis',(1.22464679914735E-16,1.,0.));
#745=DIRECTION('ref_axis',(1.,-1.22464679914735E-16,0.));
#746=DIRECTION('center_axis',(0.,0.,-1.));
#747=DIRECTION('ref_axis',(1.,0.,0.));
#748=DIRECTION('center_axis',(0.,0.,1.));
#749=DIRECTION('ref_axis',(1.,0.,0.));
#750=DIRECTION('',(-0.707106781186547,8.65956056235493E-17,-0.707106781186548));
#751=DIRECTION('center_axis',(0.,0.,-1.));
#752=DIRECTION('ref_axis',(1.,0.,0.));
#753=DIRECTION('center_axis',(0.,0.,1.));
#754=DIRECTION('ref_axis',(1.,0.,0.));
#755=DIRECTION('',(0.,0.,1.));
#756=DIRECTION('center_axis',(0.,0.,-1.));
#757=DIRECTION('ref_axis',(1.,0.,0.));
#758=DIRECTION('center_axis',(0.,0.,1.));
#759=DIRECTION('ref_axis',(1.,0.,0.));
#760=DIRECTION('center_axis',(0.,0.,-1.));
#761=DIRECTION('ref_axis',(-1.,0.,0.));
#762=DIRECTION('center_axis',(0.,0.,1.));
#763=DIRECTION('ref_axis',(1.,0.,0.));
#764=DIRECTION('',(-0.707106781186547,-8.65956056235493E-17,0.707106781186548));
#765=DIRECTION('center_axis',(0.,0.,1.));
#766=DIRECTION('ref_axis',(1.,0.,0.));
#767=DIRECTION('center_axis',(0.,0.,1.));
#768=DIRECTION('ref_axis',(1.,0.,0.));
#769=DIRECTION('center_axis',(0.,0.,-1.));
#770=DIRECTION('ref_axis',(1.,0.,0.));
#771=DIRECTION('center_axis',(0.,0.,1.));
#772=DIRECTION('ref_axis',(1.,0.,0.));
#773=DIRECTION('center_axis',(0.,0.,-1.));
#774=DIRECTION('ref_axis',(1.,0.,0.));
#775=DIRECTION('',(0.707106781186544,8.6595605623549E-17,-0.707106781186551));
#776=DIRECTION('center_axis',(0.,0.,1.));
#777=DIRECTION('ref_axis',(1.,0.,0.));
#778=DIRECTION('center_axis',(0.,0.,1.));
#779=DIRECTION('ref_axis',(1.,0.,0.));
#780=DIRECTION('center_axis',(0.,0.,1.));
#781=DIRECTION('ref_axis',(1.,0.,0.));
#782=DIRECTION('',(0.,0.,-1.));
#783=DIRECTION('center_axis',(0.,0.,1.));
#784=DIRECTION('ref_axis',(1.,0.,0.));
#785=DIRECTION('center_axis',(0.,0.,1.));
#786=DIRECTION('ref_axis',(-1.,0.,0.));
#787=DIRECTION('center_axis',(0.,0.,-1.));
#788=DIRECTION('ref_axis',(1.,0.,0.));
#789=DIRECTION('',(0.707106781186544,-8.6595605623549E-17,0.707106781186551));
#790=DIRECTION('center_axis',(0.,0.,-1.));
#791=DIRECTION('ref_axis',(-1.,0.,0.));
#792=DIRECTION('center_axis',(1.22464679914735E-16,1.,0.));
#793=DIRECTION('ref_axis',(1.,-1.22464679914735E-16,0.));
#794=DIRECTION('center_axis',(0.,0.,-1.));
#795=DIRECTION('ref_axis',(-1.,0.,0.));
#796=DIRECTION('center_axis',(0.,0.,-1.));
#797=DIRECTION('ref_axis',(1.,0.,0.));
#798=DIRECTION('center_axis',(1.22464679914735E-16,1.,0.));
#799=DIRECTION('ref_axis',(1.,-1.22464679914735E-16,0.));
#800=DIRECTION('center_axis',(0.,0.,-1.));
#801=DIRECTION('ref_axis',(1.,0.,0.));
#802=DIRECTION('center_axis',(0.,0.,1.));
#803=DIRECTION('ref_axis',(1.,0.,0.));
#804=DIRECTION('center_axis',(0.,0.,-1.));
#805=DIRECTION('ref_axis',(1.,0.,0.));
#806=DIRECTION('center_axis',(0.,0.,-1.));
#807=DIRECTION('ref_axis',(-1.,0.,0.));
#808=DIRECTION('center_axis',(0.,0.,-1.));
#809=DIRECTION('ref_axis',(1.,0.,0.));
#810=DIRECTION('center_axis',(-1.22464679914735E-16,-1.,0.));
#811=DIRECTION('ref_axis',(1.,-1.22464679914735E-16,0.));
#812=DIRECTION('center_axis',(0.,0.,-1.));
#813=DIRECTION('ref_axis',(-1.,0.,0.));
#814=DIRECTION('center_axis',(0.,0.,-1.));
#815=DIRECTION('ref_axis',(-1.,0.,0.));
#816=DIRECTION('center_axis',(0.,0.,-1.));
#817=DIRECTION('ref_axis',(1.,0.,0.));
#818=DIRECTION('center_axis',(1.22464679914735E-16,1.,0.));
#819=DIRECTION('ref_axis',(1.,-1.22464679914735E-16,0.));
#820=DIRECTION('center_axis',(0.,0.,-1.));
#821=DIRECTION('ref_axis',(1.,0.,0.));
#822=DIRECTION('center_axis',(0.,0.,-1.));
#823=DIRECTION('ref_axis',(-1.,0.,0.));
#824=DIRECTION('center_axis',(0.,0.,-1.));
#825=DIRECTION('ref_axis',(1.,0.,0.));
#826=DIRECTION('center_axis',(0.,0.,-1.));
#827=DIRECTION('ref_axis',(-1.,0.,0.));
#828=DIRECTION('center_axis',(0.,0.,-1.));
#829=DIRECTION('ref_axis',(1.,0.,0.));
#830=DIRECTION('center_axis',(-1.22464679914735E-16,-1.,0.));
#831=DIRECTION('ref_axis',(1.,-1.22464679914735E-16,0.));
#832=DIRECTION('center_axis',(0.,0.,1.));
#833=DIRECTION('ref_axis',(1.,0.,0.));
#834=DIRECTION('center_axis',(1.,-1.22464679914735E-16,0.));
#835=DIRECTION('ref_axis',(0.,-1.,0.));
#836=DIRECTION('center_axis',(0.,0.,1.));
#837=DIRECTION('ref_axis',(0.,1.,0.));
#838=DIRECTION('center_axis',(0.923879532511287,-0.38268343236509,0.));
#839=DIRECTION('ref_axis',(-0.382683432365089,-0.923879532511287,0.));
#840=DIRECTION('center_axis',(0.,0.,1.));
#841=DIRECTION('ref_axis',(0.38268343236509,0.923879532511287,0.));
#842=DIRECTION('center_axis',(0.707106781186548,-0.707106781186548,0.));
#843=DIRECTION('ref_axis',(-0.707106781186548,-0.707106781186548,0.));
#844=DIRECTION('center_axis',(0.,0.,1.));
#845=DIRECTION('ref_axis',(0.707106781186548,0.707106781186547,0.));
#846=DIRECTION('center_axis',(0.38268343236509,-0.923879532511287,0.));
#847=DIRECTION('ref_axis',(-0.923879532511287,-0.38268343236509,0.));
#848=DIRECTION('center_axis',(0.,0.,1.));
#849=DIRECTION('ref_axis',(0.923879532511287,0.38268343236509,0.));
#850=DIRECTION('center_axis',(-6.12323399573677E-17,-1.,0.));
#851=DIRECTION('ref_axis',(-1.,0.,0.));
#852=DIRECTION('center_axis',(0.,0.,1.));
#853=DIRECTION('ref_axis',(1.,0.,0.));
#854=DIRECTION('center_axis',(-0.38268343236509,-0.923879532511287,0.));
#855=DIRECTION('ref_axis',(-0.923879532511287,0.382683432365089,0.));
#856=DIRECTION('center_axis',(0.,0.,1.));
#857=DIRECTION('ref_axis',(0.923879532511287,-0.38268343236509,0.));
#858=DIRECTION('center_axis',(-0.707106781186548,-0.707106781186548,0.));
#859=DIRECTION('ref_axis',(-0.707106781186548,0.707106781186548,0.));
#860=DIRECTION('center_axis',(0.,0.,1.));
#861=DIRECTION('ref_axis',(0.707106781186547,-0.707106781186548,0.));
#862=DIRECTION('center_axis',(-0.923879532511287,-0.38268343236509,0.));
#863=DIRECTION('ref_axis',(-0.38268343236509,0.923879532511287,0.));
#864=DIRECTION('center_axis',(0.,0.,1.));
#865=DIRECTION('ref_axis',(0.38268343236509,-0.923879532511287,0.));
#866=DIRECTION('center_axis',(-1.,0.,0.));
#867=DIRECTION('ref_axis',(0.,1.,0.));
#868=DIRECTION('center_axis',(0.,0.,1.));
#869=DIRECTION('ref_axis',(0.,-1.,0.));
#870=DIRECTION('center_axis',(-0.923879532511287,0.38268343236509,0.));
#871=DIRECTION('ref_axis',(0.382683432365089,0.923879532511287,0.));
#872=DIRECTION('center_axis',(0.,0.,1.));
#873=DIRECTION('ref_axis',(-0.38268343236509,-0.923879532511287,0.));
#874=DIRECTION('center_axis',(-0.707106781186548,0.707106781186548,0.));
#875=DIRECTION('ref_axis',(0.707106781186548,0.707106781186548,0.));
#876=DIRECTION('center_axis',(0.,0.,1.));
#877=DIRECTION('ref_axis',(-0.707106781186548,-0.707106781186547,0.));
#878=DIRECTION('center_axis',(-0.38268343236509,0.923879532511287,0.));
#879=DIRECTION('ref_axis',(0.923879532511287,0.38268343236509,0.));
#880=DIRECTION('center_axis',(0.,0.,1.));
#881=DIRECTION('ref_axis',(-0.923879532511287,-0.38268343236509,0.));
#882=DIRECTION('center_axis',(-6.12323399573674E-17,1.,0.));
#883=DIRECTION('ref_axis',(1.,0.,0.));
#884=DIRECTION('center_axis',(0.,0.,1.));
#885=DIRECTION('ref_axis',(-1.,0.,0.));
#886=DIRECTION('center_axis',(0.38268343236509,0.923879532511287,0.));
#887=DIRECTION('ref_axis',(0.923879532511287,-0.382683432365089,0.));
#888=DIRECTION('center_axis',(0.,0.,1.));
#889=DIRECTION('ref_axis',(-0.923879532511287,0.38268343236509,0.));
#890=DIRECTION('center_axis',(0.707106781186548,0.707106781186548,0.));
#891=DIRECTION('ref_axis',(0.707106781186548,-0.707106781186548,0.));
#892=DIRECTION('center_axis',(0.,0.,1.));
#893=DIRECTION('ref_axis',(-0.707106781186547,0.707106781186548,0.));
#894=DIRECTION('center_axis',(0.923879532511287,0.38268343236509,0.));
#895=DIRECTION('ref_axis',(0.38268343236509,-0.923879532511287,0.));
#896=DIRECTION('center_axis',(0.,0.,1.));
#897=DIRECTION('ref_axis',(-0.38268343236509,0.923879532511287,0.));
#898=CARTESIAN_POINT('',(0.,0.,0.));
#899=CARTESIAN_POINT('Origin',(0.,0.,0.15));
#900=CARTESIAN_POINT('',(-12.5,-1.53080849893419E-15,0.3));
#901=CARTESIAN_POINT('Origin',(0.,0.,0.3));
#902=CARTESIAN_POINT('',(-12.8,1.56754790290861E-15,0.));
#903=CARTESIAN_POINT('',(-12.65,1.5491782009214E-15,0.15));
#904=CARTESIAN_POINT('Origin',(0.,0.,0.));
#905=CARTESIAN_POINT('Origin',(0.,0.,0.));
#906=CARTESIAN_POINT('',(-12.5,1.53080849893419E-15,2.97));
#907=CARTESIAN_POINT('',(-12.5,-1.53080849893419E-15,0.));
#908=CARTESIAN_POINT('Origin',(0.,0.,2.97));
#909=CARTESIAN_POINT('Origin',(0.,0.,0.));
#910=CARTESIAN_POINT('',(-20.7,-2.53501887423502E-15,0.));
#911=CARTESIAN_POINT('Origin',(0.,0.,0.));
#912=CARTESIAN_POINT('Origin',(0.,0.,3.12));
#913=CARTESIAN_POINT('',(-12.8,-1.56754790290861E-15,3.27));
#914=CARTESIAN_POINT('',(-12.65,-1.5491782009214E-15,3.12));
#915=CARTESIAN_POINT('Origin',(0.,0.,3.27));
#916=CARTESIAN_POINT('Origin',(21.980548678707,0.,3.27));
#917=CARTESIAN_POINT('',(15.1627254500946,1.85689831888085E-15,3.27));
#918=CARTESIAN_POINT('Origin',(0.,0.,3.27));
#919=CARTESIAN_POINT('Origin',(0.,0.,0.15));
#920=CARTESIAN_POINT('',(-21.,2.57175827820944E-15,0.3));
#921=CARTESIAN_POINT('Origin',(0.,0.,0.3));
#922=CARTESIAN_POINT('',(-20.85,-2.55338857622223E-15,0.15));
#923=CARTESIAN_POINT('Origin',(0.,0.,0.));
#924=CARTESIAN_POINT('',(-21.,-2.57175827820944E-15,2.97));
#925=CARTESIAN_POINT('Origin',(0.,0.,2.97));
#926=CARTESIAN_POINT('',(-21.,-2.57175827820944E-15,0.));
#927=CARTESIAN_POINT('Origin',(0.,0.,3.12));
#928=CARTESIAN_POINT('',(-20.7,2.53501887423502E-15,3.27));
#929=CARTESIAN_POINT('',(-20.85,2.55338857622223E-15,3.12));
#930=CARTESIAN_POINT('Origin',(0.,0.,3.27));
#931=CARTESIAN_POINT('Origin',(21.980548678707,0.,3.27));
#932=CARTESIAN_POINT('',(18.4826649883842,-2.26347365177375E-15,3.27));
#933=CARTESIAN_POINT('Origin',(0.,0.,3.27));
#934=CARTESIAN_POINT('Origin',(0.,0.,5.50000008195639));
#935=CARTESIAN_POINT('Origin',(16.8226952192394,-2.0601859853273E-15,5.50000008195639));
#936=CARTESIAN_POINT('Origin',(0.,0.,7.88000016391277));
#937=CARTESIAN_POINT('',(-12.5,-1.53080849893419E-15,8.03000016391277));
#938=CARTESIAN_POINT('Origin',(0.,0.,8.03000016391277));
#939=CARTESIAN_POINT('',(-12.8,1.56754790290861E-15,7.73000016391277));
#940=CARTESIAN_POINT('',(-12.65,1.5491782009214E-15,7.88000016391277));
#941=CARTESIAN_POINT('Origin',(0.,0.,7.73000016391277));
#942=CARTESIAN_POINT('Origin',(0.,0.,0.));
#943=CARTESIAN_POINT('',(-12.5,1.53080849893419E-15,10.7));
#944=CARTESIAN_POINT('',(-12.5,-1.53080849893419E-15,0.));
#945=CARTESIAN_POINT('Origin',(0.,0.,10.7));
#946=CARTESIAN_POINT('Origin',(-21.0000003129244,0.,7.73000016391277));
#947=CARTESIAN_POINT('',(15.1627254500946,-1.85689831888085E-15,7.73000016391277));
#948=CARTESIAN_POINT('Origin',(0.,0.,7.73000016391277));
#949=CARTESIAN_POINT('Origin',(0.,0.,10.85));
#950=CARTESIAN_POINT('',(-12.8,-1.56754790290861E-15,11.));
#951=CARTESIAN_POINT('',(-12.65,-1.5491782009214E-15,10.85));
#952=CARTESIAN_POINT('Origin',(0.,0.,11.));
#953=CARTESIAN_POINT('Origin',(0.,0.,11.));
#954=CARTESIAN_POINT('',(-20.7,2.53501887423502E-15,11.));
#955=CARTESIAN_POINT('Origin',(0.,0.,11.));
#956=CARTESIAN_POINT('Origin',(0.,0.,7.88000016391277));
#957=CARTESIAN_POINT('',(-21.,2.57175827820944E-15,8.03000016391277));
#958=CARTESIAN_POINT('Origin',(0.,0.,8.03000016391277));
#959=CARTESIAN_POINT('',(-20.7,-2.53501887423502E-15,7.73000016391277));
#960=CARTESIAN_POINT('',(-20.85,-2.55338857622223E-15,7.88000016391277));
#961=CARTESIAN_POINT('Origin',(0.,0.,7.73000016391277));
#962=CARTESIAN_POINT('Origin',(0.,0.,0.));
#963=CARTESIAN_POINT('',(-21.,-2.57175827820944E-15,10.7));
#964=CARTESIAN_POINT('Origin',(0.,0.,10.7));
#965=CARTESIAN_POINT('',(-21.,-2.57175827820944E-15,0.));
#966=CARTESIAN_POINT('Origin',(-21.0000003129244,0.,7.73000016391277));
#967=CARTESIAN_POINT('',(18.4826649883842,2.26347365177375E-15,7.73000016391277));
#968=CARTESIAN_POINT('Origin',(0.,0.,7.73000016391277));
#969=CARTESIAN_POINT('Origin',(0.,0.,10.85));
#970=CARTESIAN_POINT('',(-20.85,2.55338857622223E-15,10.85));
#971=CARTESIAN_POINT('Origin',(0.,0.,5.50000008195639));
#972=CARTESIAN_POINT('Origin',(16.8226952192394,-2.0601859853273E-15,5.50000008195639));
#973=CARTESIAN_POINT('Origin',(0.,0.,5.50000008195639));
#974=CARTESIAN_POINT('',(19.3303635697418,-2.36728678720389E-15,6.69999985024333));
#975=CARTESIAN_POINT('Origin',(0.,0.,6.69999985024333));
#976=CARTESIAN_POINT('',(19.3303633736479,-2.36728676318932E-15,4.29999990388751));
#977=CARTESIAN_POINT('Origin',(16.8226952192394,-2.0601859853273E-15,5.50000008195639));
#978=CARTESIAN_POINT('Origin',(0.,0.,4.29999990388751));
#979=CARTESIAN_POINT('Origin',(-19.6041660901331,0.,6.69999985024333));
#980=CARTESIAN_POINT('',(19.6041660901331,-2.40081792522346E-15,6.69999985024333));
#981=CARTESIAN_POINT('Origin',(0.,0.,6.69999985024333));
#982=CARTESIAN_POINT('Origin',(0.,0.,5.50000008195639));
#983=CARTESIAN_POINT('',(19.6041659133424,-2.40081790357284E-15,4.29999990388751));
#984=CARTESIAN_POINT('Origin',(0.,0.,4.29999990388751));
#985=CARTESIAN_POINT('Origin',(16.8226952192394,-2.0601859853273E-15,5.50000008195639));
#986=CARTESIAN_POINT('Origin',(-19.3303633736479,0.,4.29999990388751));
#987=CARTESIAN_POINT('Origin',(0.,0.,5.50000008195639));
#988=CARTESIAN_POINT('',(14.3150270648309,-1.75308520746528E-15,4.29999990388751));
#989=CARTESIAN_POINT('Origin',(0.,0.,4.29999990388751));
#990=CARTESIAN_POINT('',(14.315026868737,-1.75308518345071E-15,6.69999985024333));
#991=CARTESIAN_POINT('Origin',(16.8226952192394,-2.0601859853273E-15,5.50000008195639));
#992=CARTESIAN_POINT('Origin',(0.,0.,6.69999985024333));
#993=CARTESIAN_POINT('Origin',(-14.0412245251364,0.,4.29999990388751));
#994=CARTESIAN_POINT('',(14.0412245251364,-1.71955406708176E-15,4.29999990388751));
#995=CARTESIAN_POINT('Origin',(0.,0.,4.29999990388751));
#996=CARTESIAN_POINT('Origin',(0.,0.,5.50000008195639));
#997=CARTESIAN_POINT('',(14.0412243483457,-1.71955404543114E-15,6.69999985024333));
#998=CARTESIAN_POINT('Origin',(0.,0.,6.69999985024333));
#999=CARTESIAN_POINT('Origin',(16.8226952192394,-2.0601859853273E-15,5.50000008195639));
#1000=CARTESIAN_POINT('Origin',(-14.315026868737,0.,6.69999985024333));
#1001=CARTESIAN_POINT('Origin',(-16.8226952192394,0.,5.50000008195639));
#1002=CARTESIAN_POINT('',(-14.0426952192394,1.70225905081482E-16,5.50000008195639));
#1003=CARTESIAN_POINT('',(-19.6026952192394,1.70225905081482E-16,5.50000008195639));
#1004=CARTESIAN_POINT('Origin',(-16.8226952192394,0.,5.50000008195639));
#1005=CARTESIAN_POINT('Origin',(-15.5421437947307,6.43776674813032,5.50000008195639));
#1006=CARTESIAN_POINT('',(-12.9737586943493,5.37390680615537,5.50000008195639));
#1007=CARTESIAN_POINT('',(-18.1105288951121,7.50162669010527,5.50000008195639));
#1008=CARTESIAN_POINT('Origin',(-15.5421437947307,6.43776674813032,5.50000008195639));
#1009=CARTESIAN_POINT('Origin',(-11.8954418673587,11.8954418673587,5.50000008195639));
#1010=CARTESIAN_POINT('',(-9.9296850156601,9.9296850156601,5.50000008195639));
#1011=CARTESIAN_POINT('',(-13.8611987190573,13.8611987190573,5.50000008195639));
#1012=CARTESIAN_POINT('Origin',(-11.8954418673587,11.8954418673587,5.50000008195639));
#1013=CARTESIAN_POINT('Origin',(-6.43776674813032,15.5421437947307,5.50000008195639));
#1014=CARTESIAN_POINT('',(-5.37390680615537,12.9737586943493,5.50000008195639));
#1015=CARTESIAN_POINT('',(-7.50162669010527,18.1105288951121,5.50000008195639));
#1016=CARTESIAN_POINT('Origin',(-6.43776674813032,15.5421437947307,5.50000008195639));
#1017=CARTESIAN_POINT('Origin',(-1.03009299266365E-15,16.8226952192394,
5.50000008195639));
#1018=CARTESIAN_POINT('',(-8.59867087582168E-16,14.0426952192394,5.50000008195639));
#1019=CARTESIAN_POINT('',(-8.59867087582168E-16,19.6026952192394,5.50000008195639));
#1020=CARTESIAN_POINT('Origin',(-1.03009299266365E-15,16.8226952192394,
5.50000008195639));
#1021=CARTESIAN_POINT('Origin',(6.43776674813032,15.5421437947307,5.50000008195639));
#1022=CARTESIAN_POINT('',(5.37390680615537,12.9737586943493,5.50000008195639));
#1023=CARTESIAN_POINT('',(7.50162669010527,18.1105288951121,5.50000008195639));
#1024=CARTESIAN_POINT('Origin',(6.43776674813032,15.5421437947307,5.50000008195639));
#1025=CARTESIAN_POINT('Origin',(11.8954418673587,11.8954418673587,5.50000008195639));
#1026=CARTESIAN_POINT('',(9.9296850156601,9.9296850156601,5.50000008195639));
#1027=CARTESIAN_POINT('',(13.8611987190573,13.8611987190573,5.50000008195639));
#1028=CARTESIAN_POINT('Origin',(11.8954418673587,11.8954418673587,5.50000008195639));
#1029=CARTESIAN_POINT('Origin',(15.5421437947307,6.43776674813032,5.50000008195639));
#1030=CARTESIAN_POINT('',(12.9737586943493,5.37390680615537,5.50000008195639));
#1031=CARTESIAN_POINT('',(18.1105288951121,7.50162669010527,5.50000008195639));
#1032=CARTESIAN_POINT('Origin',(15.5421437947307,6.43776674813032,5.50000008195639));
#1033=CARTESIAN_POINT('Origin',(16.8226952192394,2.0601859853273E-15,5.50000008195639));
#1034=CARTESIAN_POINT('',(14.0426952192394,1.88996008024582E-15,5.50000008195639));
#1035=CARTESIAN_POINT('',(19.6026952192394,1.88996008024582E-15,5.50000008195639));
#1036=CARTESIAN_POINT('Origin',(16.8226952192394,2.0601859853273E-15,5.50000008195639));
#1037=CARTESIAN_POINT('Origin',(15.5421437947307,-6.43776674813031,5.50000008195639));
#1038=CARTESIAN_POINT('',(12.9737586943493,-5.37390680615536,5.50000008195639));
#1039=CARTESIAN_POINT('',(18.1105288951121,-7.50162669010526,5.50000008195639));
#1040=CARTESIAN_POINT('Origin',(15.5421437947307,-6.43776674813031,5.50000008195639));
#1041=CARTESIAN_POINT('Origin',(11.8954418673587,-11.8954418673587,5.50000008195639));
#1042=CARTESIAN_POINT('',(9.9296850156601,-9.9296850156601,5.50000008195639));
#1043=CARTESIAN_POINT('',(13.8611987190573,-13.8611987190573,5.50000008195639));
#1044=CARTESIAN_POINT('Origin',(11.8954418673587,-11.8954418673587,5.50000008195639));
#1045=CARTESIAN_POINT('Origin',(6.43776674813033,-15.5421437947307,5.50000008195639));
#1046=CARTESIAN_POINT('',(5.37390680615538,-12.9737586943493,5.50000008195639));
#1047=CARTESIAN_POINT('',(7.50162669010528,-18.1105288951121,5.50000008195639));
#1048=CARTESIAN_POINT('Origin',(6.43776674813033,-15.5421437947307,5.50000008195639));
#1049=CARTESIAN_POINT('Origin',(3.09027897799095E-15,-16.8226952192394,
5.50000008195639));
#1050=CARTESIAN_POINT('',(2.92005307290947E-15,-14.0426952192394,5.50000008195639));
#1051=CARTESIAN_POINT('',(2.92005307290947E-15,-19.6026952192394,5.50000008195639));
#1052=CARTESIAN_POINT('Origin',(3.09027897799095E-15,-16.8226952192394,
5.50000008195639));
#1053=CARTESIAN_POINT('Origin',(-6.43776674813032,-15.5421437947307,5.50000008195639));
#1054=CARTESIAN_POINT('',(-5.37390680615537,-12.9737586943493,5.50000008195639));
#1055=CARTESIAN_POINT('',(-7.50162669010527,-18.1105288951121,5.50000008195639));
#1056=CARTESIAN_POINT('Origin',(-6.43776674813032,-15.5421437947307,5.50000008195639));
#1057=CARTESIAN_POINT('Origin',(-11.8954418673587,-11.8954418673587,5.50000008195639));
#1058=CARTESIAN_POINT('',(-9.9296850156601,-9.9296850156601,5.50000008195639));
#1059=CARTESIAN_POINT('',(-13.8611987190573,-13.8611987190573,5.50000008195639));
#1060=CARTESIAN_POINT('Origin',(-11.8954418673587,-11.8954418673587,5.50000008195639));
#1061=CARTESIAN_POINT('Origin',(-15.5421437947307,-6.43776674813033,5.50000008195639));
#1062=CARTESIAN_POINT('',(-12.9737586943493,-5.37390680615538,5.50000008195639));
#1063=CARTESIAN_POINT('',(-18.1105288951121,-7.50162669010528,5.50000008195639));
#1064=CARTESIAN_POINT('Origin',(-15.5421437947307,-6.43776674813033,5.50000008195639));
#1065=UNCERTAINTY_MEASURE_WITH_UNIT(LENGTH_MEASURE(0.01),#1069,
'DISTANCE_ACCURACY_VALUE',
'Maximum model space distance between geometric entities at asserted c
onnectivities');
#1066=UNCERTAINTY_MEASURE_WITH_UNIT(LENGTH_MEASURE(0.01),#1069,
'DISTANCE_ACCURACY_VALUE',
'Maximum model space distance between geometric entities at asserted c
onnectivities');
#1067=(
GEOMETRIC_REPRESENTATION_CONTEXT(3)
GLOBAL_UNCERTAINTY_ASSIGNED_CONTEXT((#1065))
GLOBAL_UNIT_ASSIGNED_CONTEXT((#1069,#1071,#1072))
REPRESENTATION_CONTEXT('','3D')
);
#1068=(
GEOMETRIC_REPRESENTATION_CONTEXT(3)
GLOBAL_UNCERTAINTY_ASSIGNED_CONTEXT((#1066))
GLOBAL_UNIT_ASSIGNED_CONTEXT((#1069,#1071,#1072))
REPRESENTATION_CONTEXT('','3D')
);
#1069=(
LENGTH_UNIT()
NAMED_UNIT(*)
SI_UNIT(.MILLI.,.METRE.)
);
#1070=(
LENGTH_UNIT()
NAMED_UNIT(*)
SI_UNIT($,.METRE.)
);
#1071=(
NAMED_UNIT(*)
PLANE_ANGLE_UNIT()
SI_UNIT($,.RADIAN.)
);
#1072=(
NAMED_UNIT(*)
SI_UNIT($,.STERADIAN.)
SOLID_ANGLE_UNIT()
);
#1073=SHAPE_DEFINITION_REPRESENTATION(#1074,#1075);
#1074=PRODUCT_DEFINITION_SHAPE('',$,#1077);
#1075=SHAPE_REPRESENTATION('',(#601),#1067);
#1076=PRODUCT_DEFINITION_CONTEXT('part definition',#1081,'design');
#1077=PRODUCT_DEFINITION('BEARING-51105','BEARING-51105 v2',#1078,#1076);
#1078=PRODUCT_DEFINITION_FORMATION('',$,#1083);
#1079=PRODUCT_RELATED_PRODUCT_CATEGORY('BEARING-51105 v2',
'BEARING-51105 v2',(#1083));
#1080=APPLICATION_PROTOCOL_DEFINITION('international standard',
'automotive_design',2009,#1081);
#1081=APPLICATION_CONTEXT(
'Core Data for Automotive Mechanical Design Process');
#1082=PRODUCT_CONTEXT('part definition',#1081,'mechanical');
#1083=PRODUCT('BEARING-51105','BEARING-51105 v2',$,(#1082));
#1084=PRESENTATION_STYLE_ASSIGNMENT((#1086));
#1085=PRESENTATION_STYLE_ASSIGNMENT((#1087));
#1086=SURFACE_STYLE_USAGE(.BOTH.,#1088);
#1087=SURFACE_STYLE_USAGE(.BOTH.,#1089);
#1088=SURFACE_SIDE_STYLE('',(#1090));
#1089=SURFACE_SIDE_STYLE('',(#1091));
#1090=SURFACE_STYLE_FILL_AREA(#1092);
#1091=SURFACE_STYLE_FILL_AREA(#1093);
#1092=FILL_AREA_STYLE('Acero - Satinado',(#1094));
#1093=FILL_AREA_STYLE('Opaque(203,203,203)',(#1095));
#1094=FILL_AREA_STYLE_COLOUR('Acero - Satinado',#1096);
#1095=FILL_AREA_STYLE_COLOUR('Opaque(203,203,203)',#1097);
#1096=COLOUR_RGB('Acero - Satinado',0.627450980392157,0.627450980392157,
0.627450980392157);
#1097=COLOUR_RGB('Opaque(203,203,203)',0.796078431372549,0.796078431372549,
0.796078431372549);
ENDSEC;
END-ISO-10303-21;
