ISO-10303-21;
HEADER;
/* Generated by software containing ST-Developer
 * from STEP Tools, Inc. (www.steptools.com) 
 */

FILE_DESCRIPTION(
/* description */ (''),
/* implementation_level */ '2;1');

FILE_NAME(
/* name */ 'LEG-HOLDER v2.step',
/* time_stamp */ '2026-06-03T00:08:25-06:00',
/* author */ (''),
/* organization */ (''),
/* preprocessor_version */ 'ST-DEVELOPER v20.1',
/* originating_system */ 'Autodesk Translation Framework v14.24.0.0',
/* authorisation */ '');

FILE_SCHEMA (('AUTOMOTIVE_DESIGN { 1 0 10303 214 3 1 1 }'));
ENDSEC;

DATA;
#10=MECHANICAL_DESIGN_GEOMETRIC_PRESENTATION_REPRESENTATION('',(#13,#14),
#1860);
#11=SHAPE_REPRESENTATION_RELATIONSHIP('SRR','None',#1867,#12);
#12=ADVANCED_BREP_SHAPE_REPRESENTATION('',(#15,#16),#1859);
#13=STYLED_ITEM('',(#1877),#15);
#14=STYLED_ITEM('',(#1877),#16);
#15=MANIFOLD_SOLID_BREP('Cuerpo1',#1051);
#16=MANIFOLD_SOLID_BREP('Cuerpo2',#1052);
#17=FACE_BOUND('',#117,.T.);
#18=FACE_BOUND('',#124,.T.);
#19=FACE_BOUND('',#131,.T.);
#20=FACE_BOUND('',#135,.T.);
#21=FACE_BOUND('',#138,.T.);
#22=FACE_BOUND('',#141,.T.);
#23=FACE_BOUND('',#148,.T.);
#24=FACE_BOUND('',#152,.T.);
#25=FACE_BOUND('',#159,.T.);
#26=FACE_BOUND('',#166,.T.);
#27=FACE_BOUND('',#170,.T.);
#28=FACE_BOUND('',#173,.T.);
#29=PLANE('',#1074);
#30=PLANE('',#1078);
#31=PLANE('',#1082);
#32=PLANE('',#1086);
#33=PLANE('',#1090);
#34=PLANE('',#1094);
#35=PLANE('',#1098);
#36=PLANE('',#1102);
#37=PLANE('',#1106);
#38=PLANE('',#1107);
#39=PLANE('',#1117);
#40=PLANE('',#1118);
#41=PLANE('',#1119);
#42=PLANE('',#1128);
#43=PLANE('',#1129);
#44=PLANE('',#1133);
#45=PLANE('',#1137);
#46=PLANE('',#1141);
#47=PLANE('',#1145);
#48=PLANE('',#1149);
#49=PLANE('',#1153);
#50=PLANE('',#1157);
#51=PLANE('',#1161);
#52=PLANE('',#1162);
#53=PLANE('',#1172);
#54=PLANE('',#1173);
#55=B_SPLINE_CURVE_WITH_KNOTS('',3,(#1498,#1499,#1500,#1501,#1502,#1503,
#1504,#1505,#1506,#1507,#1508,#1509,#1510,#1511,#1512,#1513,#1514,#1515,
#1516,#1517,#1518,#1519,#1520,#1521,#1522,#1523,#1524,#1525,#1526,#1527,
#1528,#1529,#1530,#1531),.UNSPECIFIED.,.T.,.F.,(4,2,2,2,2,2,2,2,2,2,2,2,
2,2,2,2,4),(-0.754703421017602,-0.707533972158085,-0.660364523298568,-0.613196044530885,
-0.566027565763202,-0.518859086995519,-0.471690608227835,-0.424521159368318,
-0.377351710508801,-0.330182261649284,-0.283012812789767,-0.235844334022084,
-0.188675855254401,-0.141507376486717,-0.0943388977190342,-0.0471694488595171,
0.),.UNSPECIFIED.);
#56=B_SPLINE_CURVE_WITH_KNOTS('',3,(#1680,#1681,#1682,#1683,#1684,#1685,
#1686,#1687,#1688,#1689,#1690,#1691,#1692,#1693,#1694,#1695,#1696,#1697,
#1698,#1699,#1700,#1701,#1702,#1703,#1704,#1705,#1706,#1707,#1708,#1709,
#1710,#1711,#1712,#1713),.UNSPECIFIED.,.T.,.F.,(4,2,2,2,2,2,2,2,2,2,2,2,
2,2,2,2,4),(-0.754703421017602,-0.707533972158085,-0.660364523298568,-0.613196044530885,
-0.566027565763202,-0.518859086995519,-0.471690608227836,-0.424521159368318,
-0.377351710508801,-0.330182261649284,-0.283012812789767,-0.235844334022084,
-0.188675855254401,-0.141507376486717,-0.0943388977190343,-0.0471694488595172,
0.),.UNSPECIFIED.);
#57=FACE_OUTER_BOUND('',#111,.T.);
#58=FACE_OUTER_BOUND('',#112,.T.);
#59=FACE_OUTER_BOUND('',#113,.T.);
#60=FACE_OUTER_BOUND('',#114,.T.);
#61=FACE_OUTER_BOUND('',#115,.T.);
#62=FACE_OUTER_BOUND('',#116,.T.);
#63=FACE_OUTER_BOUND('',#118,.T.);
#64=FACE_OUTER_BOUND('',#119,.T.);
#65=FACE_OUTER_BOUND('',#120,.T.);
#66=FACE_OUTER_BOUND('',#121,.T.);
#67=FACE_OUTER_BOUND('',#122,.T.);
#68=FACE_OUTER_BOUND('',#123,.T.);
#69=FACE_OUTER_BOUND('',#125,.T.);
#70=FACE_OUTER_BOUND('',#126,.T.);
#71=FACE_OUTER_BOUND('',#127,.T.);
#72=FACE_OUTER_BOUND('',#128,.T.);
#73=FACE_OUTER_BOUND('',#129,.T.);
#74=FACE_OUTER_BOUND('',#130,.T.);
#75=FACE_OUTER_BOUND('',#132,.T.);
#76=FACE_OUTER_BOUND('',#133,.T.);
#77=FACE_OUTER_BOUND('',#134,.T.);
#78=FACE_OUTER_BOUND('',#136,.T.);
#79=FACE_OUTER_BOUND('',#137,.T.);
#80=FACE_OUTER_BOUND('',#139,.T.);
#81=FACE_OUTER_BOUND('',#140,.T.);
#82=FACE_OUTER_BOUND('',#142,.T.);
#83=FACE_OUTER_BOUND('',#143,.T.);
#84=FACE_OUTER_BOUND('',#144,.T.);
#85=FACE_OUTER_BOUND('',#145,.T.);
#86=FACE_OUTER_BOUND('',#146,.T.);
#87=FACE_OUTER_BOUND('',#147,.T.);
#88=FACE_OUTER_BOUND('',#149,.T.);
#89=FACE_OUTER_BOUND('',#150,.T.);
#90=FACE_OUTER_BOUND('',#151,.T.);
#91=FACE_OUTER_BOUND('',#153,.T.);
#92=FACE_OUTER_BOUND('',#154,.T.);
#93=FACE_OUTER_BOUND('',#155,.T.);
#94=FACE_OUTER_BOUND('',#156,.T.);
#95=FACE_OUTER_BOUND('',#157,.T.);
#96=FACE_OUTER_BOUND('',#158,.T.);
#97=FACE_OUTER_BOUND('',#160,.T.);
#98=FACE_OUTER_BOUND('',#161,.T.);
#99=FACE_OUTER_BOUND('',#162,.T.);
#100=FACE_OUTER_BOUND('',#163,.T.);
#101=FACE_OUTER_BOUND('',#164,.T.);
#102=FACE_OUTER_BOUND('',#165,.T.);
#103=FACE_OUTER_BOUND('',#167,.T.);
#104=FACE_OUTER_BOUND('',#168,.T.);
#105=FACE_OUTER_BOUND('',#169,.T.);
#106=FACE_OUTER_BOUND('',#171,.T.);
#107=FACE_OUTER_BOUND('',#172,.T.);
#108=FACE_OUTER_BOUND('',#174,.T.);
#109=FACE_OUTER_BOUND('',#175,.T.);
#110=FACE_OUTER_BOUND('',#176,.T.);
#111=EDGE_LOOP('',(#669,#670,#671,#672));
#112=EDGE_LOOP('',(#673,#674,#675,#676));
#113=EDGE_LOOP('',(#677,#678,#679,#680));
#114=EDGE_LOOP('',(#681,#682,#683,#684));
#115=EDGE_LOOP('',(#685,#686,#687,#688));
#116=EDGE_LOOP('',(#689,#690,#691,#692));
#117=EDGE_LOOP('',(#693));
#118=EDGE_LOOP('',(#694,#695,#696,#697));
#119=EDGE_LOOP('',(#698,#699,#700,#701));
#120=EDGE_LOOP('',(#702,#703,#704,#705));
#121=EDGE_LOOP('',(#706,#707,#708,#709));
#122=EDGE_LOOP('',(#710,#711,#712,#713));
#123=EDGE_LOOP('',(#714,#715,#716,#717));
#124=EDGE_LOOP('',(#718));
#125=EDGE_LOOP('',(#719,#720,#721,#722));
#126=EDGE_LOOP('',(#723,#724,#725,#726));
#127=EDGE_LOOP('',(#727,#728,#729,#730));
#128=EDGE_LOOP('',(#731,#732,#733,#734));
#129=EDGE_LOOP('',(#735,#736,#737,#738));
#130=EDGE_LOOP('',(#739,#740,#741,#742));
#131=EDGE_LOOP('',(#743));
#132=EDGE_LOOP('',(#744,#745,#746,#747));
#133=EDGE_LOOP('',(#748,#749,#750,#751));
#134=EDGE_LOOP('',(#752,#753,#754,#755));
#135=EDGE_LOOP('',(#756));
#136=EDGE_LOOP('',(#757,#758,#759,#760));
#137=EDGE_LOOP('',(#761,#762,#763,#764));
#138=EDGE_LOOP('',(#765));
#139=EDGE_LOOP('',(#766,#767,#768,#769));
#140=EDGE_LOOP('',(#770,#771,#772,#773));
#141=EDGE_LOOP('',(#774));
#142=EDGE_LOOP('',(#775,#776,#777,#778,#779,#780,#781,#782,#783,#784,#785,
#786,#787,#788,#789,#790,#791,#792,#793,#794,#795,#796));
#143=EDGE_LOOP('',(#797,#798,#799,#800,#801,#802,#803,#804,#805,#806,#807,
#808,#809,#810,#811,#812,#813,#814,#815,#816,#817,#818));
#144=EDGE_LOOP('',(#819,#820,#821,#822));
#145=EDGE_LOOP('',(#823,#824,#825,#826));
#146=EDGE_LOOP('',(#827,#828,#829,#830));
#147=EDGE_LOOP('',(#831,#832,#833,#834));
#148=EDGE_LOOP('',(#835));
#149=EDGE_LOOP('',(#836,#837,#838,#839));
#150=EDGE_LOOP('',(#840,#841,#842,#843));
#151=EDGE_LOOP('',(#844,#845,#846,#847));
#152=EDGE_LOOP('',(#848));
#153=EDGE_LOOP('',(#849,#850,#851,#852));
#154=EDGE_LOOP('',(#853,#854,#855,#856));
#155=EDGE_LOOP('',(#857,#858,#859,#860));
#156=EDGE_LOOP('',(#861,#862,#863,#864));
#157=EDGE_LOOP('',(#865,#866,#867,#868));
#158=EDGE_LOOP('',(#869,#870,#871,#872));
#159=EDGE_LOOP('',(#873));
#160=EDGE_LOOP('',(#874,#875,#876,#877));
#161=EDGE_LOOP('',(#878,#879,#880,#881));
#162=EDGE_LOOP('',(#882,#883,#884,#885));
#163=EDGE_LOOP('',(#886,#887,#888,#889));
#164=EDGE_LOOP('',(#890,#891,#892,#893));
#165=EDGE_LOOP('',(#894,#895,#896,#897));
#166=EDGE_LOOP('',(#898));
#167=EDGE_LOOP('',(#899,#900,#901,#902));
#168=EDGE_LOOP('',(#903,#904,#905,#906));
#169=EDGE_LOOP('',(#907,#908,#909,#910));
#170=EDGE_LOOP('',(#911));
#171=EDGE_LOOP('',(#912,#913,#914,#915));
#172=EDGE_LOOP('',(#916,#917,#918,#919));
#173=EDGE_LOOP('',(#920));
#174=EDGE_LOOP('',(#921,#922,#923,#924));
#175=EDGE_LOOP('',(#925,#926,#927,#928,#929,#930,#931,#932,#933,#934,#935,
#936,#937,#938,#939,#940,#941,#942,#943,#944,#945,#946));
#176=EDGE_LOOP('',(#947,#948,#949,#950,#951,#952,#953,#954,#955,#956,#957,
#958,#959,#960,#961,#962,#963,#964,#965,#966,#967,#968));
#177=LINE('',#1491,#271);
#178=LINE('',#1497,#272);
#179=LINE('',#1536,#273);
#180=LINE('',#1541,#274);
#181=LINE('',#1543,#275);
#182=LINE('',#1545,#276);
#183=LINE('',#1546,#277);
#184=LINE('',#1552,#278);
#185=LINE('',#1555,#279);
#186=LINE('',#1557,#280);
#187=LINE('',#1558,#281);
#188=LINE('',#1564,#282);
#189=LINE('',#1567,#283);
#190=LINE('',#1569,#284);
#191=LINE('',#1570,#285);
#192=LINE('',#1576,#286);
#193=LINE('',#1579,#287);
#194=LINE('',#1581,#288);
#195=LINE('',#1582,#289);
#196=LINE('',#1588,#290);
#197=LINE('',#1591,#291);
#198=LINE('',#1593,#292);
#199=LINE('',#1594,#293);
#200=LINE('',#1600,#294);
#201=LINE('',#1603,#295);
#202=LINE('',#1605,#296);
#203=LINE('',#1606,#297);
#204=LINE('',#1612,#298);
#205=LINE('',#1615,#299);
#206=LINE('',#1617,#300);
#207=LINE('',#1618,#301);
#208=LINE('',#1624,#302);
#209=LINE('',#1627,#303);
#210=LINE('',#1629,#304);
#211=LINE('',#1630,#305);
#212=LINE('',#1636,#306);
#213=LINE('',#1639,#307);
#214=LINE('',#1641,#308);
#215=LINE('',#1642,#309);
#216=LINE('',#1645,#310);
#217=LINE('',#1647,#311);
#218=LINE('',#1648,#312);
#219=LINE('',#1654,#313);
#220=LINE('',#1660,#314);
#221=LINE('',#1666,#315);
#222=LINE('',#1668,#316);
#223=LINE('',#1669,#317);
#224=LINE('',#1676,#318);
#225=LINE('',#1715,#319);
#226=LINE('',#1721,#320);
#227=LINE('',#1726,#321);
#228=LINE('',#1728,#322);
#229=LINE('',#1730,#323);
#230=LINE('',#1731,#324);
#231=LINE('',#1734,#325);
#232=LINE('',#1736,#326);
#233=LINE('',#1737,#327);
#234=LINE('',#1743,#328);
#235=LINE('',#1746,#329);
#236=LINE('',#1748,#330);
#237=LINE('',#1749,#331);
#238=LINE('',#1755,#332);
#239=LINE('',#1758,#333);
#240=LINE('',#1760,#334);
#241=LINE('',#1761,#335);
#242=LINE('',#1767,#336);
#243=LINE('',#1770,#337);
#244=LINE('',#1772,#338);
#245=LINE('',#1773,#339);
#246=LINE('',#1779,#340);
#247=LINE('',#1782,#341);
#248=LINE('',#1784,#342);
#249=LINE('',#1785,#343);
#250=LINE('',#1791,#344);
#251=LINE('',#1794,#345);
#252=LINE('',#1796,#346);
#253=LINE('',#1797,#347);
#254=LINE('',#1803,#348);
#255=LINE('',#1806,#349);
#256=LINE('',#1808,#350);
#257=LINE('',#1809,#351);
#258=LINE('',#1815,#352);
#259=LINE('',#1818,#353);
#260=LINE('',#1820,#354);
#261=LINE('',#1821,#355);
#262=LINE('',#1827,#356);
#263=LINE('',#1830,#357);
#264=LINE('',#1832,#358);
#265=LINE('',#1833,#359);
#266=LINE('',#1836,#360);
#267=LINE('',#1838,#361);
#268=LINE('',#1839,#362);
#269=LINE('',#1845,#363);
#270=LINE('',#1851,#364);
#271=VECTOR('',#1180,1.5);
#272=VECTOR('',#1187,1.25);
#273=VECTOR('',#1192,1.5);
#274=VECTOR('',#1197,10.);
#275=VECTOR('',#1198,10.);
#276=VECTOR('',#1199,10.);
#277=VECTOR('',#1200,10.);
#278=VECTOR('',#1207,10.);
#279=VECTOR('',#1210,10.);
#280=VECTOR('',#1211,10.);
#281=VECTOR('',#1212,10.);
#282=VECTOR('',#1219,10.);
#283=VECTOR('',#1222,10.);
#284=VECTOR('',#1223,10.);
#285=VECTOR('',#1224,10.);
#286=VECTOR('',#1231,10.);
#287=VECTOR('',#1234,10.);
#288=VECTOR('',#1235,10.);
#289=VECTOR('',#1236,10.);
#290=VECTOR('',#1243,10.);
#291=VECTOR('',#1246,10.);
#292=VECTOR('',#1247,10.);
#293=VECTOR('',#1248,10.);
#294=VECTOR('',#1255,10.);
#295=VECTOR('',#1258,9.99999999999999);
#296=VECTOR('',#1259,9.99999999999999);
#297=VECTOR('',#1260,10.);
#298=VECTOR('',#1267,10.);
#299=VECTOR('',#1270,10.);
#300=VECTOR('',#1271,10.);
#301=VECTOR('',#1272,10.);
#302=VECTOR('',#1279,10.);
#303=VECTOR('',#1282,10.);
#304=VECTOR('',#1283,10.);
#305=VECTOR('',#1284,10.);
#306=VECTOR('',#1291,10.);
#307=VECTOR('',#1294,10.);
#308=VECTOR('',#1295,10.);
#309=VECTOR('',#1296,10.);
#310=VECTOR('',#1299,10.);
#311=VECTOR('',#1300,10.);
#312=VECTOR('',#1301,10.);
#313=VECTOR('',#1308,10.);
#314=VECTOR('',#1315,10.);
#315=VECTOR('',#1322,10.);
#316=VECTOR('',#1325,10.);
#317=VECTOR('',#1326,10.);
#318=VECTOR('',#1335,1.5);
#319=VECTOR('',#1340,1.25);
#320=VECTOR('',#1347,1.5);
#321=VECTOR('',#1352,10.);
#322=VECTOR('',#1353,10.);
#323=VECTOR('',#1354,10.);
#324=VECTOR('',#1355,10.);
#325=VECTOR('',#1358,10.);
#326=VECTOR('',#1359,10.);
#327=VECTOR('',#1360,10.);
#328=VECTOR('',#1367,10.);
#329=VECTOR('',#1370,10.);
#330=VECTOR('',#1371,10.);
#331=VECTOR('',#1372,10.);
#332=VECTOR('',#1379,10.);
#333=VECTOR('',#1382,10.);
#334=VECTOR('',#1383,10.);
#335=VECTOR('',#1384,10.);
#336=VECTOR('',#1391,10.);
#337=VECTOR('',#1394,10.);
#338=VECTOR('',#1395,10.);
#339=VECTOR('',#1396,10.);
#340=VECTOR('',#1403,10.);
#341=VECTOR('',#1406,10.);
#342=VECTOR('',#1407,10.);
#343=VECTOR('',#1408,10.);
#344=VECTOR('',#1415,10.);
#345=VECTOR('',#1418,10.);
#346=VECTOR('',#1419,10.);
#347=VECTOR('',#1420,10.);
#348=VECTOR('',#1427,10.);
#349=VECTOR('',#1430,10.);
#350=VECTOR('',#1431,10.);
#351=VECTOR('',#1432,10.);
#352=VECTOR('',#1439,10.);
#353=VECTOR('',#1442,10.);
#354=VECTOR('',#1443,10.);
#355=VECTOR('',#1444,10.);
#356=VECTOR('',#1451,10.);
#357=VECTOR('',#1454,10.);
#358=VECTOR('',#1455,10.);
#359=VECTOR('',#1456,10.);
#360=VECTOR('',#1459,10.);
#361=VECTOR('',#1460,10.);
#362=VECTOR('',#1461,10.);
#363=VECTOR('',#1468,10.);
#364=VECTOR('',#1475,10.);
#365=CIRCLE('',#1067,1.5);
#366=CIRCLE('',#1068,1.5);
#367=CIRCLE('',#1070,1.25);
#368=CIRCLE('',#1072,1.5);
#369=CIRCLE('',#1073,1.5);
#370=CIRCLE('',#1076,0.300000000000002);
#371=CIRCLE('',#1077,0.300000000000002);
#372=CIRCLE('',#1080,0.300000000000001);
#373=CIRCLE('',#1081,0.300000000000001);
#374=CIRCLE('',#1084,0.299999999999999);
#375=CIRCLE('',#1085,0.299999999999999);
#376=CIRCLE('',#1088,7.00000000000001);
#377=CIRCLE('',#1089,7.00000000000001);
#378=CIRCLE('',#1092,7.00000000000001);
#379=CIRCLE('',#1093,7.00000000000001);
#380=CIRCLE('',#1096,0.299999999999998);
#381=CIRCLE('',#1097,0.299999999999998);
#382=CIRCLE('',#1100,0.300000000000002);
#383=CIRCLE('',#1101,0.300000000000002);
#384=CIRCLE('',#1104,0.3);
#385=CIRCLE('',#1105,0.3);
#386=CIRCLE('',#1109,1.);
#387=CIRCLE('',#1110,1.);
#388=CIRCLE('',#1112,8.);
#389=CIRCLE('',#1113,8.);
#390=CIRCLE('',#1115,1.);
#391=CIRCLE('',#1116,1.);
#392=CIRCLE('',#1121,1.5);
#393=CIRCLE('',#1122,1.5);
#394=CIRCLE('',#1124,1.25);
#395=CIRCLE('',#1126,1.5);
#396=CIRCLE('',#1127,1.5);
#397=CIRCLE('',#1131,0.3);
#398=CIRCLE('',#1132,0.3);
#399=CIRCLE('',#1135,0.300000000000001);
#400=CIRCLE('',#1136,0.300000000000001);
#401=CIRCLE('',#1139,0.299999999999999);
#402=CIRCLE('',#1140,0.299999999999999);
#403=CIRCLE('',#1143,7.00000000000001);
#404=CIRCLE('',#1144,7.00000000000001);
#405=CIRCLE('',#1147,7.00000000000001);
#406=CIRCLE('',#1148,7.00000000000001);
#407=CIRCLE('',#1151,0.299999999999999);
#408=CIRCLE('',#1152,0.299999999999999);
#409=CIRCLE('',#1155,0.300000000000002);
#410=CIRCLE('',#1156,0.300000000000002);
#411=CIRCLE('',#1159,0.3);
#412=CIRCLE('',#1160,0.3);
#413=CIRCLE('',#1164,1.);
#414=CIRCLE('',#1165,1.);
#415=CIRCLE('',#1167,8.);
#416=CIRCLE('',#1168,8.);
#417=CIRCLE('',#1170,0.999999999999998);
#418=CIRCLE('',#1171,0.999999999999998);
#419=VERTEX_POINT('',#1488);
#420=VERTEX_POINT('',#1490);
#421=VERTEX_POINT('',#1494);
#422=VERTEX_POINT('',#1496);
#423=VERTEX_POINT('',#1533);
#424=VERTEX_POINT('',#1535);
#425=VERTEX_POINT('',#1539);
#426=VERTEX_POINT('',#1540);
#427=VERTEX_POINT('',#1542);
#428=VERTEX_POINT('',#1544);
#429=VERTEX_POINT('',#1548);
#430=VERTEX_POINT('',#1550);
#431=VERTEX_POINT('',#1554);
#432=VERTEX_POINT('',#1556);
#433=VERTEX_POINT('',#1560);
#434=VERTEX_POINT('',#1562);
#435=VERTEX_POINT('',#1566);
#436=VERTEX_POINT('',#1568);
#437=VERTEX_POINT('',#1572);
#438=VERTEX_POINT('',#1574);
#439=VERTEX_POINT('',#1578);
#440=VERTEX_POINT('',#1580);
#441=VERTEX_POINT('',#1584);
#442=VERTEX_POINT('',#1586);
#443=VERTEX_POINT('',#1590);
#444=VERTEX_POINT('',#1592);
#445=VERTEX_POINT('',#1596);
#446=VERTEX_POINT('',#1598);
#447=VERTEX_POINT('',#1602);
#448=VERTEX_POINT('',#1604);
#449=VERTEX_POINT('',#1608);
#450=VERTEX_POINT('',#1610);
#451=VERTEX_POINT('',#1614);
#452=VERTEX_POINT('',#1616);
#453=VERTEX_POINT('',#1620);
#454=VERTEX_POINT('',#1622);
#455=VERTEX_POINT('',#1626);
#456=VERTEX_POINT('',#1628);
#457=VERTEX_POINT('',#1632);
#458=VERTEX_POINT('',#1634);
#459=VERTEX_POINT('',#1638);
#460=VERTEX_POINT('',#1640);
#461=VERTEX_POINT('',#1644);
#462=VERTEX_POINT('',#1646);
#463=VERTEX_POINT('',#1650);
#464=VERTEX_POINT('',#1652);
#465=VERTEX_POINT('',#1656);
#466=VERTEX_POINT('',#1658);
#467=VERTEX_POINT('',#1662);
#468=VERTEX_POINT('',#1664);
#469=VERTEX_POINT('',#1673);
#470=VERTEX_POINT('',#1675);
#471=VERTEX_POINT('',#1679);
#472=VERTEX_POINT('',#1714);
#473=VERTEX_POINT('',#1718);
#474=VERTEX_POINT('',#1720);
#475=VERTEX_POINT('',#1724);
#476=VERTEX_POINT('',#1725);
#477=VERTEX_POINT('',#1727);
#478=VERTEX_POINT('',#1729);
#479=VERTEX_POINT('',#1733);
#480=VERTEX_POINT('',#1735);
#481=VERTEX_POINT('',#1739);
#482=VERTEX_POINT('',#1741);
#483=VERTEX_POINT('',#1745);
#484=VERTEX_POINT('',#1747);
#485=VERTEX_POINT('',#1751);
#486=VERTEX_POINT('',#1753);
#487=VERTEX_POINT('',#1757);
#488=VERTEX_POINT('',#1759);
#489=VERTEX_POINT('',#1763);
#490=VERTEX_POINT('',#1765);
#491=VERTEX_POINT('',#1769);
#492=VERTEX_POINT('',#1771);
#493=VERTEX_POINT('',#1775);
#494=VERTEX_POINT('',#1777);
#495=VERTEX_POINT('',#1781);
#496=VERTEX_POINT('',#1783);
#497=VERTEX_POINT('',#1787);
#498=VERTEX_POINT('',#1789);
#499=VERTEX_POINT('',#1793);
#500=VERTEX_POINT('',#1795);
#501=VERTEX_POINT('',#1799);
#502=VERTEX_POINT('',#1801);
#503=VERTEX_POINT('',#1805);
#504=VERTEX_POINT('',#1807);
#505=VERTEX_POINT('',#1811);
#506=VERTEX_POINT('',#1813);
#507=VERTEX_POINT('',#1817);
#508=VERTEX_POINT('',#1819);
#509=VERTEX_POINT('',#1823);
#510=VERTEX_POINT('',#1825);
#511=VERTEX_POINT('',#1829);
#512=VERTEX_POINT('',#1831);
#513=VERTEX_POINT('',#1835);
#514=VERTEX_POINT('',#1837);
#515=VERTEX_POINT('',#1841);
#516=VERTEX_POINT('',#1843);
#517=VERTEX_POINT('',#1847);
#518=VERTEX_POINT('',#1849);
#519=EDGE_CURVE('',#419,#419,#365,.T.);
#520=EDGE_CURVE('',#419,#420,#177,.T.);
#521=EDGE_CURVE('',#420,#420,#366,.T.);
#522=EDGE_CURVE('',#421,#421,#367,.T.);
#523=EDGE_CURVE('',#421,#422,#178,.T.);
#524=EDGE_CURVE('',#422,#422,#55,.T.);
#525=EDGE_CURVE('',#423,#423,#368,.T.);
#526=EDGE_CURVE('',#423,#424,#179,.T.);
#527=EDGE_CURVE('',#424,#424,#369,.T.);
#528=EDGE_CURVE('',#425,#426,#180,.T.);
#529=EDGE_CURVE('',#425,#427,#181,.T.);
#530=EDGE_CURVE('',#428,#427,#182,.T.);
#531=EDGE_CURVE('',#426,#428,#183,.T.);
#532=EDGE_CURVE('',#429,#426,#370,.T.);
#533=EDGE_CURVE('',#430,#428,#371,.T.);
#534=EDGE_CURVE('',#429,#430,#184,.T.);
#535=EDGE_CURVE('',#429,#431,#185,.T.);
#536=EDGE_CURVE('',#432,#430,#186,.T.);
#537=EDGE_CURVE('',#431,#432,#187,.T.);
#538=EDGE_CURVE('',#433,#431,#372,.T.);
#539=EDGE_CURVE('',#434,#432,#373,.T.);
#540=EDGE_CURVE('',#433,#434,#188,.T.);
#541=EDGE_CURVE('',#433,#435,#189,.T.);
#542=EDGE_CURVE('',#436,#434,#190,.T.);
#543=EDGE_CURVE('',#435,#436,#191,.T.);
#544=EDGE_CURVE('',#435,#437,#374,.T.);
#545=EDGE_CURVE('',#438,#436,#375,.T.);
#546=EDGE_CURVE('',#437,#438,#192,.T.);
#547=EDGE_CURVE('',#439,#437,#193,.T.);
#548=EDGE_CURVE('',#440,#438,#194,.T.);
#549=EDGE_CURVE('',#439,#440,#195,.T.);
#550=EDGE_CURVE('',#441,#439,#376,.T.);
#551=EDGE_CURVE('',#442,#440,#377,.T.);
#552=EDGE_CURVE('',#441,#442,#196,.T.);
#553=EDGE_CURVE('',#441,#443,#197,.T.);
#554=EDGE_CURVE('',#444,#442,#198,.T.);
#555=EDGE_CURVE('',#443,#444,#199,.T.);
#556=EDGE_CURVE('',#445,#443,#378,.T.);
#557=EDGE_CURVE('',#446,#444,#379,.T.);
#558=EDGE_CURVE('',#445,#446,#200,.T.);
#559=EDGE_CURVE('',#445,#447,#201,.T.);
#560=EDGE_CURVE('',#448,#446,#202,.T.);
#561=EDGE_CURVE('',#447,#448,#203,.T.);
#562=EDGE_CURVE('',#447,#449,#380,.T.);
#563=EDGE_CURVE('',#450,#448,#381,.T.);
#564=EDGE_CURVE('',#449,#450,#204,.T.);
#565=EDGE_CURVE('',#451,#449,#205,.T.);
#566=EDGE_CURVE('',#452,#450,#206,.T.);
#567=EDGE_CURVE('',#451,#452,#207,.T.);
#568=EDGE_CURVE('',#453,#451,#382,.T.);
#569=EDGE_CURVE('',#454,#452,#383,.T.);
#570=EDGE_CURVE('',#453,#454,#208,.T.);
#571=EDGE_CURVE('',#455,#453,#209,.T.);
#572=EDGE_CURVE('',#456,#454,#210,.T.);
#573=EDGE_CURVE('',#455,#456,#211,.T.);
#574=EDGE_CURVE('',#457,#455,#384,.T.);
#575=EDGE_CURVE('',#458,#456,#385,.T.);
#576=EDGE_CURVE('',#457,#458,#212,.T.);
#577=EDGE_CURVE('',#457,#459,#213,.T.);
#578=EDGE_CURVE('',#460,#458,#214,.T.);
#579=EDGE_CURVE('',#459,#460,#215,.T.);
#580=EDGE_CURVE('',#461,#459,#216,.T.);
#581=EDGE_CURVE('',#462,#460,#217,.T.);
#582=EDGE_CURVE('',#461,#462,#218,.T.);
#583=EDGE_CURVE('',#463,#461,#386,.T.);
#584=EDGE_CURVE('',#464,#462,#387,.T.);
#585=EDGE_CURVE('',#463,#464,#219,.T.);
#586=EDGE_CURVE('',#463,#465,#388,.T.);
#587=EDGE_CURVE('',#466,#464,#389,.T.);
#588=EDGE_CURVE('',#465,#466,#220,.T.);
#589=EDGE_CURVE('',#467,#465,#390,.T.);
#590=EDGE_CURVE('',#468,#466,#391,.T.);
#591=EDGE_CURVE('',#467,#468,#221,.T.);
#592=EDGE_CURVE('',#425,#467,#222,.T.);
#593=EDGE_CURVE('',#427,#468,#223,.T.);
#594=EDGE_CURVE('',#469,#469,#392,.T.);
#595=EDGE_CURVE('',#469,#470,#224,.T.);
#596=EDGE_CURVE('',#470,#470,#393,.T.);
#597=EDGE_CURVE('',#471,#471,#56,.T.);
#598=EDGE_CURVE('',#471,#472,#225,.T.);
#599=EDGE_CURVE('',#472,#472,#394,.T.);
#600=EDGE_CURVE('',#473,#473,#395,.T.);
#601=EDGE_CURVE('',#473,#474,#226,.T.);
#602=EDGE_CURVE('',#474,#474,#396,.T.);
#603=EDGE_CURVE('',#475,#476,#227,.T.);
#604=EDGE_CURVE('',#475,#477,#228,.T.);
#605=EDGE_CURVE('',#478,#477,#229,.T.);
#606=EDGE_CURVE('',#476,#478,#230,.T.);
#607=EDGE_CURVE('',#476,#479,#231,.T.);
#608=EDGE_CURVE('',#480,#478,#232,.T.);
#609=EDGE_CURVE('',#479,#480,#233,.T.);
#610=EDGE_CURVE('',#481,#479,#397,.T.);
#611=EDGE_CURVE('',#482,#480,#398,.T.);
#612=EDGE_CURVE('',#481,#482,#234,.T.);
#613=EDGE_CURVE('',#481,#483,#235,.T.);
#614=EDGE_CURVE('',#484,#482,#236,.T.);
#615=EDGE_CURVE('',#483,#484,#237,.T.);
#616=EDGE_CURVE('',#485,#483,#399,.T.);
#617=EDGE_CURVE('',#486,#484,#400,.T.);
#618=EDGE_CURVE('',#485,#486,#238,.T.);
#619=EDGE_CURVE('',#485,#487,#239,.T.);
#620=EDGE_CURVE('',#488,#486,#240,.T.);
#621=EDGE_CURVE('',#487,#488,#241,.T.);
#622=EDGE_CURVE('',#487,#489,#401,.T.);
#623=EDGE_CURVE('',#490,#488,#402,.T.);
#624=EDGE_CURVE('',#489,#490,#242,.T.);
#625=EDGE_CURVE('',#491,#489,#243,.T.);
#626=EDGE_CURVE('',#492,#490,#244,.T.);
#627=EDGE_CURVE('',#491,#492,#245,.T.);
#628=EDGE_CURVE('',#493,#491,#403,.T.);
#629=EDGE_CURVE('',#494,#492,#404,.T.);
#630=EDGE_CURVE('',#493,#494,#246,.T.);
#631=EDGE_CURVE('',#493,#495,#247,.T.);
#632=EDGE_CURVE('',#496,#494,#248,.T.);
#633=EDGE_CURVE('',#495,#496,#249,.T.);
#634=EDGE_CURVE('',#497,#495,#405,.T.);
#635=EDGE_CURVE('',#498,#496,#406,.T.);
#636=EDGE_CURVE('',#497,#498,#250,.T.);
#637=EDGE_CURVE('',#497,#499,#251,.T.);
#638=EDGE_CURVE('',#500,#498,#252,.T.);
#639=EDGE_CURVE('',#499,#500,#253,.T.);
#640=EDGE_CURVE('',#499,#501,#407,.T.);
#641=EDGE_CURVE('',#502,#500,#408,.T.);
#642=EDGE_CURVE('',#501,#502,#254,.T.);
#643=EDGE_CURVE('',#503,#501,#255,.T.);
#644=EDGE_CURVE('',#504,#502,#256,.T.);
#645=EDGE_CURVE('',#503,#504,#257,.T.);
#646=EDGE_CURVE('',#505,#503,#409,.T.);
#647=EDGE_CURVE('',#506,#504,#410,.T.);
#648=EDGE_CURVE('',#505,#506,#258,.T.);
#649=EDGE_CURVE('',#507,#505,#259,.T.);
#650=EDGE_CURVE('',#508,#506,#260,.T.);
#651=EDGE_CURVE('',#507,#508,#261,.T.);
#652=EDGE_CURVE('',#509,#507,#411,.T.);
#653=EDGE_CURVE('',#510,#508,#412,.T.);
#654=EDGE_CURVE('',#509,#510,#262,.T.);
#655=EDGE_CURVE('',#509,#511,#263,.T.);
#656=EDGE_CURVE('',#512,#510,#264,.T.);
#657=EDGE_CURVE('',#511,#512,#265,.T.);
#658=EDGE_CURVE('',#511,#513,#266,.T.);
#659=EDGE_CURVE('',#514,#512,#267,.T.);
#660=EDGE_CURVE('',#513,#514,#268,.T.);
#661=EDGE_CURVE('',#515,#513,#413,.T.);
#662=EDGE_CURVE('',#516,#514,#414,.T.);
#663=EDGE_CURVE('',#515,#516,#269,.T.);
#664=EDGE_CURVE('',#515,#517,#415,.T.);
#665=EDGE_CURVE('',#518,#516,#416,.T.);
#666=EDGE_CURVE('',#517,#518,#270,.T.);
#667=EDGE_CURVE('',#475,#517,#417,.T.);
#668=EDGE_CURVE('',#477,#518,#418,.T.);
#669=ORIENTED_EDGE('',*,*,#519,.F.);
#670=ORIENTED_EDGE('',*,*,#520,.T.);
#671=ORIENTED_EDGE('',*,*,#521,.F.);
#672=ORIENTED_EDGE('',*,*,#520,.F.);
#673=ORIENTED_EDGE('',*,*,#522,.F.);
#674=ORIENTED_EDGE('',*,*,#523,.T.);
#675=ORIENTED_EDGE('',*,*,#524,.F.);
#676=ORIENTED_EDGE('',*,*,#523,.F.);
#677=ORIENTED_EDGE('',*,*,#525,.F.);
#678=ORIENTED_EDGE('',*,*,#526,.T.);
#679=ORIENTED_EDGE('',*,*,#527,.F.);
#680=ORIENTED_EDGE('',*,*,#526,.F.);
#681=ORIENTED_EDGE('',*,*,#528,.F.);
#682=ORIENTED_EDGE('',*,*,#529,.T.);
#683=ORIENTED_EDGE('',*,*,#530,.F.);
#684=ORIENTED_EDGE('',*,*,#531,.F.);
#685=ORIENTED_EDGE('',*,*,#532,.T.);
#686=ORIENTED_EDGE('',*,*,#531,.T.);
#687=ORIENTED_EDGE('',*,*,#533,.F.);
#688=ORIENTED_EDGE('',*,*,#534,.F.);
#689=ORIENTED_EDGE('',*,*,#535,.F.);
#690=ORIENTED_EDGE('',*,*,#534,.T.);
#691=ORIENTED_EDGE('',*,*,#536,.F.);
#692=ORIENTED_EDGE('',*,*,#537,.F.);
#693=ORIENTED_EDGE('',*,*,#525,.T.);
#694=ORIENTED_EDGE('',*,*,#538,.T.);
#695=ORIENTED_EDGE('',*,*,#537,.T.);
#696=ORIENTED_EDGE('',*,*,#539,.F.);
#697=ORIENTED_EDGE('',*,*,#540,.F.);
#698=ORIENTED_EDGE('',*,*,#541,.F.);
#699=ORIENTED_EDGE('',*,*,#540,.T.);
#700=ORIENTED_EDGE('',*,*,#542,.F.);
#701=ORIENTED_EDGE('',*,*,#543,.F.);
#702=ORIENTED_EDGE('',*,*,#544,.F.);
#703=ORIENTED_EDGE('',*,*,#543,.T.);
#704=ORIENTED_EDGE('',*,*,#545,.F.);
#705=ORIENTED_EDGE('',*,*,#546,.F.);
#706=ORIENTED_EDGE('',*,*,#547,.T.);
#707=ORIENTED_EDGE('',*,*,#546,.T.);
#708=ORIENTED_EDGE('',*,*,#548,.F.);
#709=ORIENTED_EDGE('',*,*,#549,.F.);
#710=ORIENTED_EDGE('',*,*,#550,.T.);
#711=ORIENTED_EDGE('',*,*,#549,.T.);
#712=ORIENTED_EDGE('',*,*,#551,.F.);
#713=ORIENTED_EDGE('',*,*,#552,.F.);
#714=ORIENTED_EDGE('',*,*,#553,.F.);
#715=ORIENTED_EDGE('',*,*,#552,.T.);
#716=ORIENTED_EDGE('',*,*,#554,.F.);
#717=ORIENTED_EDGE('',*,*,#555,.F.);
#718=ORIENTED_EDGE('',*,*,#522,.T.);
#719=ORIENTED_EDGE('',*,*,#556,.T.);
#720=ORIENTED_EDGE('',*,*,#555,.T.);
#721=ORIENTED_EDGE('',*,*,#557,.F.);
#722=ORIENTED_EDGE('',*,*,#558,.F.);
#723=ORIENTED_EDGE('',*,*,#559,.F.);
#724=ORIENTED_EDGE('',*,*,#558,.T.);
#725=ORIENTED_EDGE('',*,*,#560,.F.);
#726=ORIENTED_EDGE('',*,*,#561,.F.);
#727=ORIENTED_EDGE('',*,*,#562,.F.);
#728=ORIENTED_EDGE('',*,*,#561,.T.);
#729=ORIENTED_EDGE('',*,*,#563,.F.);
#730=ORIENTED_EDGE('',*,*,#564,.F.);
#731=ORIENTED_EDGE('',*,*,#565,.T.);
#732=ORIENTED_EDGE('',*,*,#564,.T.);
#733=ORIENTED_EDGE('',*,*,#566,.F.);
#734=ORIENTED_EDGE('',*,*,#567,.F.);
#735=ORIENTED_EDGE('',*,*,#568,.T.);
#736=ORIENTED_EDGE('',*,*,#567,.T.);
#737=ORIENTED_EDGE('',*,*,#569,.F.);
#738=ORIENTED_EDGE('',*,*,#570,.F.);
#739=ORIENTED_EDGE('',*,*,#571,.T.);
#740=ORIENTED_EDGE('',*,*,#570,.T.);
#741=ORIENTED_EDGE('',*,*,#572,.F.);
#742=ORIENTED_EDGE('',*,*,#573,.F.);
#743=ORIENTED_EDGE('',*,*,#519,.T.);
#744=ORIENTED_EDGE('',*,*,#574,.T.);
#745=ORIENTED_EDGE('',*,*,#573,.T.);
#746=ORIENTED_EDGE('',*,*,#575,.F.);
#747=ORIENTED_EDGE('',*,*,#576,.F.);
#748=ORIENTED_EDGE('',*,*,#577,.F.);
#749=ORIENTED_EDGE('',*,*,#576,.T.);
#750=ORIENTED_EDGE('',*,*,#578,.F.);
#751=ORIENTED_EDGE('',*,*,#579,.F.);
#752=ORIENTED_EDGE('',*,*,#580,.T.);
#753=ORIENTED_EDGE('',*,*,#579,.T.);
#754=ORIENTED_EDGE('',*,*,#581,.F.);
#755=ORIENTED_EDGE('',*,*,#582,.F.);
#756=ORIENTED_EDGE('',*,*,#521,.T.);
#757=ORIENTED_EDGE('',*,*,#583,.T.);
#758=ORIENTED_EDGE('',*,*,#582,.T.);
#759=ORIENTED_EDGE('',*,*,#584,.F.);
#760=ORIENTED_EDGE('',*,*,#585,.F.);
#761=ORIENTED_EDGE('',*,*,#586,.F.);
#762=ORIENTED_EDGE('',*,*,#585,.T.);
#763=ORIENTED_EDGE('',*,*,#587,.F.);
#764=ORIENTED_EDGE('',*,*,#588,.F.);
#765=ORIENTED_EDGE('',*,*,#524,.T.);
#766=ORIENTED_EDGE('',*,*,#589,.T.);
#767=ORIENTED_EDGE('',*,*,#588,.T.);
#768=ORIENTED_EDGE('',*,*,#590,.F.);
#769=ORIENTED_EDGE('',*,*,#591,.F.);
#770=ORIENTED_EDGE('',*,*,#592,.T.);
#771=ORIENTED_EDGE('',*,*,#591,.T.);
#772=ORIENTED_EDGE('',*,*,#593,.F.);
#773=ORIENTED_EDGE('',*,*,#529,.F.);
#774=ORIENTED_EDGE('',*,*,#527,.T.);
#775=ORIENTED_EDGE('',*,*,#593,.T.);
#776=ORIENTED_EDGE('',*,*,#590,.T.);
#777=ORIENTED_EDGE('',*,*,#587,.T.);
#778=ORIENTED_EDGE('',*,*,#584,.T.);
#779=ORIENTED_EDGE('',*,*,#581,.T.);
#780=ORIENTED_EDGE('',*,*,#578,.T.);
#781=ORIENTED_EDGE('',*,*,#575,.T.);
#782=ORIENTED_EDGE('',*,*,#572,.T.);
#783=ORIENTED_EDGE('',*,*,#569,.T.);
#784=ORIENTED_EDGE('',*,*,#566,.T.);
#785=ORIENTED_EDGE('',*,*,#563,.T.);
#786=ORIENTED_EDGE('',*,*,#560,.T.);
#787=ORIENTED_EDGE('',*,*,#557,.T.);
#788=ORIENTED_EDGE('',*,*,#554,.T.);
#789=ORIENTED_EDGE('',*,*,#551,.T.);
#790=ORIENTED_EDGE('',*,*,#548,.T.);
#791=ORIENTED_EDGE('',*,*,#545,.T.);
#792=ORIENTED_EDGE('',*,*,#542,.T.);
#793=ORIENTED_EDGE('',*,*,#539,.T.);
#794=ORIENTED_EDGE('',*,*,#536,.T.);
#795=ORIENTED_EDGE('',*,*,#533,.T.);
#796=ORIENTED_EDGE('',*,*,#530,.T.);
#797=ORIENTED_EDGE('',*,*,#592,.F.);
#798=ORIENTED_EDGE('',*,*,#528,.T.);
#799=ORIENTED_EDGE('',*,*,#532,.F.);
#800=ORIENTED_EDGE('',*,*,#535,.T.);
#801=ORIENTED_EDGE('',*,*,#538,.F.);
#802=ORIENTED_EDGE('',*,*,#541,.T.);
#803=ORIENTED_EDGE('',*,*,#544,.T.);
#804=ORIENTED_EDGE('',*,*,#547,.F.);
#805=ORIENTED_EDGE('',*,*,#550,.F.);
#806=ORIENTED_EDGE('',*,*,#553,.T.);
#807=ORIENTED_EDGE('',*,*,#556,.F.);
#808=ORIENTED_EDGE('',*,*,#559,.T.);
#809=ORIENTED_EDGE('',*,*,#562,.T.);
#810=ORIENTED_EDGE('',*,*,#565,.F.);
#811=ORIENTED_EDGE('',*,*,#568,.F.);
#812=ORIENTED_EDGE('',*,*,#571,.F.);
#813=ORIENTED_EDGE('',*,*,#574,.F.);
#814=ORIENTED_EDGE('',*,*,#577,.T.);
#815=ORIENTED_EDGE('',*,*,#580,.F.);
#816=ORIENTED_EDGE('',*,*,#583,.F.);
#817=ORIENTED_EDGE('',*,*,#586,.T.);
#818=ORIENTED_EDGE('',*,*,#589,.F.);
#819=ORIENTED_EDGE('',*,*,#594,.F.);
#820=ORIENTED_EDGE('',*,*,#595,.T.);
#821=ORIENTED_EDGE('',*,*,#596,.F.);
#822=ORIENTED_EDGE('',*,*,#595,.F.);
#823=ORIENTED_EDGE('',*,*,#597,.F.);
#824=ORIENTED_EDGE('',*,*,#598,.T.);
#825=ORIENTED_EDGE('',*,*,#599,.F.);
#826=ORIENTED_EDGE('',*,*,#598,.F.);
#827=ORIENTED_EDGE('',*,*,#600,.F.);
#828=ORIENTED_EDGE('',*,*,#601,.T.);
#829=ORIENTED_EDGE('',*,*,#602,.F.);
#830=ORIENTED_EDGE('',*,*,#601,.F.);
#831=ORIENTED_EDGE('',*,*,#603,.F.);
#832=ORIENTED_EDGE('',*,*,#604,.T.);
#833=ORIENTED_EDGE('',*,*,#605,.F.);
#834=ORIENTED_EDGE('',*,*,#606,.F.);
#835=ORIENTED_EDGE('',*,*,#594,.T.);
#836=ORIENTED_EDGE('',*,*,#607,.F.);
#837=ORIENTED_EDGE('',*,*,#606,.T.);
#838=ORIENTED_EDGE('',*,*,#608,.F.);
#839=ORIENTED_EDGE('',*,*,#609,.F.);
#840=ORIENTED_EDGE('',*,*,#610,.T.);
#841=ORIENTED_EDGE('',*,*,#609,.T.);
#842=ORIENTED_EDGE('',*,*,#611,.F.);
#843=ORIENTED_EDGE('',*,*,#612,.F.);
#844=ORIENTED_EDGE('',*,*,#613,.F.);
#845=ORIENTED_EDGE('',*,*,#612,.T.);
#846=ORIENTED_EDGE('',*,*,#614,.F.);
#847=ORIENTED_EDGE('',*,*,#615,.F.);
#848=ORIENTED_EDGE('',*,*,#596,.T.);
#849=ORIENTED_EDGE('',*,*,#616,.T.);
#850=ORIENTED_EDGE('',*,*,#615,.T.);
#851=ORIENTED_EDGE('',*,*,#617,.F.);
#852=ORIENTED_EDGE('',*,*,#618,.F.);
#853=ORIENTED_EDGE('',*,*,#619,.F.);
#854=ORIENTED_EDGE('',*,*,#618,.T.);
#855=ORIENTED_EDGE('',*,*,#620,.F.);
#856=ORIENTED_EDGE('',*,*,#621,.F.);
#857=ORIENTED_EDGE('',*,*,#622,.F.);
#858=ORIENTED_EDGE('',*,*,#621,.T.);
#859=ORIENTED_EDGE('',*,*,#623,.F.);
#860=ORIENTED_EDGE('',*,*,#624,.F.);
#861=ORIENTED_EDGE('',*,*,#625,.T.);
#862=ORIENTED_EDGE('',*,*,#624,.T.);
#863=ORIENTED_EDGE('',*,*,#626,.F.);
#864=ORIENTED_EDGE('',*,*,#627,.F.);
#865=ORIENTED_EDGE('',*,*,#628,.T.);
#866=ORIENTED_EDGE('',*,*,#627,.T.);
#867=ORIENTED_EDGE('',*,*,#629,.F.);
#868=ORIENTED_EDGE('',*,*,#630,.F.);
#869=ORIENTED_EDGE('',*,*,#631,.F.);
#870=ORIENTED_EDGE('',*,*,#630,.T.);
#871=ORIENTED_EDGE('',*,*,#632,.F.);
#872=ORIENTED_EDGE('',*,*,#633,.F.);
#873=ORIENTED_EDGE('',*,*,#599,.T.);
#874=ORIENTED_EDGE('',*,*,#634,.T.);
#875=ORIENTED_EDGE('',*,*,#633,.T.);
#876=ORIENTED_EDGE('',*,*,#635,.F.);
#877=ORIENTED_EDGE('',*,*,#636,.F.);
#878=ORIENTED_EDGE('',*,*,#637,.F.);
#879=ORIENTED_EDGE('',*,*,#636,.T.);
#880=ORIENTED_EDGE('',*,*,#638,.F.);
#881=ORIENTED_EDGE('',*,*,#639,.F.);
#882=ORIENTED_EDGE('',*,*,#640,.F.);
#883=ORIENTED_EDGE('',*,*,#639,.T.);
#884=ORIENTED_EDGE('',*,*,#641,.F.);
#885=ORIENTED_EDGE('',*,*,#642,.F.);
#886=ORIENTED_EDGE('',*,*,#643,.T.);
#887=ORIENTED_EDGE('',*,*,#642,.T.);
#888=ORIENTED_EDGE('',*,*,#644,.F.);
#889=ORIENTED_EDGE('',*,*,#645,.F.);
#890=ORIENTED_EDGE('',*,*,#646,.T.);
#891=ORIENTED_EDGE('',*,*,#645,.T.);
#892=ORIENTED_EDGE('',*,*,#647,.F.);
#893=ORIENTED_EDGE('',*,*,#648,.F.);
#894=ORIENTED_EDGE('',*,*,#649,.T.);
#895=ORIENTED_EDGE('',*,*,#648,.T.);
#896=ORIENTED_EDGE('',*,*,#650,.F.);
#897=ORIENTED_EDGE('',*,*,#651,.F.);
#898=ORIENTED_EDGE('',*,*,#602,.T.);
#899=ORIENTED_EDGE('',*,*,#652,.T.);
#900=ORIENTED_EDGE('',*,*,#651,.T.);
#901=ORIENTED_EDGE('',*,*,#653,.F.);
#902=ORIENTED_EDGE('',*,*,#654,.F.);
#903=ORIENTED_EDGE('',*,*,#655,.F.);
#904=ORIENTED_EDGE('',*,*,#654,.T.);
#905=ORIENTED_EDGE('',*,*,#656,.F.);
#906=ORIENTED_EDGE('',*,*,#657,.F.);
#907=ORIENTED_EDGE('',*,*,#658,.F.);
#908=ORIENTED_EDGE('',*,*,#657,.T.);
#909=ORIENTED_EDGE('',*,*,#659,.F.);
#910=ORIENTED_EDGE('',*,*,#660,.F.);
#911=ORIENTED_EDGE('',*,*,#600,.T.);
#912=ORIENTED_EDGE('',*,*,#661,.T.);
#913=ORIENTED_EDGE('',*,*,#660,.T.);
#914=ORIENTED_EDGE('',*,*,#662,.F.);
#915=ORIENTED_EDGE('',*,*,#663,.F.);
#916=ORIENTED_EDGE('',*,*,#664,.F.);
#917=ORIENTED_EDGE('',*,*,#663,.T.);
#918=ORIENTED_EDGE('',*,*,#665,.F.);
#919=ORIENTED_EDGE('',*,*,#666,.F.);
#920=ORIENTED_EDGE('',*,*,#597,.T.);
#921=ORIENTED_EDGE('',*,*,#667,.T.);
#922=ORIENTED_EDGE('',*,*,#666,.T.);
#923=ORIENTED_EDGE('',*,*,#668,.F.);
#924=ORIENTED_EDGE('',*,*,#604,.F.);
#925=ORIENTED_EDGE('',*,*,#668,.T.);
#926=ORIENTED_EDGE('',*,*,#665,.T.);
#927=ORIENTED_EDGE('',*,*,#662,.T.);
#928=ORIENTED_EDGE('',*,*,#659,.T.);
#929=ORIENTED_EDGE('',*,*,#656,.T.);
#930=ORIENTED_EDGE('',*,*,#653,.T.);
#931=ORIENTED_EDGE('',*,*,#650,.T.);
#932=ORIENTED_EDGE('',*,*,#647,.T.);
#933=ORIENTED_EDGE('',*,*,#644,.T.);
#934=ORIENTED_EDGE('',*,*,#641,.T.);
#935=ORIENTED_EDGE('',*,*,#638,.T.);
#936=ORIENTED_EDGE('',*,*,#635,.T.);
#937=ORIENTED_EDGE('',*,*,#632,.T.);
#938=ORIENTED_EDGE('',*,*,#629,.T.);
#939=ORIENTED_EDGE('',*,*,#626,.T.);
#940=ORIENTED_EDGE('',*,*,#623,.T.);
#941=ORIENTED_EDGE('',*,*,#620,.T.);
#942=ORIENTED_EDGE('',*,*,#617,.T.);
#943=ORIENTED_EDGE('',*,*,#614,.T.);
#944=ORIENTED_EDGE('',*,*,#611,.T.);
#945=ORIENTED_EDGE('',*,*,#608,.T.);
#946=ORIENTED_EDGE('',*,*,#605,.T.);
#947=ORIENTED_EDGE('',*,*,#667,.F.);
#948=ORIENTED_EDGE('',*,*,#603,.T.);
#949=ORIENTED_EDGE('',*,*,#607,.T.);
#950=ORIENTED_EDGE('',*,*,#610,.F.);
#951=ORIENTED_EDGE('',*,*,#613,.T.);
#952=ORIENTED_EDGE('',*,*,#616,.F.);
#953=ORIENTED_EDGE('',*,*,#619,.T.);
#954=ORIENTED_EDGE('',*,*,#622,.T.);
#955=ORIENTED_EDGE('',*,*,#625,.F.);
#956=ORIENTED_EDGE('',*,*,#628,.F.);
#957=ORIENTED_EDGE('',*,*,#631,.T.);
#958=ORIENTED_EDGE('',*,*,#634,.F.);
#959=ORIENTED_EDGE('',*,*,#637,.T.);
#960=ORIENTED_EDGE('',*,*,#640,.T.);
#961=ORIENTED_EDGE('',*,*,#643,.F.);
#962=ORIENTED_EDGE('',*,*,#646,.F.);
#963=ORIENTED_EDGE('',*,*,#649,.F.);
#964=ORIENTED_EDGE('',*,*,#652,.F.);
#965=ORIENTED_EDGE('',*,*,#655,.T.);
#966=ORIENTED_EDGE('',*,*,#658,.T.);
#967=ORIENTED_EDGE('',*,*,#661,.F.);
#968=ORIENTED_EDGE('',*,*,#664,.T.);
#969=CYLINDRICAL_SURFACE('',#1066,1.5);
#970=CYLINDRICAL_SURFACE('',#1069,1.25);
#971=CYLINDRICAL_SURFACE('',#1071,1.5);
#972=CYLINDRICAL_SURFACE('',#1075,0.300000000000002);
#973=CYLINDRICAL_SURFACE('',#1079,0.300000000000001);
#974=CYLINDRICAL_SURFACE('',#1083,0.299999999999999);
#975=CYLINDRICAL_SURFACE('',#1087,7.00000000000001);
#976=CYLINDRICAL_SURFACE('',#1091,7.00000000000001);
#977=CYLINDRICAL_SURFACE('',#1095,0.299999999999998);
#978=CYLINDRICAL_SURFACE('',#1099,0.300000000000002);
#979=CYLINDRICAL_SURFACE('',#1103,0.3);
#980=CYLINDRICAL_SURFACE('',#1108,1.);
#981=CYLINDRICAL_SURFACE('',#1111,8.);
#982=CYLINDRICAL_SURFACE('',#1114,1.);
#983=CYLINDRICAL_SURFACE('',#1120,1.5);
#984=CYLINDRICAL_SURFACE('',#1123,1.25);
#985=CYLINDRICAL_SURFACE('',#1125,1.5);
#986=CYLINDRICAL_SURFACE('',#1130,0.3);
#987=CYLINDRICAL_SURFACE('',#1134,0.300000000000001);
#988=CYLINDRICAL_SURFACE('',#1138,0.299999999999999);
#989=CYLINDRICAL_SURFACE('',#1142,7.00000000000001);
#990=CYLINDRICAL_SURFACE('',#1146,7.00000000000001);
#991=CYLINDRICAL_SURFACE('',#1150,0.299999999999999);
#992=CYLINDRICAL_SURFACE('',#1154,0.300000000000002);
#993=CYLINDRICAL_SURFACE('',#1158,0.3);
#994=CYLINDRICAL_SURFACE('',#1163,1.);
#995=CYLINDRICAL_SURFACE('',#1166,8.);
#996=CYLINDRICAL_SURFACE('',#1169,0.999999999999998);
#997=ADVANCED_FACE('',(#57),#969,.F.);
#998=ADVANCED_FACE('',(#58),#970,.F.);
#999=ADVANCED_FACE('',(#59),#971,.F.);
#1000=ADVANCED_FACE('',(#60),#29,.T.);
#1001=ADVANCED_FACE('',(#61),#972,.T.);
#1002=ADVANCED_FACE('',(#62,#17),#30,.T.);
#1003=ADVANCED_FACE('',(#63),#973,.T.);
#1004=ADVANCED_FACE('',(#64),#31,.T.);
#1005=ADVANCED_FACE('',(#65),#974,.F.);
#1006=ADVANCED_FACE('',(#66),#32,.T.);
#1007=ADVANCED_FACE('',(#67),#975,.T.);
#1008=ADVANCED_FACE('',(#68,#18),#33,.T.);
#1009=ADVANCED_FACE('',(#69),#976,.T.);
#1010=ADVANCED_FACE('',(#70),#34,.T.);
#1011=ADVANCED_FACE('',(#71),#977,.F.);
#1012=ADVANCED_FACE('',(#72),#35,.T.);
#1013=ADVANCED_FACE('',(#73),#978,.T.);
#1014=ADVANCED_FACE('',(#74,#19),#36,.T.);
#1015=ADVANCED_FACE('',(#75),#979,.T.);
#1016=ADVANCED_FACE('',(#76),#37,.T.);
#1017=ADVANCED_FACE('',(#77,#20),#38,.T.);
#1018=ADVANCED_FACE('',(#78),#980,.T.);
#1019=ADVANCED_FACE('',(#79,#21),#981,.F.);
#1020=ADVANCED_FACE('',(#80),#982,.T.);
#1021=ADVANCED_FACE('',(#81,#22),#39,.T.);
#1022=ADVANCED_FACE('',(#82),#40,.T.);
#1023=ADVANCED_FACE('',(#83),#41,.F.);
#1024=ADVANCED_FACE('',(#84),#983,.F.);
#1025=ADVANCED_FACE('',(#85),#984,.F.);
#1026=ADVANCED_FACE('',(#86),#985,.F.);
#1027=ADVANCED_FACE('',(#87,#23),#42,.T.);
#1028=ADVANCED_FACE('',(#88),#43,.T.);
#1029=ADVANCED_FACE('',(#89),#986,.T.);
#1030=ADVANCED_FACE('',(#90,#24),#44,.T.);
#1031=ADVANCED_FACE('',(#91),#987,.T.);
#1032=ADVANCED_FACE('',(#92),#45,.T.);
#1033=ADVANCED_FACE('',(#93),#988,.F.);
#1034=ADVANCED_FACE('',(#94),#46,.T.);
#1035=ADVANCED_FACE('',(#95),#989,.T.);
#1036=ADVANCED_FACE('',(#96,#25),#47,.T.);
#1037=ADVANCED_FACE('',(#97),#990,.T.);
#1038=ADVANCED_FACE('',(#98),#48,.T.);
#1039=ADVANCED_FACE('',(#99),#991,.F.);
#1040=ADVANCED_FACE('',(#100),#49,.T.);
#1041=ADVANCED_FACE('',(#101),#992,.T.);
#1042=ADVANCED_FACE('',(#102,#26),#50,.T.);
#1043=ADVANCED_FACE('',(#103),#993,.T.);
#1044=ADVANCED_FACE('',(#104),#51,.T.);
#1045=ADVANCED_FACE('',(#105,#27),#52,.T.);
#1046=ADVANCED_FACE('',(#106),#994,.T.);
#1047=ADVANCED_FACE('',(#107,#28),#995,.F.);
#1048=ADVANCED_FACE('',(#108),#996,.T.);
#1049=ADVANCED_FACE('',(#109),#53,.T.);
#1050=ADVANCED_FACE('',(#110),#54,.F.);
#1051=CLOSED_SHELL('',(#997,#998,#999,#1000,#1001,#1002,#1003,#1004,#1005,
#1006,#1007,#1008,#1009,#1010,#1011,#1012,#1013,#1014,#1015,#1016,#1017,
#1018,#1019,#1020,#1021,#1022,#1023));
#1052=CLOSED_SHELL('',(#1024,#1025,#1026,#1027,#1028,#1029,#1030,#1031,
#1032,#1033,#1034,#1035,#1036,#1037,#1038,#1039,#1040,#1041,#1042,#1043,
#1044,#1045,#1046,#1047,#1048,#1049,#1050));
#1053=DERIVED_UNIT_ELEMENT(#1055,1.);
#1054=DERIVED_UNIT_ELEMENT(#1862,-3.);
#1055=(
MASS_UNIT()
NAMED_UNIT(*)
SI_UNIT(.KILO.,.GRAM.)
);
#1056=DERIVED_UNIT((#1053,#1054));
#1057=MEASURE_REPRESENTATION_ITEM('density measure',
POSITIVE_RATIO_MEASURE(2680.),#1056);
#1058=PROPERTY_DEFINITION_REPRESENTATION(#1063,#1060);
#1059=PROPERTY_DEFINITION_REPRESENTATION(#1064,#1061);
#1060=REPRESENTATION('material name',(#1062),#1859);
#1061=REPRESENTATION('density',(#1057),#1859);
#1062=DESCRIPTIVE_REPRESENTATION_ITEM('\X2\94DD\X0\ 5052','\X2\94DD\X0\ 
5052');
#1063=PROPERTY_DEFINITION('material property','material name',#1869);
#1064=PROPERTY_DEFINITION('material property','density of part',#1869);
#1065=AXIS2_PLACEMENT_3D('',#1486,#1174,#1175);
#1066=AXIS2_PLACEMENT_3D('',#1487,#1176,#1177);
#1067=AXIS2_PLACEMENT_3D('',#1489,#1178,#1179);
#1068=AXIS2_PLACEMENT_3D('',#1492,#1181,#1182);
#1069=AXIS2_PLACEMENT_3D('',#1493,#1183,#1184);
#1070=AXIS2_PLACEMENT_3D('',#1495,#1185,#1186);
#1071=AXIS2_PLACEMENT_3D('',#1532,#1188,#1189);
#1072=AXIS2_PLACEMENT_3D('',#1534,#1190,#1191);
#1073=AXIS2_PLACEMENT_3D('',#1537,#1193,#1194);
#1074=AXIS2_PLACEMENT_3D('',#1538,#1195,#1196);
#1075=AXIS2_PLACEMENT_3D('',#1547,#1201,#1202);
#1076=AXIS2_PLACEMENT_3D('',#1549,#1203,#1204);
#1077=AXIS2_PLACEMENT_3D('',#1551,#1205,#1206);
#1078=AXIS2_PLACEMENT_3D('',#1553,#1208,#1209);
#1079=AXIS2_PLACEMENT_3D('',#1559,#1213,#1214);
#1080=AXIS2_PLACEMENT_3D('',#1561,#1215,#1216);
#1081=AXIS2_PLACEMENT_3D('',#1563,#1217,#1218);
#1082=AXIS2_PLACEMENT_3D('',#1565,#1220,#1221);
#1083=AXIS2_PLACEMENT_3D('',#1571,#1225,#1226);
#1084=AXIS2_PLACEMENT_3D('',#1573,#1227,#1228);
#1085=AXIS2_PLACEMENT_3D('',#1575,#1229,#1230);
#1086=AXIS2_PLACEMENT_3D('',#1577,#1232,#1233);
#1087=AXIS2_PLACEMENT_3D('',#1583,#1237,#1238);
#1088=AXIS2_PLACEMENT_3D('',#1585,#1239,#1240);
#1089=AXIS2_PLACEMENT_3D('',#1587,#1241,#1242);
#1090=AXIS2_PLACEMENT_3D('',#1589,#1244,#1245);
#1091=AXIS2_PLACEMENT_3D('',#1595,#1249,#1250);
#1092=AXIS2_PLACEMENT_3D('',#1597,#1251,#1252);
#1093=AXIS2_PLACEMENT_3D('',#1599,#1253,#1254);
#1094=AXIS2_PLACEMENT_3D('',#1601,#1256,#1257);
#1095=AXIS2_PLACEMENT_3D('',#1607,#1261,#1262);
#1096=AXIS2_PLACEMENT_3D('',#1609,#1263,#1264);
#1097=AXIS2_PLACEMENT_3D('',#1611,#1265,#1266);
#1098=AXIS2_PLACEMENT_3D('',#1613,#1268,#1269);
#1099=AXIS2_PLACEMENT_3D('',#1619,#1273,#1274);
#1100=AXIS2_PLACEMENT_3D('',#1621,#1275,#1276);
#1101=AXIS2_PLACEMENT_3D('',#1623,#1277,#1278);
#1102=AXIS2_PLACEMENT_3D('',#1625,#1280,#1281);
#1103=AXIS2_PLACEMENT_3D('',#1631,#1285,#1286);
#1104=AXIS2_PLACEMENT_3D('',#1633,#1287,#1288);
#1105=AXIS2_PLACEMENT_3D('',#1635,#1289,#1290);
#1106=AXIS2_PLACEMENT_3D('',#1637,#1292,#1293);
#1107=AXIS2_PLACEMENT_3D('',#1643,#1297,#1298);
#1108=AXIS2_PLACEMENT_3D('',#1649,#1302,#1303);
#1109=AXIS2_PLACEMENT_3D('',#1651,#1304,#1305);
#1110=AXIS2_PLACEMENT_3D('',#1653,#1306,#1307);
#1111=AXIS2_PLACEMENT_3D('',#1655,#1309,#1310);
#1112=AXIS2_PLACEMENT_3D('',#1657,#1311,#1312);
#1113=AXIS2_PLACEMENT_3D('',#1659,#1313,#1314);
#1114=AXIS2_PLACEMENT_3D('',#1661,#1316,#1317);
#1115=AXIS2_PLACEMENT_3D('',#1663,#1318,#1319);
#1116=AXIS2_PLACEMENT_3D('',#1665,#1320,#1321);
#1117=AXIS2_PLACEMENT_3D('',#1667,#1323,#1324);
#1118=AXIS2_PLACEMENT_3D('',#1670,#1327,#1328);
#1119=AXIS2_PLACEMENT_3D('',#1671,#1329,#1330);
#1120=AXIS2_PLACEMENT_3D('',#1672,#1331,#1332);
#1121=AXIS2_PLACEMENT_3D('',#1674,#1333,#1334);
#1122=AXIS2_PLACEMENT_3D('',#1677,#1336,#1337);
#1123=AXIS2_PLACEMENT_3D('',#1678,#1338,#1339);
#1124=AXIS2_PLACEMENT_3D('',#1716,#1341,#1342);
#1125=AXIS2_PLACEMENT_3D('',#1717,#1343,#1344);
#1126=AXIS2_PLACEMENT_3D('',#1719,#1345,#1346);
#1127=AXIS2_PLACEMENT_3D('',#1722,#1348,#1349);
#1128=AXIS2_PLACEMENT_3D('',#1723,#1350,#1351);
#1129=AXIS2_PLACEMENT_3D('',#1732,#1356,#1357);
#1130=AXIS2_PLACEMENT_3D('',#1738,#1361,#1362);
#1131=AXIS2_PLACEMENT_3D('',#1740,#1363,#1364);
#1132=AXIS2_PLACEMENT_3D('',#1742,#1365,#1366);
#1133=AXIS2_PLACEMENT_3D('',#1744,#1368,#1369);
#1134=AXIS2_PLACEMENT_3D('',#1750,#1373,#1374);
#1135=AXIS2_PLACEMENT_3D('',#1752,#1375,#1376);
#1136=AXIS2_PLACEMENT_3D('',#1754,#1377,#1378);
#1137=AXIS2_PLACEMENT_3D('',#1756,#1380,#1381);
#1138=AXIS2_PLACEMENT_3D('',#1762,#1385,#1386);
#1139=AXIS2_PLACEMENT_3D('',#1764,#1387,#1388);
#1140=AXIS2_PLACEMENT_3D('',#1766,#1389,#1390);
#1141=AXIS2_PLACEMENT_3D('',#1768,#1392,#1393);
#1142=AXIS2_PLACEMENT_3D('',#1774,#1397,#1398);
#1143=AXIS2_PLACEMENT_3D('',#1776,#1399,#1400);
#1144=AXIS2_PLACEMENT_3D('',#1778,#1401,#1402);
#1145=AXIS2_PLACEMENT_3D('',#1780,#1404,#1405);
#1146=AXIS2_PLACEMENT_3D('',#1786,#1409,#1410);
#1147=AXIS2_PLACEMENT_3D('',#1788,#1411,#1412);
#1148=AXIS2_PLACEMENT_3D('',#1790,#1413,#1414);
#1149=AXIS2_PLACEMENT_3D('',#1792,#1416,#1417);
#1150=AXIS2_PLACEMENT_3D('',#1798,#1421,#1422);
#1151=AXIS2_PLACEMENT_3D('',#1800,#1423,#1424);
#1152=AXIS2_PLACEMENT_3D('',#1802,#1425,#1426);
#1153=AXIS2_PLACEMENT_3D('',#1804,#1428,#1429);
#1154=AXIS2_PLACEMENT_3D('',#1810,#1433,#1434);
#1155=AXIS2_PLACEMENT_3D('',#1812,#1435,#1436);
#1156=AXIS2_PLACEMENT_3D('',#1814,#1437,#1438);
#1157=AXIS2_PLACEMENT_3D('',#1816,#1440,#1441);
#1158=AXIS2_PLACEMENT_3D('',#1822,#1445,#1446);
#1159=AXIS2_PLACEMENT_3D('',#1824,#1447,#1448);
#1160=AXIS2_PLACEMENT_3D('',#1826,#1449,#1450);
#1161=AXIS2_PLACEMENT_3D('',#1828,#1452,#1453);
#1162=AXIS2_PLACEMENT_3D('',#1834,#1457,#1458);
#1163=AXIS2_PLACEMENT_3D('',#1840,#1462,#1463);
#1164=AXIS2_PLACEMENT_3D('',#1842,#1464,#1465);
#1165=AXIS2_PLACEMENT_3D('',#1844,#1466,#1467);
#1166=AXIS2_PLACEMENT_3D('',#1846,#1469,#1470);
#1167=AXIS2_PLACEMENT_3D('',#1848,#1471,#1472);
#1168=AXIS2_PLACEMENT_3D('',#1850,#1473,#1474);
#1169=AXIS2_PLACEMENT_3D('',#1852,#1476,#1477);
#1170=AXIS2_PLACEMENT_3D('',#1853,#1478,#1479);
#1171=AXIS2_PLACEMENT_3D('',#1854,#1480,#1481);
#1172=AXIS2_PLACEMENT_3D('',#1855,#1482,#1483);
#1173=AXIS2_PLACEMENT_3D('',#1856,#1484,#1485);
#1174=DIRECTION('axis',(0.,0.,1.));
#1175=DIRECTION('refdir',(1.,0.,0.));
#1176=DIRECTION('center_axis',(0.,1.,0.));
#1177=DIRECTION('ref_axis',(1.,0.,0.));
#1178=DIRECTION('center_axis',(-8.22387425648264E-16,1.,0.));
#1179=DIRECTION('ref_axis',(1.,8.22387425648264E-16,0.));
#1180=DIRECTION('',(0.,1.,0.));
#1181=DIRECTION('center_axis',(5.54356662672298E-16,-1.,0.));
#1182=DIRECTION('ref_axis',(1.,5.54356662672298E-16,0.));
#1183=DIRECTION('center_axis',(0.,1.,0.));
#1184=DIRECTION('ref_axis',(1.,0.,0.));
#1185=DIRECTION('center_axis',(0.,1.,0.));
#1186=DIRECTION('ref_axis',(1.,0.,0.));
#1187=DIRECTION('',(0.,1.,0.));
#1188=DIRECTION('center_axis',(0.,1.,0.));
#1189=DIRECTION('ref_axis',(1.,0.,0.));
#1190=DIRECTION('center_axis',(-8.22387425648266E-16,1.,0.));
#1191=DIRECTION('ref_axis',(1.,8.22387425648266E-16,0.));
#1192=DIRECTION('',(0.,1.,0.));
#1193=DIRECTION('center_axis',(4.98921017193368E-16,-1.,0.));
#1194=DIRECTION('ref_axis',(1.,4.98921017193368E-16,0.));
#1195=DIRECTION('center_axis',(1.,0.,0.));
#1196=DIRECTION('ref_axis',(0.,1.,0.));
#1197=DIRECTION('',(0.,-1.,0.));
#1198=DIRECTION('',(0.,0.,1.));
#1199=DIRECTION('',(0.,1.,0.));
#1200=DIRECTION('',(0.,0.,1.));
#1201=DIRECTION('center_axis',(0.,0.,1.));
#1202=DIRECTION('ref_axis',(7.40148683083432E-15,-1.,0.));
#1203=DIRECTION('center_axis',(0.,0.,1.));
#1204=DIRECTION('ref_axis',(7.40148683083432E-15,-1.,0.));
#1205=DIRECTION('center_axis',(0.,0.,1.));
#1206=DIRECTION('ref_axis',(7.40148683083432E-15,-1.,0.));
#1207=DIRECTION('',(0.,0.,1.));
#1208=DIRECTION('center_axis',(8.22387425648266E-16,-1.,0.));
#1209=DIRECTION('ref_axis',(1.,8.22387425648266E-16,0.));
#1210=DIRECTION('',(-1.,-8.22387425648266E-16,0.));
#1211=DIRECTION('',(1.,8.22387425648266E-16,0.));
#1212=DIRECTION('',(0.,0.,1.));
#1213=DIRECTION('center_axis',(0.,0.,1.));
#1214=DIRECTION('ref_axis',(-1.,-7.40148683083434E-15,0.));
#1215=DIRECTION('center_axis',(0.,0.,1.));
#1216=DIRECTION('ref_axis',(-1.,-7.40148683083434E-15,0.));
#1217=DIRECTION('center_axis',(0.,0.,1.));
#1218=DIRECTION('ref_axis',(-1.,-7.40148683083434E-15,0.));
#1219=DIRECTION('',(0.,0.,1.));
#1220=DIRECTION('center_axis',(-1.,-7.57788502389991E-16,0.));
#1221=DIRECTION('ref_axis',(7.57788502389991E-16,-1.,0.));
#1222=DIRECTION('',(-7.57788502389991E-16,1.,0.));
#1223=DIRECTION('',(7.57788502389991E-16,-1.,0.));
#1224=DIRECTION('',(0.,0.,1.));
#1225=DIRECTION('center_axis',(0.,0.,1.));
#1226=DIRECTION('ref_axis',(1.,-3.7007434154172E-15,0.));
#1227=DIRECTION('center_axis',(0.,0.,1.));
#1228=DIRECTION('ref_axis',(1.,-3.7007434154172E-15,0.));
#1229=DIRECTION('center_axis',(0.,0.,-1.));
#1230=DIRECTION('ref_axis',(1.,-3.7007434154172E-15,0.));
#1231=DIRECTION('',(0.,0.,1.));
#1232=DIRECTION('center_axis',(0.521449988881569,-0.853281846223984,0.));
#1233=DIRECTION('ref_axis',(0.853281846223984,0.521449988881569,0.));
#1234=DIRECTION('',(0.853281846223984,0.521449988881569,0.));
#1235=DIRECTION('',(0.853281846223984,0.521449988881569,0.));
#1236=DIRECTION('',(0.,0.,1.));
#1237=DIRECTION('center_axis',(0.,0.,1.));
#1238=DIRECTION('ref_axis',(1.78428700386186E-15,-1.,0.));
#1239=DIRECTION('center_axis',(0.,0.,1.));
#1240=DIRECTION('ref_axis',(1.78428700386186E-15,-1.,0.));
#1241=DIRECTION('center_axis',(0.,0.,1.));
#1242=DIRECTION('ref_axis',(1.78428700386186E-15,-1.,0.));
#1243=DIRECTION('',(0.,0.,1.));
#1244=DIRECTION('center_axis',(0.,-1.,0.));
#1245=DIRECTION('ref_axis',(1.,0.,0.));
#1246=DIRECTION('',(-1.,0.,0.));
#1247=DIRECTION('',(1.,0.,0.));
#1248=DIRECTION('',(0.,0.,1.));
#1249=DIRECTION('center_axis',(0.,0.,1.));
#1250=DIRECTION('ref_axis',(-0.521449988881568,-0.853281846223985,0.));
#1251=DIRECTION('center_axis',(0.,0.,1.));
#1252=DIRECTION('ref_axis',(-0.521449988881568,-0.853281846223985,0.));
#1253=DIRECTION('center_axis',(0.,0.,1.));
#1254=DIRECTION('ref_axis',(-0.521449988881568,-0.853281846223985,0.));
#1255=DIRECTION('',(0.,0.,1.));
#1256=DIRECTION('center_axis',(-0.521449988881568,-0.853281846223985,0.));
#1257=DIRECTION('ref_axis',(0.853281846223985,-0.521449988881568,0.));
#1258=DIRECTION('',(-0.853281846223986,0.521449988881567,0.));
#1259=DIRECTION('',(0.853281846223986,-0.521449988881567,0.));
#1260=DIRECTION('',(0.,0.,1.));
#1261=DIRECTION('center_axis',(0.,0.,1.));
#1262=DIRECTION('ref_axis',(0.521449988881572,0.853281846223983,0.));
#1263=DIRECTION('center_axis',(0.,0.,1.));
#1264=DIRECTION('ref_axis',(0.521449988881572,0.853281846223983,0.));
#1265=DIRECTION('center_axis',(0.,0.,-1.));
#1266=DIRECTION('ref_axis',(0.521449988881572,0.853281846223983,0.));
#1267=DIRECTION('',(0.,0.,1.));
#1268=DIRECTION('center_axis',(1.,0.,0.));
#1269=DIRECTION('ref_axis',(0.,1.,0.));
#1270=DIRECTION('',(0.,1.,0.));
#1271=DIRECTION('',(0.,1.,0.));
#1272=DIRECTION('',(0.,0.,1.));
#1273=DIRECTION('center_axis',(0.,0.,1.));
#1274=DIRECTION('ref_axis',(7.40148683083432E-15,-1.,0.));
#1275=DIRECTION('center_axis',(0.,0.,1.));
#1276=DIRECTION('ref_axis',(7.40148683083432E-15,-1.,0.));
#1277=DIRECTION('center_axis',(0.,0.,1.));
#1278=DIRECTION('ref_axis',(7.40148683083432E-15,-1.,0.));
#1279=DIRECTION('',(0.,0.,1.));
#1280=DIRECTION('center_axis',(8.22387425648264E-16,-1.,0.));
#1281=DIRECTION('ref_axis',(1.,8.22387425648264E-16,0.));
#1282=DIRECTION('',(1.,8.22387425648264E-16,0.));
#1283=DIRECTION('',(1.,8.22387425648264E-16,0.));
#1284=DIRECTION('',(0.,0.,1.));
#1285=DIRECTION('center_axis',(0.,0.,1.));
#1286=DIRECTION('ref_axis',(-1.,0.,0.));
#1287=DIRECTION('center_axis',(0.,0.,1.));
#1288=DIRECTION('ref_axis',(-1.,0.,0.));
#1289=DIRECTION('center_axis',(0.,0.,1.));
#1290=DIRECTION('ref_axis',(-1.,0.,0.));
#1291=DIRECTION('',(0.,0.,1.));
#1292=DIRECTION('center_axis',(-1.,-5.31207188815864E-16,0.));
#1293=DIRECTION('ref_axis',(5.31207188815864E-16,-1.,0.));
#1294=DIRECTION('',(-5.31207188815864E-16,1.,0.));
#1295=DIRECTION('',(5.31207188815864E-16,-1.,0.));
#1296=DIRECTION('',(0.,0.,1.));
#1297=DIRECTION('center_axis',(-5.54356662672298E-16,1.,0.));
#1298=DIRECTION('ref_axis',(-1.,-5.54356662672298E-16,0.));
#1299=DIRECTION('',(-1.,-5.54356662672298E-16,0.));
#1300=DIRECTION('',(-1.,-5.54356662672298E-16,0.));
#1301=DIRECTION('',(0.,0.,1.));
#1302=DIRECTION('center_axis',(0.,0.,1.));
#1303=DIRECTION('ref_axis',(0.999243541045419,-0.0388888888888853,0.));
#1304=DIRECTION('center_axis',(0.,0.,1.));
#1305=DIRECTION('ref_axis',(0.999243541045419,-0.0388888888888853,0.));
#1306=DIRECTION('center_axis',(0.,0.,1.));
#1307=DIRECTION('ref_axis',(0.999243541045419,-0.0388888888888853,0.));
#1308=DIRECTION('',(0.,0.,1.));
#1309=DIRECTION('center_axis',(0.,0.,1.));
#1310=DIRECTION('ref_axis',(4.98732999343332E-16,-1.,0.));
#1311=DIRECTION('center_axis',(0.,0.,1.));
#1312=DIRECTION('ref_axis',(-0.999243541045419,0.038888888888889,0.));
#1313=DIRECTION('center_axis',(0.,0.,-1.));
#1314=DIRECTION('ref_axis',(-0.999243541045419,0.038888888888889,0.));
#1315=DIRECTION('',(0.,0.,1.));
#1316=DIRECTION('center_axis',(0.,0.,1.));
#1317=DIRECTION('ref_axis',(0.,1.,0.));
#1318=DIRECTION('center_axis',(0.,0.,1.));
#1319=DIRECTION('ref_axis',(0.,1.,0.));
#1320=DIRECTION('center_axis',(0.,0.,1.));
#1321=DIRECTION('ref_axis',(0.,1.,0.));
#1322=DIRECTION('',(0.,0.,1.));
#1323=DIRECTION('center_axis',(-4.98921017193368E-16,1.,0.));
#1324=DIRECTION('ref_axis',(-1.,-4.98921017193368E-16,0.));
#1325=DIRECTION('',(-1.,-4.98921017193368E-16,0.));
#1326=DIRECTION('',(-1.,-4.98921017193368E-16,0.));
#1327=DIRECTION('center_axis',(0.,0.,1.));
#1328=DIRECTION('ref_axis',(1.,0.,0.));
#1329=DIRECTION('center_axis',(0.,0.,1.));
#1330=DIRECTION('ref_axis',(1.,0.,0.));
#1331=DIRECTION('center_axis',(0.,1.,0.));
#1332=DIRECTION('ref_axis',(1.,0.,0.));
#1333=DIRECTION('center_axis',(-4.78896724366359E-16,1.,0.));
#1334=DIRECTION('ref_axis',(1.,4.78896724366359E-16,0.));
#1335=DIRECTION('',(0.,1.,0.));
#1336=DIRECTION('center_axis',(0.,-1.,0.));
#1337=DIRECTION('ref_axis',(1.,0.,0.));
#1338=DIRECTION('center_axis',(0.,1.,0.));
#1339=DIRECTION('ref_axis',(1.,0.,0.));
#1340=DIRECTION('',(0.,1.,0.));
#1341=DIRECTION('center_axis',(0.,-1.,0.));
#1342=DIRECTION('ref_axis',(1.,0.,0.));
#1343=DIRECTION('center_axis',(0.,1.,0.));
#1344=DIRECTION('ref_axis',(1.,0.,0.));
#1345=DIRECTION('center_axis',(-4.78896741604152E-16,1.,0.));
#1346=DIRECTION('ref_axis',(1.,4.78896741604152E-16,0.));
#1347=DIRECTION('',(0.,1.,0.));
#1348=DIRECTION('center_axis',(0.,-1.,0.));
#1349=DIRECTION('ref_axis',(1.,0.,0.));
#1350=DIRECTION('center_axis',(4.78896724366359E-16,-1.,0.));
#1351=DIRECTION('ref_axis',(1.,4.78896724366359E-16,0.));
#1352=DIRECTION('',(-1.,-4.78896724366359E-16,0.));
#1353=DIRECTION('',(0.,0.,1.));
#1354=DIRECTION('',(1.,4.78896724366359E-16,0.));
#1355=DIRECTION('',(0.,0.,1.));
#1356=DIRECTION('center_axis',(-1.,-5.31207188815864E-16,0.));
#1357=DIRECTION('ref_axis',(5.31207188815864E-16,-1.,0.));
#1358=DIRECTION('',(-5.31207188815864E-16,1.,0.));
#1359=DIRECTION('',(5.31207188815864E-16,-1.,0.));
#1360=DIRECTION('',(0.,0.,1.));
#1361=DIRECTION('center_axis',(0.,0.,1.));
#1362=DIRECTION('ref_axis',(0.,1.,0.));
#1363=DIRECTION('center_axis',(0.,0.,1.));
#1364=DIRECTION('ref_axis',(0.,1.,0.));
#1365=DIRECTION('center_axis',(0.,0.,1.));
#1366=DIRECTION('ref_axis',(0.,1.,0.));
#1367=DIRECTION('',(0.,0.,1.));
#1368=DIRECTION('center_axis',(0.,1.,0.));
#1369=DIRECTION('ref_axis',(-1.,0.,0.));
#1370=DIRECTION('',(1.,0.,0.));
#1371=DIRECTION('',(-1.,0.,0.));
#1372=DIRECTION('',(0.,0.,1.));
#1373=DIRECTION('center_axis',(0.,0.,1.));
#1374=DIRECTION('ref_axis',(1.,7.40148683083434E-15,0.));
#1375=DIRECTION('center_axis',(0.,0.,1.));
#1376=DIRECTION('ref_axis',(1.,7.40148683083434E-15,0.));
#1377=DIRECTION('center_axis',(0.,0.,1.));
#1378=DIRECTION('ref_axis',(1.,7.40148683083434E-15,0.));
#1379=DIRECTION('',(0.,0.,1.));
#1380=DIRECTION('center_axis',(1.,0.,0.));
#1381=DIRECTION('ref_axis',(0.,1.,0.));
#1382=DIRECTION('',(0.,-1.,0.));
#1383=DIRECTION('',(0.,1.,0.));
#1384=DIRECTION('',(0.,0.,1.));
#1385=DIRECTION('center_axis',(0.,0.,1.));
#1386=DIRECTION('ref_axis',(-1.,3.7007434154172E-15,0.));
#1387=DIRECTION('center_axis',(0.,0.,1.));
#1388=DIRECTION('ref_axis',(-1.,3.7007434154172E-15,0.));
#1389=DIRECTION('center_axis',(0.,0.,-1.));
#1390=DIRECTION('ref_axis',(-1.,3.7007434154172E-15,0.));
#1391=DIRECTION('',(0.,0.,1.));
#1392=DIRECTION('center_axis',(-0.521449988881568,0.853281846223985,0.));
#1393=DIRECTION('ref_axis',(-0.853281846223985,-0.521449988881568,0.));
#1394=DIRECTION('',(-0.853281846223985,-0.521449988881568,0.));
#1395=DIRECTION('',(-0.853281846223985,-0.521449988881568,0.));
#1396=DIRECTION('',(0.,0.,1.));
#1397=DIRECTION('center_axis',(0.,0.,1.));
#1398=DIRECTION('ref_axis',(-6.74063979236702E-16,1.,0.));
#1399=DIRECTION('center_axis',(0.,0.,1.));
#1400=DIRECTION('ref_axis',(-6.74063979236702E-16,1.,0.));
#1401=DIRECTION('center_axis',(0.,0.,1.));
#1402=DIRECTION('ref_axis',(-6.74063979236702E-16,1.,0.));
#1403=DIRECTION('',(0.,0.,1.));
#1404=DIRECTION('center_axis',(0.,1.,0.));
#1405=DIRECTION('ref_axis',(-1.,0.,0.));
#1406=DIRECTION('',(1.,0.,0.));
#1407=DIRECTION('',(-1.,0.,0.));
#1408=DIRECTION('',(0.,0.,1.));
#1409=DIRECTION('center_axis',(0.,0.,1.));
#1410=DIRECTION('ref_axis',(0.521449988881569,0.853281846223985,0.));
#1411=DIRECTION('center_axis',(0.,0.,1.));
#1412=DIRECTION('ref_axis',(0.521449988881569,0.853281846223985,0.));
#1413=DIRECTION('center_axis',(0.,0.,1.));
#1414=DIRECTION('ref_axis',(0.521449988881569,0.853281846223985,0.));
#1415=DIRECTION('',(0.,0.,1.));
#1416=DIRECTION('center_axis',(0.521449988881568,0.853281846223985,0.));
#1417=DIRECTION('ref_axis',(-0.853281846223985,0.521449988881568,0.));
#1418=DIRECTION('',(0.853281846223985,-0.521449988881568,0.));
#1419=DIRECTION('',(-0.853281846223985,0.521449988881568,0.));
#1420=DIRECTION('',(0.,0.,1.));
#1421=DIRECTION('center_axis',(0.,0.,1.));
#1422=DIRECTION('ref_axis',(-0.521449988881575,-0.853281846223981,0.));
#1423=DIRECTION('center_axis',(0.,0.,1.));
#1424=DIRECTION('ref_axis',(-0.521449988881575,-0.853281846223981,0.));
#1425=DIRECTION('center_axis',(0.,0.,-1.));
#1426=DIRECTION('ref_axis',(-0.521449988881575,-0.853281846223981,0.));
#1427=DIRECTION('',(0.,0.,1.));
#1428=DIRECTION('center_axis',(-1.,0.,0.));
#1429=DIRECTION('ref_axis',(0.,-1.,0.));
#1430=DIRECTION('',(0.,-1.,0.));
#1431=DIRECTION('',(0.,-1.,0.));
#1432=DIRECTION('',(0.,0.,1.));
#1433=DIRECTION('center_axis',(0.,0.,1.));
#1434=DIRECTION('ref_axis',(-3.70074341541716E-15,1.,0.));
#1435=DIRECTION('center_axis',(0.,0.,1.));
#1436=DIRECTION('ref_axis',(-3.70074341541716E-15,1.,0.));
#1437=DIRECTION('center_axis',(0.,0.,1.));
#1438=DIRECTION('ref_axis',(-3.70074341541716E-15,1.,0.));
#1439=DIRECTION('',(0.,0.,1.));
#1440=DIRECTION('center_axis',(0.,1.,0.));
#1441=DIRECTION('ref_axis',(-1.,0.,0.));
#1442=DIRECTION('',(-1.,0.,0.));
#1443=DIRECTION('',(-1.,0.,0.));
#1444=DIRECTION('',(0.,0.,1.));
#1445=DIRECTION('center_axis',(0.,0.,1.));
#1446=DIRECTION('ref_axis',(1.,0.,0.));
#1447=DIRECTION('center_axis',(0.,0.,1.));
#1448=DIRECTION('ref_axis',(1.,0.,0.));
#1449=DIRECTION('center_axis',(0.,0.,1.));
#1450=DIRECTION('ref_axis',(1.,0.,0.));
#1451=DIRECTION('',(0.,0.,1.));
#1452=DIRECTION('center_axis',(1.,0.,0.));
#1453=DIRECTION('ref_axis',(0.,1.,0.));
#1454=DIRECTION('',(0.,-1.,0.));
#1455=DIRECTION('',(0.,1.,0.));
#1456=DIRECTION('',(0.,0.,1.));
#1457=DIRECTION('center_axis',(4.78896741604152E-16,-1.,0.));
#1458=DIRECTION('ref_axis',(1.,4.78896741604152E-16,0.));
#1459=DIRECTION('',(-1.,-4.78896741604152E-16,0.));
#1460=DIRECTION('',(1.,4.78896741604152E-16,0.));
#1461=DIRECTION('',(0.,0.,1.));
#1462=DIRECTION('center_axis',(0.,0.,1.));
#1463=DIRECTION('ref_axis',(-0.911585242487496,-0.411111111111113,0.));
#1464=DIRECTION('center_axis',(0.,0.,1.));
#1465=DIRECTION('ref_axis',(-0.911585242487496,-0.411111111111113,0.));
#1466=DIRECTION('center_axis',(0.,0.,1.));
#1467=DIRECTION('ref_axis',(-0.911585242487496,-0.411111111111113,0.));
#1468=DIRECTION('',(0.,0.,1.));
#1469=DIRECTION('center_axis',(0.,0.,1.));
#1470=DIRECTION('ref_axis',(0.911585242487497,0.411111111111111,0.));
#1471=DIRECTION('center_axis',(0.,0.,1.));
#1472=DIRECTION('ref_axis',(0.911585242487497,0.411111111111111,0.));
#1473=DIRECTION('center_axis',(0.,0.,-1.));
#1474=DIRECTION('ref_axis',(0.911585242487497,0.411111111111111,0.));
#1475=DIRECTION('',(0.,0.,1.));
#1476=DIRECTION('center_axis',(0.,0.,1.));
#1477=DIRECTION('ref_axis',(1.11022302462516E-15,-1.,0.));
#1478=DIRECTION('center_axis',(0.,0.,1.));
#1479=DIRECTION('ref_axis',(1.11022302462516E-15,-1.,0.));
#1480=DIRECTION('center_axis',(0.,0.,1.));
#1481=DIRECTION('ref_axis',(1.11022302462516E-15,-1.,0.));
#1482=DIRECTION('center_axis',(0.,0.,1.));
#1483=DIRECTION('ref_axis',(1.,0.,0.));
#1484=DIRECTION('center_axis',(0.,0.,1.));
#1485=DIRECTION('ref_axis',(1.,0.,0.));
#1486=CARTESIAN_POINT('',(0.,0.,0.));
#1487=CARTESIAN_POINT('Origin',(-11.,0.,5.05));
#1488=CARTESIAN_POINT('',(-12.5,-10.75,5.05));
#1489=CARTESIAN_POINT('Origin',(-11.,-10.75,5.05));
#1490=CARTESIAN_POINT('',(-12.5,1.35,5.05));
#1491=CARTESIAN_POINT('',(-12.5,0.,5.05));
#1492=CARTESIAN_POINT('Origin',(-11.,1.35,5.05));
#1493=CARTESIAN_POINT('Origin',(0.,0.,5.05));
#1494=CARTESIAN_POINT('',(-1.25,-10.75,5.05));
#1495=CARTESIAN_POINT('Origin',(0.,-10.75,5.05));
#1496=CARTESIAN_POINT('',(-1.25,-7.90174031463955,5.05));
#1497=CARTESIAN_POINT('',(-1.25,0.,5.05));
#1498=CARTESIAN_POINT('Ctrl Pts',(-1.25,-7.90174031463955,5.05));
#1499=CARTESIAN_POINT('Ctrl Pts',(-1.25,-7.90174031463955,4.89276850380161));
#1500=CARTESIAN_POINT('Ctrl Pts',(-1.21852440981688,-7.90691838541515,4.72523605551173));
#1501=CARTESIAN_POINT('Ctrl Pts',(-1.09087801307356,-7.92553753428183,4.41734008373079));
#1502=CARTESIAN_POINT('Ctrl Pts',(-0.994721031574822,-7.93870057686526,
4.27695407860845));
#1503=CARTESIAN_POINT('Ctrl Pts',(-0.773048200888331,-7.9633430635214,4.05528124792196));
#1504=CARTESIAN_POINT('Ctrl Pts',(-0.632661214029931,-7.97643563616177,
3.9591224782821));
#1505=CARTESIAN_POINT('Ctrl Pts',(-0.324761881499001,-7.99489308176736,
3.83147478158187));
#1506=CARTESIAN_POINT('Ctrl Pts',(-0.157228262558943,-8.,3.8));
#1507=CARTESIAN_POINT('Ctrl Pts',(0.157228262558944,-8.,3.8));
#1508=CARTESIAN_POINT('Ctrl Pts',(0.324761881499003,-7.99489308176736,3.83147478158187));
#1509=CARTESIAN_POINT('Ctrl Pts',(0.632661214029932,-7.97643563616177,3.9591224782821));
#1510=CARTESIAN_POINT('Ctrl Pts',(0.773048200888333,-7.9633430635214,4.05528124792196));
#1511=CARTESIAN_POINT('Ctrl Pts',(0.994721031574823,-7.93870057686526,4.27695407860845));
#1512=CARTESIAN_POINT('Ctrl Pts',(1.09087801307356,-7.92553753428183,4.41734008373079));
#1513=CARTESIAN_POINT('Ctrl Pts',(1.21852440981688,-7.90691838541515,4.72523605551173));
#1514=CARTESIAN_POINT('Ctrl Pts',(1.25,-7.90174031463955,4.89276850380161));
#1515=CARTESIAN_POINT('Ctrl Pts',(1.25,-7.90174031463955,5.20723149619839));
#1516=CARTESIAN_POINT('Ctrl Pts',(1.21852440981688,-7.90691838541515,5.37476394448827));
#1517=CARTESIAN_POINT('Ctrl Pts',(1.09087801307356,-7.92553753428183,5.6826599162692));
#1518=CARTESIAN_POINT('Ctrl Pts',(0.994721031574823,-7.93870057686526,5.82304592139154));
#1519=CARTESIAN_POINT('Ctrl Pts',(0.773048200888332,-7.9633430635214,6.04471875207804));
#1520=CARTESIAN_POINT('Ctrl Pts',(0.632661214029932,-7.97643563616177,6.1408775217179));
#1521=CARTESIAN_POINT('Ctrl Pts',(0.324761881499002,-7.99489308176736,6.26852521841813));
#1522=CARTESIAN_POINT('Ctrl Pts',(0.157228262558944,-8.,6.3));
#1523=CARTESIAN_POINT('Ctrl Pts',(-0.157228262558944,-8.,6.3));
#1524=CARTESIAN_POINT('Ctrl Pts',(-0.324761881499003,-7.99489308176736,
6.26852521841813));
#1525=CARTESIAN_POINT('Ctrl Pts',(-0.632661214029932,-7.97643563616177,
6.1408775217179));
#1526=CARTESIAN_POINT('Ctrl Pts',(-0.773048200888333,-7.9633430635214,6.04471875207803));
#1527=CARTESIAN_POINT('Ctrl Pts',(-0.994721031574823,-7.93870057686526,
5.82304592139154));
#1528=CARTESIAN_POINT('Ctrl Pts',(-1.09087801307356,-7.92553753428183,5.6826599162692));
#1529=CARTESIAN_POINT('Ctrl Pts',(-1.21852440981688,-7.90691838541515,5.37476394448827));
#1530=CARTESIAN_POINT('Ctrl Pts',(-1.25,-7.90174031463955,5.20723149619839));
#1531=CARTESIAN_POINT('Ctrl Pts',(-1.25,-7.90174031463955,5.05));
#1532=CARTESIAN_POINT('Origin',(11.,0.,5.05));
#1533=CARTESIAN_POINT('',(9.5,-10.75,5.05));
#1534=CARTESIAN_POINT('Origin',(11.,-10.75,5.05));
#1535=CARTESIAN_POINT('',(9.5,1.35000000000001,5.05));
#1536=CARTESIAN_POINT('',(9.5,0.,5.05));
#1537=CARTESIAN_POINT('Origin',(11.,1.35000000000001,5.05));
#1538=CARTESIAN_POINT('Origin',(14.,-10.45,0.));
#1539=CARTESIAN_POINT('',(14.,1.35000000000001,0.));
#1540=CARTESIAN_POINT('',(14.,-10.45,0.));
#1541=CARTESIAN_POINT('',(14.,10.45,0.));
#1542=CARTESIAN_POINT('',(14.,1.35000000000001,10.1));
#1543=CARTESIAN_POINT('',(14.,1.35000000000001,0.));
#1544=CARTESIAN_POINT('',(14.,-10.45,10.1));
#1545=CARTESIAN_POINT('',(14.,10.45,10.1));
#1546=CARTESIAN_POINT('',(14.,-10.45,0.));
#1547=CARTESIAN_POINT('Origin',(13.7,-10.45,0.));
#1548=CARTESIAN_POINT('',(13.7,-10.75,0.));
#1549=CARTESIAN_POINT('Origin',(13.7,-10.45,0.));
#1550=CARTESIAN_POINT('',(13.7,-10.75,10.1));
#1551=CARTESIAN_POINT('Origin',(13.7,-10.45,10.1));
#1552=CARTESIAN_POINT('',(13.7,-10.75,0.));
#1553=CARTESIAN_POINT('Origin',(8.30000000000001,-10.75,0.));
#1554=CARTESIAN_POINT('',(8.30000000000001,-10.75,0.));
#1555=CARTESIAN_POINT('',(13.7,-10.75,0.));
#1556=CARTESIAN_POINT('',(8.30000000000001,-10.75,10.1));
#1557=CARTESIAN_POINT('',(13.7,-10.75,10.1));
#1558=CARTESIAN_POINT('',(8.30000000000001,-10.75,0.));
#1559=CARTESIAN_POINT('Origin',(8.30000000000001,-10.45,0.));
#1560=CARTESIAN_POINT('',(8.00000000000001,-10.45,0.));
#1561=CARTESIAN_POINT('Origin',(8.30000000000001,-10.45,0.));
#1562=CARTESIAN_POINT('',(8.00000000000001,-10.45,10.1));
#1563=CARTESIAN_POINT('Origin',(8.30000000000001,-10.45,10.1));
#1564=CARTESIAN_POINT('',(8.00000000000001,-10.45,0.));
#1565=CARTESIAN_POINT('Origin',(8.00000000000001,-8.53491718572617,0.));
#1566=CARTESIAN_POINT('',(8.00000000000001,-8.53491718572617,0.));
#1567=CARTESIAN_POINT('',(8.00000000000001,-10.0000001490116,0.));
#1568=CARTESIAN_POINT('',(8.00000000000001,-8.53491718572617,10.1));
#1569=CARTESIAN_POINT('',(8.00000000000001,-10.0000001490116,10.1));
#1570=CARTESIAN_POINT('',(8.00000000000001,-8.53491718572617,0.));
#1571=CARTESIAN_POINT('Origin',(7.70000000000001,-8.53491718572617,0.));
#1572=CARTESIAN_POINT('',(7.54356500333554,-8.27893263185898,0.));
#1573=CARTESIAN_POINT('Origin',(7.70000000000001,-8.53491718572617,0.));
#1574=CARTESIAN_POINT('',(7.54356500333554,-8.27893263185898,10.1));
#1575=CARTESIAN_POINT('Origin',(7.70000000000001,-8.53491718572617,10.1));
#1576=CARTESIAN_POINT('',(7.54356500333554,-8.27893263185898,0.));
#1577=CARTESIAN_POINT('Origin',(5.18058985249888,-9.72297292356789,0.));
#1578=CARTESIAN_POINT('',(5.18058985249888,-9.72297292356789,0.));
#1579=CARTESIAN_POINT('',(5.18058985249888,-9.72297292356789,0.));
#1580=CARTESIAN_POINT('',(5.18058985249888,-9.72297292356789,10.1));
#1581=CARTESIAN_POINT('',(5.18058985249888,-9.72297292356789,10.1));
#1582=CARTESIAN_POINT('',(5.18058985249888,-9.72297292356789,0.));
#1583=CARTESIAN_POINT('Origin',(1.53043993032789,-3.74999999999999,0.));
#1584=CARTESIAN_POINT('',(1.5304399303279,-10.75,0.));
#1585=CARTESIAN_POINT('Origin',(1.53043993032789,-3.74999999999999,0.));
#1586=CARTESIAN_POINT('',(1.5304399303279,-10.75,10.1));
#1587=CARTESIAN_POINT('Origin',(1.53043993032789,-3.74999999999999,10.1));
#1588=CARTESIAN_POINT('',(1.5304399303279,-10.75,0.));
#1589=CARTESIAN_POINT('Origin',(-1.53043993032787,-10.75,0.));
#1590=CARTESIAN_POINT('',(-1.53043993032787,-10.75,0.));
#1591=CARTESIAN_POINT('',(1.19348973368766E-14,-10.75,0.));
#1592=CARTESIAN_POINT('',(-1.53043993032787,-10.75,10.1));
#1593=CARTESIAN_POINT('',(1.19348973368766E-14,-10.75,10.1));
#1594=CARTESIAN_POINT('',(-1.53043993032787,-10.75,0.));
#1595=CARTESIAN_POINT('Origin',(-1.53043993032788,-3.75,0.));
#1596=CARTESIAN_POINT('',(-5.18058985249885,-9.7229729235679,0.));
#1597=CARTESIAN_POINT('Origin',(-1.53043993032788,-3.75,0.));
#1598=CARTESIAN_POINT('',(-5.18058985249886,-9.7229729235679,10.1));
#1599=CARTESIAN_POINT('Origin',(-1.53043993032788,-3.75,10.1));
#1600=CARTESIAN_POINT('',(-5.18058985249885,-9.7229729235679,0.));
#1601=CARTESIAN_POINT('Origin',(-7.54356500333552,-8.27893263185899,0.));
#1602=CARTESIAN_POINT('',(-7.54356500333552,-8.27893263185899,0.));
#1603=CARTESIAN_POINT('',(-5.18058985249885,-9.7229729235679,0.));
#1604=CARTESIAN_POINT('',(-7.54356500333552,-8.27893263185899,10.1));
#1605=CARTESIAN_POINT('',(-5.18058985249885,-9.7229729235679,10.1));
#1606=CARTESIAN_POINT('',(-7.54356500333552,-8.27893263185899,0.));
#1607=CARTESIAN_POINT('Origin',(-7.69999999999999,-8.53491718572619,0.));
#1608=CARTESIAN_POINT('',(-7.99999999999999,-8.53491718572619,0.));
#1609=CARTESIAN_POINT('Origin',(-7.69999999999999,-8.53491718572619,0.));
#1610=CARTESIAN_POINT('',(-7.99999999999999,-8.53491718572619,10.1));
#1611=CARTESIAN_POINT('Origin',(-7.69999999999999,-8.53491718572619,10.1));
#1612=CARTESIAN_POINT('',(-7.99999999999999,-8.53491718572619,0.));
#1613=CARTESIAN_POINT('Origin',(-7.99999999999999,-10.45,0.));
#1614=CARTESIAN_POINT('',(-7.99999999999999,-10.45,0.));
#1615=CARTESIAN_POINT('',(-7.99999999999999,-10.45,0.));
#1616=CARTESIAN_POINT('',(-7.99999999999998,-10.45,10.1));
#1617=CARTESIAN_POINT('',(-7.99999999999999,-10.45,10.1));
#1618=CARTESIAN_POINT('',(-7.99999999999999,-10.45,0.));
#1619=CARTESIAN_POINT('Origin',(-8.29999999999999,-10.45,0.));
#1620=CARTESIAN_POINT('',(-8.29999999999999,-10.75,0.));
#1621=CARTESIAN_POINT('Origin',(-8.29999999999999,-10.45,0.));
#1622=CARTESIAN_POINT('',(-8.29999999999999,-10.75,10.1));
#1623=CARTESIAN_POINT('Origin',(-8.29999999999999,-10.45,10.1));
#1624=CARTESIAN_POINT('',(-8.29999999999999,-10.75,0.));
#1625=CARTESIAN_POINT('Origin',(-13.7,-10.75,0.));
#1626=CARTESIAN_POINT('',(-13.7,-10.75,0.));
#1627=CARTESIAN_POINT('',(-13.7,-10.75,0.));
#1628=CARTESIAN_POINT('',(-13.7,-10.75,10.1));
#1629=CARTESIAN_POINT('',(-13.7,-10.75,10.1));
#1630=CARTESIAN_POINT('',(-13.7,-10.75,0.));
#1631=CARTESIAN_POINT('Origin',(-13.7,-10.45,0.));
#1632=CARTESIAN_POINT('',(-14.,-10.45,0.));
#1633=CARTESIAN_POINT('Origin',(-13.7,-10.45,0.));
#1634=CARTESIAN_POINT('',(-14.,-10.45,10.1));
#1635=CARTESIAN_POINT('Origin',(-13.7,-10.45,10.1));
#1636=CARTESIAN_POINT('',(-14.,-10.45,0.));
#1637=CARTESIAN_POINT('Origin',(-14.,1.35,0.));
#1638=CARTESIAN_POINT('',(-14.0000001038855,1.35,0.));
#1639=CARTESIAN_POINT('',(-14.,-10.45,0.));
#1640=CARTESIAN_POINT('',(-14.0000001038855,1.35,10.1));
#1641=CARTESIAN_POINT('',(-14.,-10.45,10.1));
#1642=CARTESIAN_POINT('',(-14.0000002086163,1.35,0.));
#1643=CARTESIAN_POINT('Origin',(-8.99319186940877,1.35,0.));
#1644=CARTESIAN_POINT('',(-8.99319186940877,1.35,0.));
#1645=CARTESIAN_POINT('',(-8.99319186940877,1.35,0.));
#1646=CARTESIAN_POINT('',(-8.99319186940877,1.35,10.1));
#1647=CARTESIAN_POINT('',(-8.99319186940877,1.35,10.1));
#1648=CARTESIAN_POINT('',(-8.99319186940877,1.35,0.));
#1649=CARTESIAN_POINT('Origin',(-8.99319186940877,0.349999999999997,0.));
#1650=CARTESIAN_POINT('',(-7.99394832836335,0.311111111111112,0.));
#1651=CARTESIAN_POINT('Origin',(-8.99319186940877,0.349999999999997,0.));
#1652=CARTESIAN_POINT('',(-7.99394832836335,0.311111111111112,10.1));
#1653=CARTESIAN_POINT('Origin',(-8.99319186940877,0.349999999999997,10.1));
#1654=CARTESIAN_POINT('',(-7.99394832836335,0.311111111111112,0.));
#1655=CARTESIAN_POINT('Origin',(0.,0.,0.));
#1656=CARTESIAN_POINT('',(7.99394832836335,0.311111111111119,0.));
#1657=CARTESIAN_POINT('Origin',(0.,0.,0.));
#1658=CARTESIAN_POINT('',(7.99394832836335,0.311111111111119,10.1));
#1659=CARTESIAN_POINT('Origin',(0.,0.,10.1));
#1660=CARTESIAN_POINT('',(7.99394832836335,0.311111111111119,0.));
#1661=CARTESIAN_POINT('Origin',(8.99319186940877,0.350000000000008,0.));
#1662=CARTESIAN_POINT('',(8.99319186940877,1.35000000000001,0.));
#1663=CARTESIAN_POINT('Origin',(8.99319186940877,0.350000000000008,0.));
#1664=CARTESIAN_POINT('',(8.99319186940877,1.35000000000001,10.1));
#1665=CARTESIAN_POINT('Origin',(8.99319186940877,0.350000000000008,10.1));
#1666=CARTESIAN_POINT('',(8.99319186940877,1.35000000000001,0.));
#1667=CARTESIAN_POINT('Origin',(14.,1.35000000000001,0.));
#1668=CARTESIAN_POINT('',(14.,1.35000000000001,0.));
#1669=CARTESIAN_POINT('',(14.,1.35000000000001,10.1));
#1670=CARTESIAN_POINT('Origin',(-1.04308128801023E-7,-4.7,10.1));
#1671=CARTESIAN_POINT('Origin',(-1.04308128801023E-7,-4.7,0.));
#1672=CARTESIAN_POINT('Origin',(-11.,0.,5.05));
#1673=CARTESIAN_POINT('',(-12.5,2.69999999999999,5.05));
#1674=CARTESIAN_POINT('Origin',(-11.,2.69999999999999,5.05));
#1675=CARTESIAN_POINT('',(-12.5,10.75,5.05));
#1676=CARTESIAN_POINT('',(-12.5,0.,5.05));
#1677=CARTESIAN_POINT('Origin',(-11.,10.75,5.05));
#1678=CARTESIAN_POINT('Origin',(0.,0.,5.05));
#1679=CARTESIAN_POINT('',(-1.25,7.90174031463955,5.05));
#1680=CARTESIAN_POINT('Ctrl Pts',(-1.25,7.90174031463955,5.05));
#1681=CARTESIAN_POINT('Ctrl Pts',(-1.25,7.90174031463955,5.20723149619839));
#1682=CARTESIAN_POINT('Ctrl Pts',(-1.21852440981688,7.90691838541515,5.37476394448827));
#1683=CARTESIAN_POINT('Ctrl Pts',(-1.09087801307356,7.92553753428183,5.68265991626921));
#1684=CARTESIAN_POINT('Ctrl Pts',(-0.994721031574823,7.93870057686526,5.82304592139155));
#1685=CARTESIAN_POINT('Ctrl Pts',(-0.773048200888332,7.9633430635214,6.04471875207804));
#1686=CARTESIAN_POINT('Ctrl Pts',(-0.632661214029932,7.97643563616177,6.1408775217179));
#1687=CARTESIAN_POINT('Ctrl Pts',(-0.324761881499002,7.99489308176736,6.26852521841813));
#1688=CARTESIAN_POINT('Ctrl Pts',(-0.157228262558944,8.,6.3));
#1689=CARTESIAN_POINT('Ctrl Pts',(0.157228262558944,8.,6.3));
#1690=CARTESIAN_POINT('Ctrl Pts',(0.324761881499002,7.99489308176736,6.26852521841813));
#1691=CARTESIAN_POINT('Ctrl Pts',(0.632661214029932,7.97643563616177,6.1408775217179));
#1692=CARTESIAN_POINT('Ctrl Pts',(0.773048200888333,7.9633430635214,6.04471875207803));
#1693=CARTESIAN_POINT('Ctrl Pts',(0.994721031574823,7.93870057686526,5.82304592139154));
#1694=CARTESIAN_POINT('Ctrl Pts',(1.09087801307356,7.92553753428183,5.6826599162692));
#1695=CARTESIAN_POINT('Ctrl Pts',(1.21852440981688,7.90691838541515,5.37476394448827));
#1696=CARTESIAN_POINT('Ctrl Pts',(1.25,7.90174031463955,5.20723149619839));
#1697=CARTESIAN_POINT('Ctrl Pts',(1.25,7.90174031463955,4.89276850380161));
#1698=CARTESIAN_POINT('Ctrl Pts',(1.21852440981688,7.90691838541515,4.72523605551173));
#1699=CARTESIAN_POINT('Ctrl Pts',(1.09087801307356,7.92553753428183,4.41734008373079));
#1700=CARTESIAN_POINT('Ctrl Pts',(0.994721031574823,7.93870057686526,4.27695407860845));
#1701=CARTESIAN_POINT('Ctrl Pts',(0.773048200888333,7.9633430635214,4.05528124792196));
#1702=CARTESIAN_POINT('Ctrl Pts',(0.632661214029932,7.97643563616177,3.9591224782821));
#1703=CARTESIAN_POINT('Ctrl Pts',(0.324761881499003,7.99489308176736,3.83147478158187));
#1704=CARTESIAN_POINT('Ctrl Pts',(0.157228262558944,8.,3.8));
#1705=CARTESIAN_POINT('Ctrl Pts',(-0.157228262558944,8.,3.8));
#1706=CARTESIAN_POINT('Ctrl Pts',(-0.324761881499002,7.99489308176736,3.83147478158187));
#1707=CARTESIAN_POINT('Ctrl Pts',(-0.632661214029932,7.97643563616177,3.9591224782821));
#1708=CARTESIAN_POINT('Ctrl Pts',(-0.773048200888332,7.9633430635214,4.05528124792196));
#1709=CARTESIAN_POINT('Ctrl Pts',(-0.994721031574823,7.93870057686526,4.27695407860845));
#1710=CARTESIAN_POINT('Ctrl Pts',(-1.09087801307356,7.92553753428183,4.41734008373079));
#1711=CARTESIAN_POINT('Ctrl Pts',(-1.21852440981688,7.90691838541515,4.72523605551173));
#1712=CARTESIAN_POINT('Ctrl Pts',(-1.25,7.90174031463955,4.89276850380161));
#1713=CARTESIAN_POINT('Ctrl Pts',(-1.25,7.90174031463955,5.05));
#1714=CARTESIAN_POINT('',(-1.25,10.75,5.05));
#1715=CARTESIAN_POINT('',(-1.25,0.,5.05));
#1716=CARTESIAN_POINT('Origin',(0.,10.75,5.05));
#1717=CARTESIAN_POINT('Origin',(11.,0.,5.05));
#1718=CARTESIAN_POINT('',(9.5,2.7,5.05));
#1719=CARTESIAN_POINT('Origin',(11.,2.7,5.05));
#1720=CARTESIAN_POINT('',(9.5,10.75,5.05));
#1721=CARTESIAN_POINT('',(9.5,0.,5.05));
#1722=CARTESIAN_POINT('Origin',(11.,10.75,5.05));
#1723=CARTESIAN_POINT('Origin',(-14.0000002086163,2.69999999999999,0.));
#1724=CARTESIAN_POINT('',(-8.20426718238747,2.69999999999999,0.));
#1725=CARTESIAN_POINT('',(-14.0000001038855,2.69999999999999,0.));
#1726=CARTESIAN_POINT('',(-8.20426718238747,2.69999999999999,0.));
#1727=CARTESIAN_POINT('',(-8.20426718238747,2.69999999999999,10.1));
#1728=CARTESIAN_POINT('',(-8.20426718238747,2.69999999999999,0.));
#1729=CARTESIAN_POINT('',(-14.0000001038855,2.69999999999999,10.1));
#1730=CARTESIAN_POINT('',(-8.20426718238747,2.69999999999999,10.1));
#1731=CARTESIAN_POINT('',(-14.0000002086163,2.69999999999999,0.));
#1732=CARTESIAN_POINT('Origin',(-14.,10.45,0.));
#1733=CARTESIAN_POINT('',(-14.,10.45,0.));
#1734=CARTESIAN_POINT('',(-14.,-10.45,0.));
#1735=CARTESIAN_POINT('',(-14.,10.45,10.1));
#1736=CARTESIAN_POINT('',(-14.,-10.45,10.1));
#1737=CARTESIAN_POINT('',(-14.,10.45,0.));
#1738=CARTESIAN_POINT('Origin',(-13.7,10.45,0.));
#1739=CARTESIAN_POINT('',(-13.7,10.75,0.));
#1740=CARTESIAN_POINT('Origin',(-13.7,10.45,0.));
#1741=CARTESIAN_POINT('',(-13.7,10.75,10.1));
#1742=CARTESIAN_POINT('Origin',(-13.7,10.45,10.1));
#1743=CARTESIAN_POINT('',(-13.7,10.75,0.));
#1744=CARTESIAN_POINT('Origin',(-8.3,10.75,0.));
#1745=CARTESIAN_POINT('',(-8.3,10.75,0.));
#1746=CARTESIAN_POINT('',(-13.7,10.75,0.));
#1747=CARTESIAN_POINT('',(-8.3,10.75,10.1));
#1748=CARTESIAN_POINT('',(-13.7,10.75,10.1));
#1749=CARTESIAN_POINT('',(-8.3,10.75,0.));
#1750=CARTESIAN_POINT('Origin',(-8.3,10.45,0.));
#1751=CARTESIAN_POINT('',(-8.,10.45,0.));
#1752=CARTESIAN_POINT('Origin',(-8.3,10.45,0.));
#1753=CARTESIAN_POINT('',(-8.,10.45,10.1));
#1754=CARTESIAN_POINT('Origin',(-8.3,10.45,10.1));
#1755=CARTESIAN_POINT('',(-8.,10.45,0.));
#1756=CARTESIAN_POINT('Origin',(-8.,8.53491718572618,0.));
#1757=CARTESIAN_POINT('',(-8.,8.53491718572618,0.));
#1758=CARTESIAN_POINT('',(-8.,10.0000001490116,0.));
#1759=CARTESIAN_POINT('',(-8.,8.53491718572618,10.1));
#1760=CARTESIAN_POINT('',(-8.,10.0000001490116,10.1));
#1761=CARTESIAN_POINT('',(-8.,8.53491718572618,0.));
#1762=CARTESIAN_POINT('Origin',(-7.7,8.53491718572618,0.));
#1763=CARTESIAN_POINT('',(-7.54356500333553,8.27893263185899,0.));
#1764=CARTESIAN_POINT('Origin',(-7.7,8.53491718572618,0.));
#1765=CARTESIAN_POINT('',(-7.54356500333553,8.27893263185899,10.1));
#1766=CARTESIAN_POINT('Origin',(-7.7,8.53491718572618,10.1));
#1767=CARTESIAN_POINT('',(-7.54356500333553,8.27893263185899,0.));
#1768=CARTESIAN_POINT('Origin',(-5.18058985249887,9.72297292356789,0.));
#1769=CARTESIAN_POINT('',(-5.18058985249887,9.72297292356789,0.));
#1770=CARTESIAN_POINT('',(-5.18058985249887,9.72297292356789,0.));
#1771=CARTESIAN_POINT('',(-5.18058985249887,9.72297292356789,10.1));
#1772=CARTESIAN_POINT('',(-5.18058985249887,9.72297292356789,10.1));
#1773=CARTESIAN_POINT('',(-5.18058985249887,9.72297292356789,0.));
#1774=CARTESIAN_POINT('Origin',(-1.53043993032788,3.75,0.));
#1775=CARTESIAN_POINT('',(-1.53043993032789,10.75,0.));
#1776=CARTESIAN_POINT('Origin',(-1.53043993032788,3.75,0.));
#1777=CARTESIAN_POINT('',(-1.53043993032789,10.75,10.1));
#1778=CARTESIAN_POINT('Origin',(-1.53043993032788,3.75,10.1));
#1779=CARTESIAN_POINT('',(-1.53043993032789,10.75,0.));
#1780=CARTESIAN_POINT('Origin',(1.53043993032789,10.75,0.));
#1781=CARTESIAN_POINT('',(1.53043993032789,10.75,0.));
#1782=CARTESIAN_POINT('',(0.,10.75,0.));
#1783=CARTESIAN_POINT('',(1.53043993032789,10.75,10.1));
#1784=CARTESIAN_POINT('',(0.,10.75,10.1));
#1785=CARTESIAN_POINT('',(1.53043993032789,10.75,0.));
#1786=CARTESIAN_POINT('Origin',(1.53043993032788,3.75,0.));
#1787=CARTESIAN_POINT('',(5.18058985249887,9.72297292356789,0.));
#1788=CARTESIAN_POINT('Origin',(1.53043993032788,3.75,0.));
#1789=CARTESIAN_POINT('',(5.18058985249887,9.72297292356789,10.1));
#1790=CARTESIAN_POINT('Origin',(1.53043993032788,3.75,10.1));
#1791=CARTESIAN_POINT('',(5.18058985249887,9.72297292356789,0.));
#1792=CARTESIAN_POINT('Origin',(7.54356500333553,8.27893263185899,0.));
#1793=CARTESIAN_POINT('',(7.54356500333553,8.27893263185899,0.));
#1794=CARTESIAN_POINT('',(5.18058985249887,9.72297292356789,0.));
#1795=CARTESIAN_POINT('',(7.54356500333553,8.27893263185899,10.1));
#1796=CARTESIAN_POINT('',(5.18058985249887,9.72297292356789,10.1));
#1797=CARTESIAN_POINT('',(7.54356500333553,8.27893263185899,0.));
#1798=CARTESIAN_POINT('Origin',(7.7,8.53491718572618,0.));
#1799=CARTESIAN_POINT('',(8.,8.53491718572618,0.));
#1800=CARTESIAN_POINT('Origin',(7.7,8.53491718572618,0.));
#1801=CARTESIAN_POINT('',(8.,8.53491718572618,10.1));
#1802=CARTESIAN_POINT('Origin',(7.7,8.53491718572618,10.1));
#1803=CARTESIAN_POINT('',(8.,8.53491718572618,0.));
#1804=CARTESIAN_POINT('Origin',(8.,10.45,0.));
#1805=CARTESIAN_POINT('',(8.,10.45,0.));
#1806=CARTESIAN_POINT('',(8.,10.45,0.));
#1807=CARTESIAN_POINT('',(8.,10.45,10.1));
#1808=CARTESIAN_POINT('',(8.,10.45,10.1));
#1809=CARTESIAN_POINT('',(8.,10.45,0.));
#1810=CARTESIAN_POINT('Origin',(8.3,10.45,0.));
#1811=CARTESIAN_POINT('',(8.3,10.75,0.));
#1812=CARTESIAN_POINT('Origin',(8.3,10.45,0.));
#1813=CARTESIAN_POINT('',(8.3,10.75,10.1));
#1814=CARTESIAN_POINT('Origin',(8.3,10.45,10.1));
#1815=CARTESIAN_POINT('',(8.3,10.75,0.));
#1816=CARTESIAN_POINT('Origin',(13.7,10.75,0.));
#1817=CARTESIAN_POINT('',(13.7,10.75,0.));
#1818=CARTESIAN_POINT('',(13.7,10.75,0.));
#1819=CARTESIAN_POINT('',(13.7,10.75,10.1));
#1820=CARTESIAN_POINT('',(13.7,10.75,10.1));
#1821=CARTESIAN_POINT('',(13.7,10.75,0.));
#1822=CARTESIAN_POINT('Origin',(13.7,10.45,0.));
#1823=CARTESIAN_POINT('',(14.,10.45,0.));
#1824=CARTESIAN_POINT('Origin',(13.7,10.45,0.));
#1825=CARTESIAN_POINT('',(14.,10.45,10.1));
#1826=CARTESIAN_POINT('Origin',(13.7,10.45,10.1));
#1827=CARTESIAN_POINT('',(14.,10.45,0.));
#1828=CARTESIAN_POINT('Origin',(14.,2.7,0.));
#1829=CARTESIAN_POINT('',(14.,2.7,0.));
#1830=CARTESIAN_POINT('',(14.,10.45,0.));
#1831=CARTESIAN_POINT('',(14.,2.7,10.1));
#1832=CARTESIAN_POINT('',(14.,10.45,10.1));
#1833=CARTESIAN_POINT('',(14.,2.7,0.));
#1834=CARTESIAN_POINT('Origin',(8.20426718238747,2.7,0.));
#1835=CARTESIAN_POINT('',(8.20426718238747,2.7,0.));
#1836=CARTESIAN_POINT('',(14.,2.7,0.));
#1837=CARTESIAN_POINT('',(8.20426718238747,2.7,10.1));
#1838=CARTESIAN_POINT('',(14.,2.7,10.1));
#1839=CARTESIAN_POINT('',(8.20426718238747,2.7,0.));
#1840=CARTESIAN_POINT('Origin',(8.20426718238747,3.7,0.));
#1841=CARTESIAN_POINT('',(7.29268193989997,3.28888888888889,0.));
#1842=CARTESIAN_POINT('Origin',(8.20426718238747,3.7,0.));
#1843=CARTESIAN_POINT('',(7.29268193989997,3.28888888888889,10.1));
#1844=CARTESIAN_POINT('Origin',(8.20426718238747,3.7,10.1));
#1845=CARTESIAN_POINT('',(7.29268193989997,3.28888888888889,0.));
#1846=CARTESIAN_POINT('Origin',(0.,0.,0.));
#1847=CARTESIAN_POINT('',(-7.29268193989998,3.28888888888888,0.));
#1848=CARTESIAN_POINT('Origin',(0.,0.,0.));
#1849=CARTESIAN_POINT('',(-7.29268193989998,3.28888888888888,10.1));
#1850=CARTESIAN_POINT('Origin',(0.,0.,10.1));
#1851=CARTESIAN_POINT('',(-7.29268193989998,3.28888888888888,0.));
#1852=CARTESIAN_POINT('Origin',(-8.20426718238747,3.69999999999999,0.));
#1853=CARTESIAN_POINT('Origin',(-8.20426718238747,3.69999999999999,0.));
#1854=CARTESIAN_POINT('Origin',(-8.20426718238747,3.69999999999999,10.1));
#1855=CARTESIAN_POINT('Origin',(-1.04308128801023E-7,6.72499999999999,10.1));
#1856=CARTESIAN_POINT('Origin',(-1.04308128801023E-7,6.72499999999999,0.));
#1857=UNCERTAINTY_MEASURE_WITH_UNIT(LENGTH_MEASURE(0.01),#1861,
'DISTANCE_ACCURACY_VALUE',
'Maximum model space distance between geometric entities at asserted c
onnectivities');
#1858=UNCERTAINTY_MEASURE_WITH_UNIT(LENGTH_MEASURE(0.01),#1861,
'DISTANCE_ACCURACY_VALUE',
'Maximum model space distance between geometric entities at asserted c
onnectivities');
#1859=(
GEOMETRIC_REPRESENTATION_CONTEXT(3)
GLOBAL_UNCERTAINTY_ASSIGNED_CONTEXT((#1857))
GLOBAL_UNIT_ASSIGNED_CONTEXT((#1861,#1863,#1864))
REPRESENTATION_CONTEXT('','3D')
);
#1860=(
GEOMETRIC_REPRESENTATION_CONTEXT(3)
GLOBAL_UNCERTAINTY_ASSIGNED_CONTEXT((#1858))
GLOBAL_UNIT_ASSIGNED_CONTEXT((#1861,#1863,#1864))
REPRESENTATION_CONTEXT('','3D')
);
#1861=(
LENGTH_UNIT()
NAMED_UNIT(*)
SI_UNIT(.MILLI.,.METRE.)
);
#1862=(
LENGTH_UNIT()
NAMED_UNIT(*)
SI_UNIT($,.METRE.)
);
#1863=(
NAMED_UNIT(*)
PLANE_ANGLE_UNIT()
SI_UNIT($,.RADIAN.)
);
#1864=(
NAMED_UNIT(*)
SI_UNIT($,.STERADIAN.)
SOLID_ANGLE_UNIT()
);
#1865=SHAPE_DEFINITION_REPRESENTATION(#1866,#1867);
#1866=PRODUCT_DEFINITION_SHAPE('',$,#1869);
#1867=SHAPE_REPRESENTATION('',(#1065),#1859);
#1868=PRODUCT_DEFINITION_CONTEXT('part definition',#1873,'design');
#1869=PRODUCT_DEFINITION('LEG-HOLDER','LEG-HOLDER v2',#1870,#1868);
#1870=PRODUCT_DEFINITION_FORMATION('',$,#1875);
#1871=PRODUCT_RELATED_PRODUCT_CATEGORY('LEG-HOLDER v2','LEG-HOLDER v2',
(#1875));
#1872=APPLICATION_PROTOCOL_DEFINITION('international standard',
'automotive_design',2009,#1873);
#1873=APPLICATION_CONTEXT(
'Core Data for Automotive Mechanical Design Process');
#1874=PRODUCT_CONTEXT('part definition',#1873,'mechanical');
#1875=PRODUCT('LEG-HOLDER','LEG-HOLDER v2',$,(#1874));
#1876=PRESENTATION_STYLE_ASSIGNMENT((#1878));
#1877=PRESENTATION_STYLE_ASSIGNMENT((#1879));
#1878=SURFACE_STYLE_USAGE(.BOTH.,#1880);
#1879=SURFACE_STYLE_USAGE(.BOTH.,#1881);
#1880=SURFACE_SIDE_STYLE('',(#1882));
#1881=SURFACE_SIDE_STYLE('',(#1883));
#1882=SURFACE_STYLE_FILL_AREA(#1884);
#1883=SURFACE_STYLE_FILL_AREA(#1885);
#1884=FILL_AREA_STYLE('Acero - Satinado',(#1886));
#1885=FILL_AREA_STYLE('Opaque(49,49,49)',(#1887));
#1886=FILL_AREA_STYLE_COLOUR('Acero - Satinado',#1888);
#1887=FILL_AREA_STYLE_COLOUR('Opaque(49,49,49)',#1889);
#1888=COLOUR_RGB('Acero - Satinado',0.627450980392157,0.627450980392157,
0.627450980392157);
#1889=COLOUR_RGB('Opaque(49,49,49)',0.192156862745098,0.192156862745098,
0.192156862745098);
ENDSEC;
END-ISO-10303-21;
