ISO-10303-21;
HEADER;
/* Generated by software containing ST-Developer
 * from STEP Tools, Inc. (www.steptools.com) 
 */

FILE_DESCRIPTION(
/* description */ (''),
/* implementation_level */ '2;1');

FILE_NAME(
/* name */ 'Poste_inf.step',
/* time_stamp */ '2026-06-02T00:47:00-06:00',
/* author */ (''),
/* organization */ (''),
/* preprocessor_version */ 'ST-DEVELOPER v20.1',
/* originating_system */ 'Autodesk Translation Framework v14.24.0.0',
/* authorisation */ '');

FILE_SCHEMA (('AUTOMOTIVE_DESIGN { 1 0 10303 214 3 1 1 }'));
ENDSEC;

DATA;
#10=MECHANICAL_DESIGN_GEOMETRIC_PRESENTATION_REPRESENTATION('',(#13),#339);
#11=SHAPE_REPRESENTATION_RELATIONSHIP('SRR','None',#346,#12);
#12=ADVANCED_BREP_SHAPE_REPRESENTATION('',(#14),#338);
#13=STYLED_ITEM('',(#356),#14);
#14=MANIFOLD_SOLID_BREP('Cuerpo1',#199);
#15=CYLINDRICAL_SURFACE('',#215,1.25);
#16=CYLINDRICAL_SURFACE('',#227,1.25);
#17=FACE_BOUND('',#36,.T.);
#18=FACE_BOUND('',#41,.T.);
#19=CIRCLE('',#214,1.25);
#20=CIRCLE('',#216,1.25);
#21=CIRCLE('',#217,1.25);
#22=CIRCLE('',#220,1.25);
#23=FACE_OUTER_BOUND('',#35,.T.);
#24=FACE_OUTER_BOUND('',#37,.T.);
#25=FACE_OUTER_BOUND('',#38,.T.);
#26=FACE_OUTER_BOUND('',#39,.T.);
#27=FACE_OUTER_BOUND('',#40,.T.);
#28=FACE_OUTER_BOUND('',#42,.T.);
#29=FACE_OUTER_BOUND('',#43,.T.);
#30=FACE_OUTER_BOUND('',#44,.T.);
#31=FACE_OUTER_BOUND('',#45,.T.);
#32=FACE_OUTER_BOUND('',#46,.T.);
#33=FACE_OUTER_BOUND('',#47,.T.);
#34=FACE_OUTER_BOUND('',#48,.T.);
#35=EDGE_LOOP('',(#129,#130,#131,#132,#133,#134));
#36=EDGE_LOOP('',(#135));
#37=EDGE_LOOP('',(#136,#137,#138,#139));
#38=EDGE_LOOP('',(#140));
#39=EDGE_LOOP('',(#141));
#40=EDGE_LOOP('',(#142,#143,#144,#145,#146,#147));
#41=EDGE_LOOP('',(#148));
#42=EDGE_LOOP('',(#149,#150,#151,#152));
#43=EDGE_LOOP('',(#153,#154,#155,#156));
#44=EDGE_LOOP('',(#157,#158,#159,#160));
#45=EDGE_LOOP('',(#161,#162,#163,#164));
#46=EDGE_LOOP('',(#165,#166,#167,#168));
#47=EDGE_LOOP('',(#169,#170,#171,#172));
#48=EDGE_LOOP('',(#173,#174,#175,#176));
#49=LINE('',#287,#69);
#50=LINE('',#289,#70);
#51=LINE('',#291,#71);
#52=LINE('',#293,#72);
#53=LINE('',#295,#73);
#54=LINE('',#296,#74);
#55=LINE('',#303,#75);
#56=LINE('',#312,#76);
#57=LINE('',#314,#77);
#58=LINE('',#316,#78);
#59=LINE('',#318,#79);
#60=LINE('',#320,#80);
#61=LINE('',#321,#81);
#62=LINE('',#323,#82);
#63=LINE('',#324,#83);
#64=LINE('',#326,#84);
#65=LINE('',#328,#85);
#66=LINE('',#330,#86);
#67=LINE('',#332,#87);
#68=LINE('',#334,#88);
#69=VECTOR('',#233,10.);
#70=VECTOR('',#234,10.);
#71=VECTOR('',#235,9.99999999999999);
#72=VECTOR('',#236,10.);
#73=VECTOR('',#237,10.);
#74=VECTOR('',#238,10.);
#75=VECTOR('',#245,1.25);
#76=VECTOR('',#256,10.);
#77=VECTOR('',#257,10.);
#78=VECTOR('',#258,10.);
#79=VECTOR('',#259,10.);
#80=VECTOR('',#260,9.99999999999999);
#81=VECTOR('',#261,10.);
#82=VECTOR('',#264,10.);
#83=VECTOR('',#265,10.);
#84=VECTOR('',#268,10.);
#85=VECTOR('',#271,10.);
#86=VECTOR('',#274,10.);
#87=VECTOR('',#277,10.);
#88=VECTOR('',#280,1.25);
#89=VERTEX_POINT('',#285);
#90=VERTEX_POINT('',#286);
#91=VERTEX_POINT('',#288);
#92=VERTEX_POINT('',#290);
#93=VERTEX_POINT('',#292);
#94=VERTEX_POINT('',#294);
#95=VERTEX_POINT('',#297);
#96=VERTEX_POINT('',#300);
#97=VERTEX_POINT('',#302);
#98=VERTEX_POINT('',#307);
#99=VERTEX_POINT('',#310);
#100=VERTEX_POINT('',#311);
#101=VERTEX_POINT('',#313);
#102=VERTEX_POINT('',#315);
#103=VERTEX_POINT('',#317);
#104=VERTEX_POINT('',#319);
#105=EDGE_CURVE('',#89,#90,#49,.T.);
#106=EDGE_CURVE('',#90,#91,#50,.T.);
#107=EDGE_CURVE('',#91,#92,#51,.T.);
#108=EDGE_CURVE('',#92,#93,#52,.T.);
#109=EDGE_CURVE('',#93,#94,#53,.T.);
#110=EDGE_CURVE('',#94,#89,#54,.T.);
#111=EDGE_CURVE('',#95,#95,#19,.T.);
#112=EDGE_CURVE('',#96,#96,#20,.T.);
#113=EDGE_CURVE('',#96,#97,#55,.T.);
#114=EDGE_CURVE('',#97,#97,#21,.T.);
#115=EDGE_CURVE('',#98,#98,#22,.T.);
#116=EDGE_CURVE('',#99,#100,#56,.T.);
#117=EDGE_CURVE('',#100,#101,#57,.T.);
#118=EDGE_CURVE('',#101,#102,#58,.T.);
#119=EDGE_CURVE('',#102,#103,#59,.T.);
#120=EDGE_CURVE('',#103,#104,#60,.T.);
#121=EDGE_CURVE('',#104,#99,#61,.T.);
#122=EDGE_CURVE('',#92,#103,#62,.T.);
#123=EDGE_CURVE('',#91,#104,#63,.T.);
#124=EDGE_CURVE('',#93,#102,#64,.T.);
#125=EDGE_CURVE('',#94,#101,#65,.T.);
#126=EDGE_CURVE('',#90,#99,#66,.T.);
#127=EDGE_CURVE('',#89,#100,#67,.T.);
#128=EDGE_CURVE('',#95,#98,#68,.T.);
#129=ORIENTED_EDGE('',*,*,#105,.T.);
#130=ORIENTED_EDGE('',*,*,#106,.T.);
#131=ORIENTED_EDGE('',*,*,#107,.T.);
#132=ORIENTED_EDGE('',*,*,#108,.T.);
#133=ORIENTED_EDGE('',*,*,#109,.T.);
#134=ORIENTED_EDGE('',*,*,#110,.T.);
#135=ORIENTED_EDGE('',*,*,#111,.T.);
#136=ORIENTED_EDGE('',*,*,#112,.F.);
#137=ORIENTED_EDGE('',*,*,#113,.T.);
#138=ORIENTED_EDGE('',*,*,#114,.F.);
#139=ORIENTED_EDGE('',*,*,#113,.F.);
#140=ORIENTED_EDGE('',*,*,#112,.T.);
#141=ORIENTED_EDGE('',*,*,#115,.F.);
#142=ORIENTED_EDGE('',*,*,#116,.T.);
#143=ORIENTED_EDGE('',*,*,#117,.T.);
#144=ORIENTED_EDGE('',*,*,#118,.T.);
#145=ORIENTED_EDGE('',*,*,#119,.T.);
#146=ORIENTED_EDGE('',*,*,#120,.T.);
#147=ORIENTED_EDGE('',*,*,#121,.T.);
#148=ORIENTED_EDGE('',*,*,#114,.T.);
#149=ORIENTED_EDGE('',*,*,#122,.F.);
#150=ORIENTED_EDGE('',*,*,#107,.F.);
#151=ORIENTED_EDGE('',*,*,#123,.T.);
#152=ORIENTED_EDGE('',*,*,#120,.F.);
#153=ORIENTED_EDGE('',*,*,#124,.F.);
#154=ORIENTED_EDGE('',*,*,#108,.F.);
#155=ORIENTED_EDGE('',*,*,#122,.T.);
#156=ORIENTED_EDGE('',*,*,#119,.F.);
#157=ORIENTED_EDGE('',*,*,#125,.F.);
#158=ORIENTED_EDGE('',*,*,#109,.F.);
#159=ORIENTED_EDGE('',*,*,#124,.T.);
#160=ORIENTED_EDGE('',*,*,#118,.F.);
#161=ORIENTED_EDGE('',*,*,#123,.F.);
#162=ORIENTED_EDGE('',*,*,#106,.F.);
#163=ORIENTED_EDGE('',*,*,#126,.T.);
#164=ORIENTED_EDGE('',*,*,#121,.F.);
#165=ORIENTED_EDGE('',*,*,#126,.F.);
#166=ORIENTED_EDGE('',*,*,#105,.F.);
#167=ORIENTED_EDGE('',*,*,#127,.T.);
#168=ORIENTED_EDGE('',*,*,#116,.F.);
#169=ORIENTED_EDGE('',*,*,#111,.F.);
#170=ORIENTED_EDGE('',*,*,#128,.T.);
#171=ORIENTED_EDGE('',*,*,#115,.T.);
#172=ORIENTED_EDGE('',*,*,#128,.F.);
#173=ORIENTED_EDGE('',*,*,#127,.F.);
#174=ORIENTED_EDGE('',*,*,#110,.F.);
#175=ORIENTED_EDGE('',*,*,#125,.T.);
#176=ORIENTED_EDGE('',*,*,#117,.F.);
#177=PLANE('',#213);
#178=PLANE('',#218);
#179=PLANE('',#219);
#180=PLANE('',#221);
#181=PLANE('',#222);
#182=PLANE('',#223);
#183=PLANE('',#224);
#184=PLANE('',#225);
#185=PLANE('',#226);
#186=PLANE('',#228);
#187=ADVANCED_FACE('',(#23,#17),#177,.F.);
#188=ADVANCED_FACE('',(#24),#15,.T.);
#189=ADVANCED_FACE('',(#25),#178,.T.);
#190=ADVANCED_FACE('',(#26),#179,.F.);
#191=ADVANCED_FACE('',(#27,#18),#180,.T.);
#192=ADVANCED_FACE('',(#28),#181,.T.);
#193=ADVANCED_FACE('',(#29),#182,.T.);
#194=ADVANCED_FACE('',(#30),#183,.T.);
#195=ADVANCED_FACE('',(#31),#184,.T.);
#196=ADVANCED_FACE('',(#32),#185,.T.);
#197=ADVANCED_FACE('',(#33),#16,.F.);
#198=ADVANCED_FACE('',(#34),#186,.T.);
#199=CLOSED_SHELL('',(#187,#188,#189,#190,#191,#192,#193,#194,#195,#196,
#197,#198));
#200=DERIVED_UNIT_ELEMENT(#202,1.);
#201=DERIVED_UNIT_ELEMENT(#341,-3.);
#202=(
MASS_UNIT()
NAMED_UNIT(*)
SI_UNIT(.KILO.,.GRAM.)
);
#203=DERIVED_UNIT((#200,#201));
#204=MEASURE_REPRESENTATION_ITEM('density measure',
POSITIVE_RATIO_MEASURE(7850.),#203);
#205=PROPERTY_DEFINITION_REPRESENTATION(#210,#207);
#206=PROPERTY_DEFINITION_REPRESENTATION(#211,#208);
#207=REPRESENTATION('material name',(#209),#338);
#208=REPRESENTATION('density',(#204),#338);
#209=DESCRIPTIVE_REPRESENTATION_ITEM('\X2\94A2\X0\','\X2\94A2\X0\');
#210=PROPERTY_DEFINITION('material property','material name',#348);
#211=PROPERTY_DEFINITION('material property','density of part',#348);
#212=AXIS2_PLACEMENT_3D('',#283,#229,#230);
#213=AXIS2_PLACEMENT_3D('',#284,#231,#232);
#214=AXIS2_PLACEMENT_3D('',#298,#239,#240);
#215=AXIS2_PLACEMENT_3D('',#299,#241,#242);
#216=AXIS2_PLACEMENT_3D('',#301,#243,#244);
#217=AXIS2_PLACEMENT_3D('',#304,#246,#247);
#218=AXIS2_PLACEMENT_3D('',#305,#248,#249);
#219=AXIS2_PLACEMENT_3D('',#306,#250,#251);
#220=AXIS2_PLACEMENT_3D('',#308,#252,#253);
#221=AXIS2_PLACEMENT_3D('',#309,#254,#255);
#222=AXIS2_PLACEMENT_3D('',#322,#262,#263);
#223=AXIS2_PLACEMENT_3D('',#325,#266,#267);
#224=AXIS2_PLACEMENT_3D('',#327,#269,#270);
#225=AXIS2_PLACEMENT_3D('',#329,#272,#273);
#226=AXIS2_PLACEMENT_3D('',#331,#275,#276);
#227=AXIS2_PLACEMENT_3D('',#333,#278,#279);
#228=AXIS2_PLACEMENT_3D('',#335,#281,#282);
#229=DIRECTION('axis',(0.,0.,1.));
#230=DIRECTION('refdir',(1.,0.,0.));
#231=DIRECTION('center_axis',(0.,0.,1.));
#232=DIRECTION('ref_axis',(1.,0.,0.));
#233=DIRECTION('',(-4.18035366605122E-16,-1.,0.));
#234=DIRECTION('',(-0.866025403784439,-0.5,0.));
#235=DIRECTION('',(-0.866025403784438,0.5,0.));
#236=DIRECTION('',(4.18035366605123E-16,1.,0.));
#237=DIRECTION('',(0.866025403784439,0.5,0.));
#238=DIRECTION('',(0.866025403784439,-0.5,0.));
#239=DIRECTION('center_axis',(0.,0.,1.));
#240=DIRECTION('ref_axis',(1.,0.,0.));
#241=DIRECTION('center_axis',(0.,0.,1.));
#242=DIRECTION('ref_axis',(-1.,0.,0.));
#243=DIRECTION('center_axis',(0.,0.,1.));
#244=DIRECTION('ref_axis',(-1.,0.,0.));
#245=DIRECTION('',(0.,0.,-1.));
#246=DIRECTION('center_axis',(0.,0.,-1.));
#247=DIRECTION('ref_axis',(-1.,0.,0.));
#248=DIRECTION('center_axis',(0.,0.,1.));
#249=DIRECTION('ref_axis',(-1.,0.,0.));
#250=DIRECTION('center_axis',(0.,0.,1.));
#251=DIRECTION('ref_axis',(-1.,0.,0.));
#252=DIRECTION('center_axis',(0.,0.,1.));
#253=DIRECTION('ref_axis',(1.,0.,0.));
#254=DIRECTION('center_axis',(0.,0.,1.));
#255=DIRECTION('ref_axis',(1.,0.,0.));
#256=DIRECTION('',(4.18035366605122E-16,1.,0.));
#257=DIRECTION('',(-0.866025403784439,0.5,0.));
#258=DIRECTION('',(-0.866025403784439,-0.5,0.));
#259=DIRECTION('',(-4.18035366605123E-16,-1.,0.));
#260=DIRECTION('',(0.866025403784438,-0.5,0.));
#261=DIRECTION('',(0.866025403784439,0.5,0.));
#262=DIRECTION('center_axis',(-0.5,-0.866025403784438,0.));
#263=DIRECTION('ref_axis',(0.866025403784438,-0.5,0.));
#264=DIRECTION('',(0.,0.,1.));
#265=DIRECTION('',(0.,0.,1.));
#266=DIRECTION('center_axis',(-1.,4.18035366605123E-16,0.));
#267=DIRECTION('ref_axis',(-4.18035366605123E-16,-1.,0.));
#268=DIRECTION('',(0.,0.,1.));
#269=DIRECTION('center_axis',(-0.5,0.866025403784439,0.));
#270=DIRECTION('ref_axis',(-0.866025403784439,-0.5,0.));
#271=DIRECTION('',(0.,0.,1.));
#272=DIRECTION('center_axis',(0.5,-0.866025403784439,0.));
#273=DIRECTION('ref_axis',(0.866025403784439,0.5,0.));
#274=DIRECTION('',(0.,0.,1.));
#275=DIRECTION('center_axis',(1.,-4.18035366605122E-16,0.));
#276=DIRECTION('ref_axis',(4.18035366605122E-16,1.,0.));
#277=DIRECTION('',(0.,0.,1.));
#278=DIRECTION('center_axis',(0.,0.,1.));
#279=DIRECTION('ref_axis',(1.,0.,0.));
#280=DIRECTION('',(0.,0.,1.));
#281=DIRECTION('center_axis',(0.5,0.866025403784439,0.));
#282=DIRECTION('ref_axis',(-0.866025403784439,0.5,0.));
#283=CARTESIAN_POINT('',(0.,0.,0.));
#284=CARTESIAN_POINT('Origin',(-2.77555756156289E-16,0.,6.));
#285=CARTESIAN_POINT('',(2.3,1.32790561913614,6.));
#286=CARTESIAN_POINT('',(2.3,-1.32790561913614,6.));
#287=CARTESIAN_POINT('',(2.3,-0.663952809568071,6.));
#288=CARTESIAN_POINT('',(-1.38777878078145E-15,-2.65581123827228,6.));
#289=CARTESIAN_POINT('',(0.574999999999999,-2.32383483348824,6.));
#290=CARTESIAN_POINT('',(-2.3,-1.32790561913614,6.));
#291=CARTESIAN_POINT('',(-1.725,-1.65988202392017,6.));
#292=CARTESIAN_POINT('',(-2.3,1.32790561913614,6.));
#293=CARTESIAN_POINT('',(-2.3,0.66395280956807,6.));
#294=CARTESIAN_POINT('',(6.93889390390723E-16,2.65581123827228,6.));
#295=CARTESIAN_POINT('',(-0.574999999999999,2.32383483348824,6.));
#296=CARTESIAN_POINT('',(1.725,1.65988202392017,6.));
#297=CARTESIAN_POINT('',(-1.25,-1.53080849893419E-16,6.));
#298=CARTESIAN_POINT('Origin',(0.,0.,6.));
#299=CARTESIAN_POINT('Origin',(0.,0.,22.));
#300=CARTESIAN_POINT('',(1.25,1.53080849893419E-16,26.));
#301=CARTESIAN_POINT('Origin',(0.,0.,26.));
#302=CARTESIAN_POINT('',(1.25,1.53080849893419E-16,22.));
#303=CARTESIAN_POINT('',(1.25,1.53080849893419E-16,22.));
#304=CARTESIAN_POINT('Origin',(0.,0.,22.));
#305=CARTESIAN_POINT('Origin',(0.,0.,26.));
#306=CARTESIAN_POINT('Origin',(0.,0.,20.));
#307=CARTESIAN_POINT('',(-1.25,-1.53080849893419E-16,20.));
#308=CARTESIAN_POINT('Origin',(0.,0.,20.));
#309=CARTESIAN_POINT('Origin',(-2.77555756156289E-16,0.,22.));
#310=CARTESIAN_POINT('',(2.3,-1.32790561913614,22.));
#311=CARTESIAN_POINT('',(2.3,1.32790561913614,22.));
#312=CARTESIAN_POINT('',(2.3,-0.663952809568071,22.));
#313=CARTESIAN_POINT('',(6.93889390390723E-16,2.65581123827228,22.));
#314=CARTESIAN_POINT('',(1.725,1.65988202392017,22.));
#315=CARTESIAN_POINT('',(-2.3,1.32790561913614,22.));
#316=CARTESIAN_POINT('',(-0.574999999999999,2.32383483348824,22.));
#317=CARTESIAN_POINT('',(-2.3,-1.32790561913614,22.));
#318=CARTESIAN_POINT('',(-2.3,0.66395280956807,22.));
#319=CARTESIAN_POINT('',(-1.38777878078145E-15,-2.65581123827228,22.));
#320=CARTESIAN_POINT('',(-1.725,-1.65988202392017,22.));
#321=CARTESIAN_POINT('',(0.574999999999999,-2.32383483348824,22.));
#322=CARTESIAN_POINT('Origin',(-2.3,-1.32790561913614,0.));
#323=CARTESIAN_POINT('',(-2.3,-1.32790561913614,18.));
#324=CARTESIAN_POINT('',(-1.38777878078145E-15,-2.65581123827228,0.));
#325=CARTESIAN_POINT('Origin',(-2.3,1.32790561913614,0.));
#326=CARTESIAN_POINT('',(-2.3,1.32790561913614,18.));
#327=CARTESIAN_POINT('Origin',(6.93889390390723E-16,2.65581123827228,0.));
#328=CARTESIAN_POINT('',(6.93889390390723E-16,2.65581123827228,0.));
#329=CARTESIAN_POINT('Origin',(-1.38777878078145E-15,-2.65581123827228,
0.));
#330=CARTESIAN_POINT('',(2.3,-1.32790561913614,0.));
#331=CARTESIAN_POINT('Origin',(2.3,-1.32790561913614,0.));
#332=CARTESIAN_POINT('',(2.3,1.32790561913614,0.));
#333=CARTESIAN_POINT('Origin',(0.,0.,0.));
#334=CARTESIAN_POINT('',(-1.25,-1.53080849893419E-16,0.));
#335=CARTESIAN_POINT('Origin',(2.3,1.32790561913614,0.));
#336=UNCERTAINTY_MEASURE_WITH_UNIT(LENGTH_MEASURE(0.01),#340,
'DISTANCE_ACCURACY_VALUE',
'Maximum model space distance between geometric entities at asserted c
onnectivities');
#337=UNCERTAINTY_MEASURE_WITH_UNIT(LENGTH_MEASURE(0.01),#340,
'DISTANCE_ACCURACY_VALUE',
'Maximum model space distance between geometric entities at asserted c
onnectivities');
#338=(
GEOMETRIC_REPRESENTATION_CONTEXT(3)
GLOBAL_UNCERTAINTY_ASSIGNED_CONTEXT((#336))
GLOBAL_UNIT_ASSIGNED_CONTEXT((#340,#342,#343))
REPRESENTATION_CONTEXT('','3D')
);
#339=(
GEOMETRIC_REPRESENTATION_CONTEXT(3)
GLOBAL_UNCERTAINTY_ASSIGNED_CONTEXT((#337))
GLOBAL_UNIT_ASSIGNED_CONTEXT((#340,#342,#343))
REPRESENTATION_CONTEXT('','3D')
);
#340=(
LENGTH_UNIT()
NAMED_UNIT(*)
SI_UNIT(.MILLI.,.METRE.)
);
#341=(
LENGTH_UNIT()
NAMED_UNIT(*)
SI_UNIT($,.METRE.)
);
#342=(
NAMED_UNIT(*)
PLANE_ANGLE_UNIT()
SI_UNIT($,.RADIAN.)
);
#343=(
NAMED_UNIT(*)
SI_UNIT($,.STERADIAN.)
SOLID_ANGLE_UNIT()
);
#344=SHAPE_DEFINITION_REPRESENTATION(#345,#346);
#345=PRODUCT_DEFINITION_SHAPE('',$,#348);
#346=SHAPE_REPRESENTATION('',(#212),#338);
#347=PRODUCT_DEFINITION_CONTEXT('part definition',#352,'design');
#348=PRODUCT_DEFINITION('\X2\516D89D294DC67F1\X0\ M2.5*16+4',
'\X2\516D89D294DC67F1\X0\ M2.5*16+4 v2',#349,#347);
#349=PRODUCT_DEFINITION_FORMATION('',$,#354);
#350=PRODUCT_RELATED_PRODUCT_CATEGORY('\X2\516D89D294DC67F1\X0\ M2.5*1
6+4 v2','\X2\516D89D294DC67F1\X0\ M2.5*16+4 v2',(#354));
#351=APPLICATION_PROTOCOL_DEFINITION('international standard',
'automotive_design',2009,#352);
#352=APPLICATION_CONTEXT(
'Core Data for Automotive Mechanical Design Process');
#353=PRODUCT_CONTEXT('part definition',#352,'mechanical');
#354=PRODUCT('\X2\516D89D294DC67F1\X0\ M2.5*16+4',
'\X2\516D89D294DC67F1\X0\ M2.5*16+4 v2',$,(#353));
#355=PRESENTATION_STYLE_ASSIGNMENT((#357));
#356=PRESENTATION_STYLE_ASSIGNMENT((#358));
#357=SURFACE_STYLE_USAGE(.BOTH.,#359);
#358=SURFACE_STYLE_USAGE(.BOTH.,#360);
#359=SURFACE_SIDE_STYLE('',(#361));
#360=SURFACE_SIDE_STYLE('',(#362));
#361=SURFACE_STYLE_FILL_AREA(#363);
#362=SURFACE_STYLE_FILL_AREA(#364);
#363=FILL_AREA_STYLE('Acero - Satinado',(#365));
#364=FILL_AREA_STYLE('Opaque(243,203,124)',(#366));
#365=FILL_AREA_STYLE_COLOUR('Acero - Satinado',#367);
#366=FILL_AREA_STYLE_COLOUR('Opaque(243,203,124)',#368);
#367=COLOUR_RGB('Acero - Satinado',0.627450980392157,0.627450980392157,
0.627450980392157);
#368=COLOUR_RGB('Opaque(243,203,124)',0.952941176470588,0.796078431372549,
0.486274509803922);
ENDSEC;
END-ISO-10303-21;
